<?xml version="1.0" encoding="utf-8"?>
<!-- Generator: Adobe Illustrator 16.0.4, SVG Export Plug-In . SVG Version: 6.00 Build 0)  -->
<!DOCTYPE svg PUBLIC "-//W3C//DTD SVG 1.1//EN" "http://www.w3.org/Graphics/SVG/1.1/DTD/svg11.dtd">
<svg version="1.1" id="Layer_1" xmlns="http://www.w3.org/2000/svg" xmlns:xlink="http://www.w3.org/1999/xlink" x="0px" y="0px"
	 width="41.913px" height="45px" viewBox="0 0 41.913 45" enable-background="new 0 0 41.913 45" xml:space="preserve">
<g>
	<path fill="#231F20" d="M6.795,13.132h3.825L8.708,4.603L6.795,13.132z M12.003,0c0.677,0,1.003,0.384,1.143,0.891l4.688,19.098
		c0.146,0.716-0.232,1.27-0.997,1.27h-3.505c-0.651,0-0.917-0.352-1.065-0.879l-0.527-2.395c-0.067-0.22-0.228-0.429-0.594-0.429
		H6.203c-0.352,0-0.44,0.144-0.506,0.407l-0.549,2.417c-0.131,0.494-0.351,0.879-1.069,0.879H1.144
		c-0.765,0-1.269-0.527-1.116-1.234L4.729,0.891C4.883,0.384,5.147,0,5.8,0H12.003z"/>
	<path fill="#231F20" d="M6.414,28.711v11.345c0,0.309,0.228,0.527,0.492,0.527h2.658c1.274,0,2-0.746,2-1.988v-8.426
		c0-1.308-0.726-1.995-1.934-1.995H6.906C6.642,28.174,6.414,28.411,6.414,28.711 M12.181,23.753c2.915,0,4.92,2.06,4.92,4.877
		v11.465c0,2.861-1.948,4.905-4.9,4.905H2.116c-0.821,0-1.232-0.417-1.232-1.227v-18.79c0-0.836,0.411-1.23,1.232-1.23H12.181z"/>
	<path fill="#231F20" d="M33.913,24.722c0.142-0.574,0.425-0.969,1.108-0.969h5.732c0.746,0,1.159,0.395,1.159,1.186v18.896
		c0,0.748-0.413,1.165-1.159,1.165h-2.78c-0.78,0-1.18-0.417-1.18-1.165V30.512l-3.38,13.533C33.298,44.57,32.975,45,32.271,45
		h-2.688c-0.74,0-0.978-0.43-1.113-0.955l-3.434-13.533v13.323c0,0.748-0.412,1.165-1.158,1.165h-2.776
		c-0.773,0-1.18-0.417-1.18-1.165V24.938c0-0.791,0.407-1.186,1.18-1.186h5.679c0.743,0,1.001,0.395,1.113,0.969l3.026,12.458
		L33.913,24.722z"/>
	<g>
		<path fill="#231F20" d="M20.417,1.406c-0.108,0-0.26-0.018-0.372-0.056l0.043-0.13c0.105,0.023,0.22,0.044,0.344,0.044
			c0.184,0,0.228-0.044,0.228-0.186c0-0.167,0-0.187-0.243-0.247c-0.308-0.062-0.352-0.116-0.352-0.38
			c0-0.219,0.107-0.327,0.416-0.327c0.092,0,0.223,0.02,0.325,0.041l-0.011,0.132c-0.091-0.021-0.222-0.025-0.314-0.025
			c-0.212,0-0.25,0.039-0.25,0.18c0,0.176,0,0.176,0.25,0.241c0.332,0.086,0.342,0.133,0.342,0.375
			C20.824,1.286,20.769,1.406,20.417,1.406z"/>
		<path fill="#231F20" d="M21.233,1.041c0,0.157,0.071,0.222,0.278,0.222c0.085,0,0.211,0,0.292-0.021l0.021,0.132
			c-0.096,0.021-0.228,0.032-0.313,0.032c-0.306,0-0.434-0.12-0.434-0.362V0.495c0-0.24,0.128-0.372,0.434-0.372
			c0.085,0,0.217,0.019,0.313,0.039l-0.021,0.134c-0.081-0.021-0.207-0.021-0.292-0.021c-0.207,0-0.278,0.045-0.278,0.229V1.041z"/>
		<path fill="#231F20" d="M22.779,1.39V0.825h-0.527V1.39h-0.176V0.144h0.176v0.548h0.527V0.144h0.175V1.39H22.779z"/>
		<path fill="#231F20" d="M24.143,1.04c0,0.203-0.133,0.366-0.463,0.366c-0.328,0-0.461-0.164-0.461-0.366V0.505
			c0-0.209,0.133-0.382,0.461-0.382c0.33,0,0.463,0.173,0.463,0.382V1.04z M23.395,1.026c0,0.149,0.088,0.237,0.285,0.237
			c0.199,0,0.287-0.087,0.287-0.237V0.505c0-0.142-0.088-0.234-0.287-0.234c-0.197,0-0.285,0.092-0.285,0.234V1.026z"/>
		<path fill="#231F20" d="M25.294,1.04c0,0.203-0.142,0.366-0.448,0.366c-0.309,0-0.439-0.164-0.439-0.366V0.505
			c0-0.209,0.131-0.382,0.439-0.382c0.307,0,0.448,0.173,0.448,0.382V1.04z M24.548,1.026c0,0.149,0.122,0.237,0.298,0.237
			s0.307-0.087,0.307-0.237V0.505c0-0.142-0.131-0.234-0.307-0.234s-0.298,0.092-0.298,0.234V1.026z"/>
		<path fill="#231F20" d="M25.754,1.242h0.541V1.39h-0.703V0.144h0.162V1.242z"/>
		<path fill="#231F20" d="M27.789,1.04c0,0.203-0.131,0.366-0.439,0.366c-0.307,0-0.441-0.164-0.441-0.366V0.505
			c0-0.209,0.135-0.382,0.441-0.382c0.309,0,0.439,0.173,0.439,0.382V1.04z M27.043,1.026c0,0.149,0.125,0.237,0.307,0.237
			c0.176,0,0.306-0.087,0.306-0.237V0.505c0-0.142-0.13-0.234-0.306-0.234c-0.182,0-0.307,0.092-0.307,0.234V1.026z"/>
		<path fill="#231F20" d="M28.098,1.39V0.144h0.746v0.148h-0.597v0.422h0.554v0.134h-0.554V1.39H28.098z"/>
		<path fill="#231F20" d="M30.411,1.39H30.25l-0.09-0.297h-0.54L29.518,1.39h-0.146l0.399-1.246h0.216L30.411,1.39z M29.894,0.256
			l-0.234,0.7h0.46L29.894,0.256z"/>
		<path fill="#231F20" d="M31.086,0.935h-0.309V1.39h-0.143V0.144h0.451c0.299,0,0.374,0.112,0.374,0.308v0.176
			c0,0.153-0.041,0.247-0.198,0.285l0.312,0.478h-0.181L31.086,0.935z M31.086,0.292h-0.309v0.505h0.309
			c0.176,0,0.219-0.04,0.219-0.169V0.451C31.305,0.33,31.262,0.292,31.086,0.292z"/>
		<path fill="#231F20" d="M31.998,0.292h-0.385V0.144h0.922v0.148h-0.387V1.39h-0.15V0.292z"/>
		<path fill="#231F20" d="M32.535,1.175h0.15V1.39l-0.112,0.225l-0.081-0.039l0.081-0.187h-0.038V1.175z"/>
	</g>
	<g>
		<path fill="#231F20" d="M20.536,2.142c0.308,0,0.396,0.164,0.396,0.37v0.532c0,0.184-0.088,0.352-0.396,0.352H20.11V2.142H20.536z
			 M20.265,3.244h0.266c0.195,0,0.246-0.075,0.246-0.223V2.517c0-0.153-0.051-0.228-0.246-0.228h-0.266V3.244z"/>
		<path fill="#231F20" d="M21.226,2.142h0.729v0.146h-0.571v0.384h0.531v0.151h-0.531v0.42h0.571v0.151h-0.729V2.142z"/>
		<path fill="#231F20" d="M22.533,3.417c-0.105,0-0.236-0.021-0.369-0.065l0.045-0.14c0.131,0.032,0.239,0.052,0.347,0.052
			c0.181,0,0.224-0.044,0.224-0.192c0-0.169,0-0.183-0.25-0.232c-0.277-0.083-0.32-0.126-0.32-0.39c0-0.22,0.088-0.329,0.395-0.329
			c0.088,0,0.221,0.021,0.351,0.044l-0.042,0.141c-0.088-0.02-0.221-0.036-0.309-0.036c-0.194,0-0.225,0.038-0.225,0.18
			c0,0.177,0,0.182,0.227,0.243c0.349,0.088,0.349,0.132,0.349,0.373C22.954,3.285,22.912,3.417,22.533,3.417z"/>
		<path fill="#231F20" d="M23.395,3.396h-0.176V2.142h0.176V3.396z"/>
		<path fill="#231F20" d="M23.866,3.044c0,0.149,0.056,0.22,0.276,0.22c0.043,0,0.131,0,0.219-0.022V2.824h0.133v0.527
			c-0.122,0.044-0.239,0.065-0.352,0.065c-0.35,0-0.439-0.151-0.439-0.373v-0.55c0-0.244,0.131-0.373,0.439-0.373
			c0.112,0,0.225,0.021,0.352,0.044l-0.045,0.141c-0.119-0.019-0.219-0.032-0.307-0.032c-0.221,0-0.276,0.063-0.276,0.238V3.044z"/>
		<path fill="#231F20" d="M24.948,2.326v1.069h-0.135V2.142h0.208l0.535,1.066V2.142h0.168v1.253h-0.221L24.948,2.326z"/>
		<path fill="#231F20" d="M27.396,3.396h-0.152l-0.112-0.308h-0.527l-0.088,0.308H26.34l0.403-1.253h0.232L27.396,3.396z
			 M26.867,2.268l-0.221,0.688h0.439L26.867,2.268z"/>
		<path fill="#231F20" d="M27.78,2.326v1.069h-0.167V2.142h0.207l0.545,1.066V2.142h0.144v1.253h-0.192L27.78,2.326z"/>
		<path fill="#231F20" d="M29.283,2.142c0.301,0,0.396,0.164,0.396,0.37v0.532c0,0.184-0.096,0.352-0.396,0.352h-0.439V2.142H29.283
			z M29.009,3.244h0.274c0.176,0,0.225-0.075,0.225-0.223V2.517c0-0.153-0.049-0.228-0.225-0.228h-0.274V3.244z"/>
		<path fill="#231F20" d="M30.514,2.385l-0.028,1.011h-0.147l0.047-1.253h0.217l0.348,0.967l0.355-0.967h0.193l0.037,1.253h-0.143
			l-0.008-1.011l-0.344,0.842h-0.194L30.514,2.385z"/>
		<path fill="#231F20" d="M31.845,2.142h0.735v0.146h-0.572v0.384h0.527v0.151h-0.527v0.42h0.572v0.151h-0.735V2.142z"/>
		<path fill="#231F20" d="M33.298,2.142c0.292,0,0.398,0.164,0.398,0.37v0.532c0,0.184-0.106,0.352-0.398,0.352h-0.454V2.142H33.298
			z M33.02,3.244h0.274c0.165,0,0.253-0.075,0.253-0.223V2.517c0-0.153-0.088-0.228-0.253-0.228H33.02V3.244z"/>
		<path fill="#231F20" d="M34.157,3.396h-0.171V2.142h0.171V3.396z"/>
		<path fill="#231F20" d="M35.436,3.396H35.26l-0.12-0.308h-0.528l-0.09,0.308h-0.15l0.406-1.253h0.219L35.436,3.396z M34.908,2.268
			l-0.247,0.688H35.1L34.908,2.268z"/>
	</g>
</g>
</svg>
