<?xml version="1.0" encoding="utf-8"?>
<!-- Generator: Adobe Illustrator 16.0.4, SVG Export Plug-In . SVG Version: 6.00 Build 0)  -->
<!DOCTYPE svg PUBLIC "-//W3C//DTD SVG 1.1//EN" "http://www.w3.org/Graphics/SVG/1.1/DTD/svg11.dtd">
<svg version="1.1" id="Layer_1" xmlns="http://www.w3.org/2000/svg" xmlns:xlink="http://www.w3.org/1999/xlink" x="0px" y="0px"
	 width="171.047px" height="158.698px" viewBox="0 0 171.047 158.698" enable-background="new 0 0 171.047 158.698"
	 xml:space="preserve">
<circle fill="#97BBD2" cx="83.27" cy="79.348" r="79.349"/>
<circle fill="#728EA0" cx="83.803" cy="80.547" r="76.322"/>
<circle fill="#2B6D87" cx="84.021" cy="86.334" r="66.788"/>
<circle fill="#3B8DB0" cx="83.802" cy="87.525" r="63.346"/>
<g>
	<g>
		<g>
			<g>
				<g>
					<g>
						<path fill="#75A8BC" d="M29.996,76.158c0.283-0.345-1.766-0.792-2.111-0.958C28.146,76.017,30.526,76.287,29.996,76.158z"/>
						<path fill="#75A8BC" d="M33.15,83.623l-0.822-0.257c0,0,0.48,0.322,0.961,0.643c0.484,0.313,0.969,0.627,0.969,0.627
							s-0.277-0.252-0.555-0.502C33.426,83.877,33.15,83.623,33.15,83.623z"/>
						<path fill="#75A8BC" d="M32.456,89.608c1.804-0.199,1.698-0.719,1.312-1.35c-0.376-0.623-1.067-1.383-0.351-1.832l0.83-0.076
							c0,0-0.695-0.203-1.393-0.408c-0.695-0.211-1.392-0.422-1.392-0.422c0.067,0.345,0.222,0.724,0.399,1.105
							c0.193,0.388,0.415,0.779,0.591,1.15C32.807,88.517,32.986,89.172,32.456,89.608z"/>
						<path fill="#75A8BC" d="M24.688,93.04c0.693-0.131,0.994,0.066,1.027,0.086c0.028,0.02-0.215-0.131-0.59-0.977
							c-0.152,0.086-0.24,0.111-0.354,0.163C24.791,92.465,24.787,92.676,24.688,93.04z"/>
						<path fill="#75A8BC" d="M24.771,92.312C24.677,91.557,23.602,92.817,24.771,92.312L24.771,92.312z"/>
						<path fill="#75A8BC" d="M25.713,95.758c0,0-0.324-0.227-0.648-0.453c-0.324-0.232-0.648-0.465-0.648-0.465
							c-0.809,0.256-0.938,1.191-1.553,0.891C23.607,96.752,24.405,96.435,25.713,95.758z"/>
						<path fill="#75A8BC" d="M28.377,96.45c0,0-0.143-0.109-0.287-0.221c-0.138-0.111-0.277-0.221-0.277-0.221
							C27.479,96.122,27.356,96.267,28.377,96.45z"/>
						<path fill="#75A8BC" d="M26.643,95.036c0,0,0.293,0.246,0.585,0.492c0.293,0.239,0.585,0.48,0.585,0.48
							c0.566-0.189,1.721-0.285-0.428-0.449C28.443,95.564,27.418,95.442,26.643,95.036z"/>
						<path fill="#75A8BC" d="M27.152,94.406c0.747-0.584,1.201-1.252,2.484-0.384c-0.294-0.855-1.055-1.222-1.677-1.143
							C27.326,92.952,26.855,93.499,27.152,94.406z"/>
						<path fill="#75A8BC" d="M36.127,90.072c0,0,0.266-0.135,0.539-0.266c0.273-0.13,0.543-0.259,0.543-0.259l-1.156-0.57
							C36.629,89.26,34.999,90.055,36.127,90.072z"/>
						<path fill="#75A8BC" d="M24.77,102.309c0.756-0.092,1.916-0.744,2.856-1l-0.997-0.561
							C26.188,101.214,25.861,102.028,24.77,102.309z"/>
						<path fill="#75A8BC" d="M27.626,101.309c0,0,0.372,0.201,0.745,0.402c0.371,0.192,0.742,0.387,0.742,0.387
							C29.078,101.141,28.438,101.089,27.626,101.309z"/>
						<path fill="#75A8BC" d="M32.342,96.229c0,0-0.734-0.323-1.434-0.671c-0.706-0.347-1.414-0.72-1.414-0.72
							s0.723,0.452,1.443,0.873c0.355,0.211,0.729,0.415,1.01,0.567c0.281,0.149,0.468,0.248,0.468,0.248L32.342,96.229z"/>
						<path fill="#75A8BC" d="M25.754,106.651c0,0-0.465-0.035-0.933-0.072c-0.468-0.041-0.935-0.083-0.935-0.083
							s0.717,0.104,1.436,0.209c0.359,0.046,0.717,0.091,0.984,0.124c0.271,0.031,0.451,0.051,0.451,0.051s-0.252-0.055-0.504-0.111
							C26.004,106.709,25.754,106.651,25.754,106.651z"/>
						<path fill="#75A8BC" d="M26.99,109.361c-1.536,0.022-2.078,1.508-3.1,1.313c0.52,0.727,1.986,0.928,3.262,1.066
							C26.315,111.374,26.16,110.632,26.99,109.361z"/>
						<path fill="#75A8BC" d="M29.064,112.04c-0.447-0.152-1.153-0.211-1.912-0.299C27.602,111.935,28.182,112.061,29.064,112.04z"
							/>
						<path fill="#75A8BC" d="M29.182,103.953c-0.422,0.196-1.543,0.657-1.865,1.405c0,0,0.486-0.25,0.971-0.499
							c0.487-0.245,0.975-0.489,0.975-0.489C29.237,104.242,29.21,104.098,29.182,103.953z"/>
						<path fill="#75A8BC" d="M29.324,104.336l-0.062,0.033c0.076,0.455,0.113,0.775,0.127,0.914
							C29.377,105.167,29.354,104.879,29.324,104.336z"/>
						<path fill="#75A8BC" d="M29.164,103.846c0.004,0.039,0.008,0.068,0.018,0.106C29.375,103.86,29.438,103.819,29.164,103.846z"
							/>
						<path fill="#75A8BC" d="M30.746,99.026c0.63,0.2,1.334,0.537,2.061,0.63c0.729,0.098,1.49-0.052,2.285-0.737
							c-0.758-0.066-1.363,0.093-2.02,0.211C32.42,99.247,31.701,99.324,30.746,99.026z"/>
						<path fill="#75A8BC" d="M31.622,102.697c0,0,0.05-0.288,0.1-0.575c0.066-0.286,0.13-0.573,0.13-0.573
							c-0.546,0.141-1.31,0.517-1.949,0.348c0,0,0.423,0.208,0.846,0.413C31.186,102.502,31.622,102.697,31.622,102.697z"/>
						<polygon fill="#75A8BC" points="32.415,103.034 31.622,102.697 31.549,103.126 						"/>
						<path fill="#75A8BC" d="M30.107,109.389c1.061,0.12,1.34,0.578,1.717,1.078c0.13-0.767,0.076-1.455-0.162-2.037
							C31.012,108.589,29.771,108.752,30.107,109.389z"/>
						<path fill="#75A8BC" d="M29.836,106.871c0.057,0.017,0.094,0.05,0.15,0.066C30.137,106.814,30.174,106.745,29.836,106.871z"/>
						<path fill="#75A8BC" d="M34.549,115.75c0.096-0.096,0.184-0.184,0.283-0.281c-0.11,0.057-0.209,0.109-0.328,0.172
							L34.549,115.75z"/>
						<path fill="#75A8BC" d="M31.997,108.186c0.227-0.594-0.356-0.674-1.069-0.715c0.322,0.27,0.58,0.58,0.734,0.959
							C31.957,108.359,32.146,108.293,31.997,108.186z"/>
						<path fill="#75A8BC" d="M30.713,113.211c0.283-0.436,0.482-0.859,0.672-1.29C30.872,112.437,30.172,113.37,30.713,113.211z"/>
						<path fill="#75A8BC" d="M29.481,107.284c-0.04-0.014-0.085-0.021-0.114-0.04C28.986,107.547,29.192,107.456,29.481,107.284z"
							/>
						<path fill="#75A8BC" d="M29.481,107.284c0.376,0.145,0.939,0.158,1.446,0.188c-0.256-0.222-0.563-0.408-0.941-0.534
							C29.863,107.042,29.666,107.173,29.481,107.284z"/>
						<path fill="#75A8BC" d="M46.951,109.723c-0.848,0.525-1.782,0.842-2.332,0.771c-0.553-0.064-0.733-0.504-0.027-1.39
							c-0.846,0.038-2.632,0.946-4.534,2.187c-1.904,1.236-3.909,2.832-5.226,4.178c0.754-0.423,1.451-0.812,2.981-0.549
							c0.36-0.445,0.603-1.266,1.016-1.979c0.411-0.716,0.993-1.32,1.968-1.437c1.509,0.521-0.08,1.222-0.633,2.328
							c0.898-0.896,1.865-1.029,2.969-1.284c1.103-0.242,2.309-0.592,3.728-1.729c0,0-0.397-0.012-0.796-0.022
							c-0.402-0.019-0.805-0.037-0.805-0.037C45.725,110.44,46.667,110.217,46.951,109.723z"/>
						<path fill="#75A8BC" d="M33.961,113.545l-0.43-0.289c-0.054,0.619-0.609,1.34-1.577,2.723c1.247,0.205,1.958-0.047,2.55-0.338
							c0,0-0.229-0.52-0.461-1.037c-0.117-0.256-0.215-0.525-0.291-0.725c-0.074-0.199-0.124-0.333-0.124-0.333L33.961,113.545z"/>
						<path fill="#75A8BC" d="M32.596,111.428c2.113-0.58,3.389-0.107,5.201-1.682c-0.341-0.49-0.83-0.49-1.387-0.402
							c-0.558,0.091-1.182,0.277-1.759,0.119c0.648,0.824,0.318,0.816-0.24,0.835c-0.559,0.021-1.358,0.04-1.599,1.011
							c-0.503-0.234-0.761-0.543-0.988-0.842c-0.083,0.467-0.226,0.951-0.439,1.454c0.037-0.039,0.064-0.068,0.102-0.104
							l-0.012-0.007c0.012-0.005,0.021-0.008,0.033-0.012c0.203-0.201,0.341-0.299,0.242-0.135c0.027-0.006,0.047,0.016,0.059,0.023
							c0.277-0.112,0.531-0.188,0.775-0.254c-0.121,0.753-0.469,0.334-0.775,0.254c-0.098,0.037-0.199,0.065-0.301,0.111
							c-0.011,0.007-0.017,0.013-0.021,0.019c0,0,0.118,0.099,0.314,0.235c0.193,0.137,0.449,0.318,0.707,0.5
							c0.513,0.352,1.023,0.703,1.023,0.703C33.588,112.708,33.271,112.237,32.596,111.428z"/>
						<path fill="#75A8BC" d="M39.829,98.991c-0.177,0.086-0.327,0.115-0.479,0.149C39.628,99.196,39.812,99.196,39.829,98.991z"/>
						<path fill="#75A8BC" d="M38.689,99.934c-0.318-0.057-1.182,0.019-1.045-0.434c0.564-0.477,1.014-0.199,1.705-0.36
							c-0.605-0.11-1.687-0.559-2.562,0.419l0.312,0.066c-0.295,0.422-1.051,1.011-1.769,1.507c-0.711,0.493-1.37,0.885-1.533,0.853
							C35.619,101.307,36.916,100.795,38.689,99.934z"/>
						<path fill="#75A8BC" d="M35.782,105.127c0,0,0.38,0.285,0.761,0.572c0.377,0.276,0.754,0.551,0.754,0.551
							s0.371-0.35,0.742-0.699c0.375-0.342,0.749-0.682,0.749-0.682l-1.04,0.418C37.878,104.328,36.636,104.955,35.782,105.127z"/>
						<path fill="#75A8BC" d="M33.74,116.487l-2.076,0.965c0,0,0.834-0.174,1.658-0.365c0.824-0.189,1.64-0.397,1.64-0.397
							L33.74,116.487z"/>
						<polygon fill="#75A8BC" points="35.268,118.35 33.58,119.391 34.933,119.244 						"/>
						<path fill="#75A8BC" d="M120.77,106.127l-0.367-0.493C120.496,105.821,120.623,105.979,120.77,106.127z"/>
						<path fill="#75A8BC" d="M119.684,107.626l0.777,0.587C120.07,107.837,119.762,107.588,119.684,107.626z"/>
						<path fill="#75A8BC" d="M80.688,143.288c0.4,1.911,0.824,4.85,1.014,2.63l0.061-2.179
							C81.252,144.069,80.924,143.786,80.688,143.288z"/>
						<path fill="#75A8BC" d="M111.123,127.907c-0.129-0.184-0.258-0.372-0.387-0.562c0.127,0.747,0.25,1.448,0.359,2.079
							C111.104,128.967,111.113,128.449,111.123,127.907z"/>
						<path fill="#75A8BC" d="M108.219,119.397c0,0,0.271,0.268,0.539,0.535c0.275,0.268,0.551,0.534,0.551,0.534
							C108.992,120.066,108.635,119.708,108.219,119.397z"/>
						<path fill="#75A8BC" d="M121.57,95.667c0,0-0.541-0.133-1.082-0.268c-0.543-0.127-1.084-0.256-1.084-0.256
							C119.367,95.596,120.496,95.516,121.57,95.667z"/>
						<path fill="#75A8BC" d="M52.795,133.374c0.095,1.061,0.361,1.598,0.689,1.9c-0.026-0.725,0.068-1.561,0.039-2.031
							C53.494,132.761,53.338,132.647,52.795,133.374z"/>
						<path fill="#75A8BC" d="M140.07,118.735c-0.166-0.477-0.477-0.815-0.895-1.057C139.326,118.142,139.58,118.516,140.07,118.735
							z"/>
						<path fill="#75A8BC" d="M55.068,136.127c0.004-0.246-0.039-0.395-0.051-0.61c-0.567,0.108-1.111,0.146-1.533-0.243
							C53.516,136.348,53.831,137.17,55.068,136.127z"/>
						<path fill="#75A8BC" d="M106.605,62.712c0.012-0.099,0.006-0.15,0.021-0.264C106.535,62.726,106.555,62.748,106.605,62.712z"
							/>
						<path fill="#75A8BC" d="M90.162,43.824c0.137-0.212,0.457-0.366,0.746-0.533C90.701,43.224,90.457,43.354,90.162,43.824z"/>
						<path fill="#75A8BC" d="M40.646,126.257C40.189,126.01,40.422,126.373,40.646,126.257L40.646,126.257z"/>
						<path fill="#75A8BC" d="M45.273,118.694c0.24-0.099,0.514-0.26,0.889-0.594C45.755,118.43,45.473,118.614,45.273,118.694z"/>
						<path fill="#75A8BC" d="M64.62,125.729c0.011,0.004,0.016,0.014,0.026,0.019C64.717,125.317,64.703,125.398,64.62,125.729z"/>
						<path fill="#75A8BC" d="M40.816,125.042c-0.061,0.315-0.065,0.621-0.01,0.895C40.854,125.746,40.863,125.462,40.816,125.042z"
							/>
						<path fill="#75A8BC" d="M40.154,125.831c-0.051-0.188-0.109-0.32-0.159-0.451C39.691,125.584,39.568,125.786,40.154,125.831z"
							/>
						<path fill="#75A8BC" d="M41.225,126.657c-0.227-0.174-0.346-0.432-0.418-0.721c-0.033,0.172-0.09,0.287-0.16,0.321
							C40.775,126.334,40.953,126.448,41.225,126.657z"/>
						<path fill="#75A8BC" d="M125.365,74.365c0.055-0.048,0.082-0.088,0.156-0.148C124.566,74.31,124.758,74.375,125.365,74.365z"
							/>
						<path fill="#75A8BC" d="M92.078,121.614c-0.014,0.022-0.021,0.078-0.037,0.105c0.016,0.024,0.033,0.055,0.047,0.076
							L92.078,121.614z"/>
						<path fill="#75A8BC" d="M93.156,119.993c-0.426,2.703-0.725,2.373-1.068,1.803c0,0,0.082,1.562,0.164,3.127
							c0.096,1.563,0.189,3.127,0.189,3.127s0.211-2.014,0.389-4.029C93.01,122.005,93.156,119.993,93.156,119.993z"/>
						<path fill="#4EA0C3" d="M121.979,101.824c0,0-0.51-0.007-1.018-0.013c-0.254-0.005-0.506-0.015-0.699-0.029
							c-0.191-0.013-0.318-0.021-0.318-0.021c-2.811-1.692-1.656-1.705-4.402-2.114c1.611,0.536,2.42,0.942,2.822,1.296
							c0.404,0.35,0.385,0.602,0.383,0.87c-0.004,0.134-0.006,0.269,0.041,0.416c0.037,0.142,0.125,0.298,0.311,0.483
							c0.371,0.37,1.131,0.865,2.67,1.577c0,0-0.363-0.056-0.729-0.11c-0.363-0.062-0.727-0.125-0.727-0.125
							c0.109-0.068-0.254-0.256-0.148-0.324c-1.615-0.349-0.568,0.255,0.717,1.085c0.639,0.409,1.338,0.866,1.789,1.259
							c0.453,0.393,0.66,0.727,0.305,0.851c-0.646,0.092-1.621-0.188-2.205-0.796c0,0,0.27,0.375,0.537,0.766
							c0.135,0.197,0.258,0.389,0.352,0.536c0.092,0.147,0.154,0.245,0.154,0.245c-0.244,0.139-1.211-0.54-0.979-0.663
							c0,0-0.049,0.329-0.096,0.659c-0.039,0.34-0.117,0.664-0.117,0.664l-0.16-0.121c0.783,0.738,1.879,2.047,2.314,2.652
							c-0.996-0.292-0.477-0.568-1.217-0.996c0,0,0.227,0.395,0.436,0.791c0.205,0.402,0.414,0.805,0.414,0.805
							c-0.793-0.414-1.422-1.02-1.803-1.531c-0.385-0.516-0.504-0.928-0.271-1.055c-2.916-1.732-2.641-1.43-2.154-0.772
							c0.242,0.323,0.535,0.724,0.525,0.958c-0.004,0.238-0.35,0.292-1.307-0.109c0,0-0.066-0.25-0.137-0.502
							c-0.068-0.248-0.141-0.492-0.141-0.492c-1.613-1.078-2.199-1.348-2.662-1.473c-0.227-0.064-0.424-0.094-0.697-0.184
							c-0.277-0.096-0.635-0.252-1.158-0.571c0.49,0.386,1.803,1.235,3.107,2.102c1.309,0.881,2.643,1.815,3.037,2.661
							c-0.52-0.17-0.879-0.162-0.168,1.08c-1.762-1.662-1.561-0.972-1.826-0.548l-2.215-2.306c0.314,0.973,1.459,2.141,2.211,3.414
							c-0.676,0.168-2.389-1.626-3.828-3.137c-0.453,0.062,0.275,0.739,1.104,1.523c0.82,0.777,1.762,1.665,1.51,2.258
							c-0.707-0.228-0.93,0-0.975,0.543c-0.051,0.538,0.127,1.431,0.23,2.513c-1.121-0.579-1.014-1.675-1.709-2.312
							c0,0,0.25,0.599,0.502,1.196c0.242,0.607,0.484,1.213,0.484,1.213c-0.145,0.023-0.533-0.659-0.732-1.002
							c0.088,0.537,0.51,1.217,0.895,1.901c0.387,0.688,0.732,1.374,0.623,1.948c0.832,1.553-0.211,0.687-1.24-0.131
							c-1.059-0.83-2.051-1.594-1.553,0.391c-0.621-0.705-0.799-1.791-1.432-2.859c0.062,1.433,0.018,1.991,0.055,2.633
							c0.023,0.635,0.135,1.357,0.328,3.209c0,0-0.434-0.376-0.859-0.767c-0.424-0.396-0.844-0.791-0.844-0.791
							c0.775,0.982,1.254,2.202,1.52,3.501c0.262,1.297,0.311,2.682,0.295,3.939c0.686,0.98,1.301,1.822,1.645,2.205
							c0,0-0.197,0.549-0.416,1.09c-0.227,0.539-0.451,1.078-0.451,1.078c-0.363-0.429-0.578-1.519-0.805-2.855
							c-0.006,0.281-0.012,0.561,0,0.814c-0.92-0.924-1.246-2.77-1.529-4.57c0.393,0.566,0.785,1.129,1.17,1.677
							c-0.346-1.937-0.863-4.063-1.611-5.778c0.059,0.373,0.029,0.734-0.072,0.961c-0.111-0.521-0.232-0.98-0.383-1.266
							c-0.16-0.299-0.025,0.404,0.062,1.24c0,0-0.377-0.812-0.756-1.623c-0.369-0.814-0.742-1.628-0.742-1.628l0.424,1.354
							c0,0-0.566-0.386-1.105-0.786c-0.555-0.411-1.082-0.828-1.082-0.828c0.035,1.886,0.133,4.15-0.01,6.225
							c-0.07,1.04-0.211,2.004-0.445,2.844c-0.234,0.836-0.564,1.551-1.025,2.014c-0.031-2.664-0.801-4.195-1.42-7.231
							c0.602,1.556,0.904,1.12,1.154,0.364c0.262-0.758,0.457-1.832,0.996-1.646c-0.568-0.196-0.836-1.655-0.859-2.186
							c0,0-0.049,0.208-0.121,0.52c-0.074,0.309-0.184,0.716-0.293,1.127c-0.225,0.822-0.479,1.653-0.479,1.653
							c-0.523-2.477-0.771-1.778-1.402-2.718c0.672,2.418,0.535,3.298,0.156,3.786c-0.379,0.484-0.979,0.54-1.219,1.364
							c-0.309-1.652-0.418-3.377,0.477-3.117c-0.793-1.779-0.809-0.285-0.873,1.291c-0.051,1.58-0.158,3.21-0.861,1.692
							c0.209-0.07,0.365,0.169,0.328-0.688c-0.143,0.772-0.576,0.911-0.945,0.667c-0.375-0.246-0.682-0.889-0.621-1.629l0.205-0.055
							c-0.365-0.113-0.811-0.145-1.271-0.061c-0.461,0.083-0.947,0.252-1.391,0.585c-0.883,0.655-1.645,1.868-1.715,4.005
							c-0.023-0.547,0.066-5.133,0.115-5.996c0,0-0.131,0.9-0.33,2.251c-0.209,1.347-0.51,3.133-0.854,4.925
							c-0.34,1.79-0.723,3.586-1.025,4.924c-0.312,1.332-0.523,2.222-0.523,2.222c0.176-1.823,0.043-4.916,0.072-7.806
							c0.02-2.892,0.18-5.578,0.75-6.598c-0.322-0.525-0.686-1.148-1.416,0.125c0.189,0.524,0.404,5.295,0.061,5.62
							c-0.389-2.043-0.508-2.595-0.67-3.075c-0.158-0.48-0.354-0.887-0.777-2.647c0.299,0.801-0.432,6.501-1.043,6.274
							c0.154-0.847,0.365-5.645,0.613-6.221c0,0-0.451,1.371-0.926,2.742c-0.471,1.371-0.971,2.74-0.971,2.74
							c0.461-0.979,0.467-4.745,0.303-6.354c0.045,1.106-1.203-0.193-1.609,0.301l0.445,1.367c-0.736-0.518-1.342,1.4-2.006,3.381
							c-0.654,1.975-1.369,4.05-2.209,3.757c0.389-1.114,1.496-7.002,0.824-7.825c-0.396,1.395-1.328,4.755-2.48,7.995
							c-1.145,3.253-2.52,6.337-3.58,7.257l0.004-1.678c0,0-0.412,0.396-0.824,0.793c-0.418,0.392-0.838,0.785-0.838,0.785
							c0.869-2.028,2.311-5.178,3.656-8.238c0.641-1.465,1.297-2.969,1.912-4.377c0.584-1.347,1.092-2.518,1.482-3.354
							c-0.357-1.379,0.16-1.936-0.701-1.93c-0.006-0.789,0.211-1.34,0.455-1.706c0.248-0.37,0.525-0.552,0.65-0.577
							c0,0-0.105-0.08-0.266-0.199c-0.16-0.116-0.371-0.281-0.574-0.453c-0.408-0.336-0.816-0.672-0.816-0.672
							c-0.568,3.321-2.121,3.021-2.668,5.75c0,0,0.182-0.18,0.453-0.449c0.268-0.281,0.627-0.653,0.982-1.025
							c0.709-0.748,1.385-1.502,1.385-1.502c-0.27,1.656-1.012,3.939-1.912,5.691c-0.447,0.876-0.934,1.619-1.398,2.087
							c-0.463,0.466-0.9,0.636-1.25,0.401c-0.041-0.697,0.379-2.135,0.824-3.539c0.447-1.404,0.916-2.775,1.027-3.324
							c-0.428,1.087-1.834,1.834-1.762,1.007l1.02-1.604c-0.223-0.707-0.803,0.314-1.354,1.061c-0.547,0.751-1.082,1.252-1.1-0.42
							c-0.271-0.301,0.314-4.407-0.307-2.516c-0.646,3.803-3.807,15.244-5.078,17.879c-0.033-0.14-0.296-1.18-0.5-2.432
							c-0.206-1.246-0.35-2.69-0.252-3.655c0.188-1.521,1.002-3.14,1.777-4.717c0.779-1.575,1.52-3.108,1.707-4.405
							c-0.308,0.865-0.961,1.844-1.204,2.146c-0.081-0.854,1.057-2.637,0.216-2.494c-1.264,3.167-1.352-0.816-1.312,2.585
							c-1.06,0.643-0.519-0.944-1.401-1.115c-0.273,1.07-1.152,2.755-2.129,4.202c-0.978,1.452-2.072,2.689-2.673,2.961
							c0.392-0.776,0.663-1.887,0.787-2.395c-0.738-0.467-1.126-1.199-1.513-1.855c-0.387-0.66-0.758-1.273-1.424-1.668
							c0.258-0.799,0.109-2.018,1.088-3.156c-0.473,0.43-1.211,1.344-1.662,1.193c0.36-1.506,0.635-1.463,0.969-1.497
							c0.337-0.032,0.719-0.124,1.311-1.817c-1.027,1.718-2.331,1.801-3.547,2.507c-0.723,1.352-0.457,1.685,0.125,1.585
							c0.58-0.092,1.482-0.662,2.069-1.047c-1.024,1.844-2.331,3.596-3.743,4.957c-1.398,1.344-2.907,2.291-4.246,2.613
							c-1.854,0.049,0.951-2.641,0.398-2.279c-0.915-1.082-2.465,0.115-3.838,1.016c-1.361,0.915-2.58,1.578-2.625-0.385
							c0.455-1.351,1.317-2.393,2.164-3.301c0.852-0.907,1.697-1.695,2.238-2.509c0.762-0.05,0.83,0.538,0.812,1.206
							c-0.021,0.666-0.131,1.408,0.217,1.605c0,0-0.004-0.403-0.007-0.807c0.003-0.398,0.005-0.798,0.005-0.798
							c0.832-0.489,1.799-0.591,1.687,0.26c0.394-1.169-0.354-1.911-1.253-2.715c-0.446-0.402-0.89-0.87-1.241-1.386
							c-0.171-0.264-0.321-0.537-0.411-0.846c-0.087-0.312-0.127-0.648-0.1-1.012c-0.854,0.427-1.943,0.67-2.502,1.636l0.713,0.168
							c-0.542,0.985-1.27,1.323-1.898,1.558c-0.623,0.236-1.141,0.377-1.184,1.042c-0.859,0.218-1.93,0.575-2.771,0.591
							c-0.845,0.021-1.497-0.259-1.504-1.178l2.145-2.205c-0.666,0.602-0.788,1.854,0.154,1.5c-0.688,0.254-0.267-0.825-0.065-1.654
							c0.198-0.838,0.204-1.457-1.55-0.425c0,0-0.264,0.521-0.526,1.04c-0.257,0.528-0.513,1.057-0.513,1.057
							c-0.898,0.114-2.184,0.43-3.271,0.488c-0.541,0.029-1.033-0.004-1.394-0.146c-0.351-0.153-0.565-0.422-0.563-0.839
							c-1.051,1.138-0.93,1.159-0.84,1.245c0.096,0.088,0.137,0.255-0.957,1.717c1.49-1.668,2-0.945,2.492-0.302
							c0.5,0.651,0.969,1.211,2.328-0.79c-1.283,1.697-1.316,2.314-1.27,2.896c0.049,0.592,0.173,1.151-0.643,2.855
							c0.707-0.726,1.086-1.673,1.521-0.469c0.25-0.169,0.606-0.345,0.819-0.445c0.006,0.045,0.002,0.064,0.002,0.107
							c0.01-0.043,0.029-0.086,0.04-0.129c0.143-0.07,0.169-0.089,0.013-0.045c0.119-0.495,0.359-1.031,0.707-1.483
							c2.05-1.193,3.203,0,4.422-0.486c0.117,0.781-0.977,0.669-1.467,1.696c0,0,0.459-0.176,0.92-0.367
							c0.459-0.197,0.918-0.393,0.918-0.393c-0.721,0.861-1.025,1.832-1.387,2.6c-0.365,0.764-0.793,1.32-1.83,1.292l1.019,1.012
							c-0.185,1.53,0.466,2.647,1.61,2.335c0.256,0.811,2.823-0.972,1.32,0.096c0,0,0.162,0.013,0.405,0.031
							c0.244,0.011,0.569,0.024,0.895,0.036c0.643,0.021,1.286,0.04,1.286,0.04l-0.299,0.475c0.801,0.744,2.234,0.521,3.406,0.699
							c1.177,0.203,2.121,0.699,2.223,3.067c0.887-0.149,1.83-0.475,2.592,0.605l-0.629,1.854c0.556-0.111,0.966,0.636,1.408,1.163
							c0.439,0.533,0.898,0.893,1.471,0.037c-0.283,1.3-0.186,2.129,0.137,2.664c0.322,0.523,0.869,0.732,1.477,0.83
							c0.607,0.093,1.278,0.064,1.869,0.102c0.59,0.018,1.102,0.1,1.41,0.445l0.854-2.391c0.484,0.235,1.028,0.26,1.639,0.154
							c0.61-0.111,1.291-0.381,2.049-0.692l0.537-2.179c0.77-0.743,1.312-0.16,1.912,0.607c0.595,0.76,1.248,1.741,2.115,1.828
							c-0.301,0.811-0.685,0.488-0.867-0.087c0.212,1.347,0.656,1.882,1.197,1.937c0.543,0.058,1.18-0.328,1.807-0.762
							c0.629-0.438,1.246-0.907,1.775-1.041c0.535-0.14,0.98,0.078,1.293,1.062c0.584-0.733,0.861-0.407,1.102,0.202
							c-0.043-0.002-0.088,0.033-0.131,0.097c0.043,0.034,0.113,0.05,0.184,0.058c0.146,0.41,0.293,0.895,0.471,1.277
							c-0.119-0.561-0.238-1.041-0.369-1.269c0.359,0.017,0.934-0.202,1.523-0.695l-0.08,2.415c0.049-0.025,0.082-0.016,0.133-0.053
							c0.416,0.947,0.551-1.081,0.5-2.912c0.307-0.361,0.6-0.807,0.848-1.361c-0.02,1.955,0.361,1.672,0.746,1.422
							c0.389-0.253,0.773-0.492,0.857,1.599c0.539-1.985,2.705-1.29,3.258-5.529c-0.02,0.554,0.113,0.825-0.16,0.843
							c0.525,0.52,1.076,1.035,1.635-0.133l0.109,3.07c0,0,0.369-1.018,0.715-2.038c0.35-1.021,0.678-2.041,0.678-2.041
							c0.695,1.886,1.047,2.979,0.217,5.315c0.986-1.79,1.346-2.151,1.691-2.484c0.334-0.344,0.652-0.661,1.367-2.49l-0.018,1.981
							c0.574-0.098,1.322-2.773,1.734-1.161c0.359,0.918,0.941,1.383,1.662,1.612c0.721,0.231,1.578,0.185,2.496,0.142
							c1.848-0.141,3.887-0.389,5.916,0.949c-0.922-2.787-0.412-2.226,0.236-1.525c0.65,0.693,1.471,1.497,1-0.712
							c0.51,1.293,1.178,1.934,0.912,3.232c0.709-0.862,1.484-0.515,2.141-0.451c0.646,0.068,1.17-0.147,1.182-2.16
							c0.613,1.258,0.236,2.048,0.652,2.774c0.059-0.332,0.193-1.322,0.627-0.597c0.434,0.722,0.102,1.184-0.004,1.849
							c1.793-0.812,0.541-4.91-0.682-8.703c1.436,1.487,1.807,1.08,1.402-1.586c0.744,1.104,1.746,2.171,0.91,3.016
							c0.314-0.029,1.371,0.078,2.201-0.23c0.824-0.312,1.41-0.98,0.742-2.437c0.52,0.646,0.863-0.166,0.836-0.563
							c1.293-0.426,1.531-0.266,2.555-1.165l-0.582-0.276c-0.723-1.803-0.611-2.109-0.223-2.104
							c0.385,0.013,1.057,0.346,1.379-0.124l0.184,0.352c1.766,0.526,1.82,0.068,1.873-0.301c0.025-0.189,0.059-0.367,0.322-0.42
							c0.262-0.061,0.746,0.005,1.717,0.277l-1.529-1.852c-1.439-2.154-0.594-1.796,0.627-1.301c1.215,0.51,2.891,1.18,2.773-0.049
							c0,0-0.318-0.175-0.639-0.352c-0.314-0.18-0.631-0.357-0.631-0.357c-0.295-0.916,1.227,0.086,3.031,1.234
							c1.791,1.154,3.854,2.424,4.408,2.344c0.451,0.186,0.281,0.73,0.309,1.162c1.922,0.264,1.439-0.367,0.543-1.25
							c-0.895-0.889-2.148-2.06-1.852-2.908c1.443,0.943,2.811,3.305,3.873,2.637c0.355,0.124,0.438-0.213,0.402-0.763
							c-0.043-0.558-0.209-1.331-0.322-2.073c-0.213-1.482-0.311-2.867,1.477-2.518c-1.266-0.499-2.486-1.051-2.816-2.231
							c0.152-0.591,1.588-0.505,2.693-0.728c1.084-0.221,1.791-0.764,0.311-2.275c0.383,0.059,0.709,0.185,0.99,0.344
							c-0.227-0.666-0.252-1.525-0.445-2.391c-0.189-0.867-0.588-1.756-1.477-2.467c1.939,0.741,2.863,0.68,3.205,0.222
							c0.344-0.458,0.129-1.283-0.129-2.061c-0.564-1.577-1.295-2.952,2.309-1.72c0,0,0.111-0.676,0.223-1.352
							c0.057-0.336,0.105-0.67,0.133-0.924c0.029-0.252,0.051-0.42,0.051-0.42l0.73,0.279c0.967-1.551-0.709-2.6-2.367-3.539
							c0.592-0.254,1.229,0.162,1.611,0.281c1.02-1.029,1.418-1.668,1.18-2.343c-0.264-0.675-1.199-1.419-2.953-2.612l2.482,0.096
							c-0.693-0.356,0.385-1.094,1.256-2.148c0.428-0.525,0.826-1.127,0.926-1.758c0.09-0.628-0.1-1.283-0.809-1.89
							c0.281,0.026,0.76,0.081,1.104,0.279c-0.707-0.696-0.662-1.422-0.299-2.185c0.355-0.76,0.973-1.55,1.418-2.303
							c0.854-1.493,0.926-2.818-3.629-2.776c0,0-0.604-0.356-1.207-0.714c-0.598-0.35-1.213-0.68-1.213-0.68
							c-0.197,1.113-1.195,1.146-2.287,1.06c-1.098-0.091-2.309-0.28-3.004,0.218c-0.305-0.342,0.281-0.919,1.037-1.33
							c0.75-0.408,1.652-0.637,1.961-0.18l-0.424,0.221c2.355-0.165,2.666-0.881,2.781-1.624c0.098-0.739-0.008-1.486,1.568-1.775
							c-0.553-2.119-0.494-4.35-0.555-6.617c-0.055-2.258-0.158-4.571-0.963-6.581c0,0-0.785,0.483-1.574,0.965
							c-0.789,0.477-1.58,0.952-1.58,0.952s-0.092-0.345-0.186-0.689c-0.088-0.347-0.203-0.686-0.203-0.686
							c0.613-0.695,2.371-1.69,2.688-0.661c0.828-0.684,0.232-0.917-0.645-0.914c-0.879,0-2.043,0.239-2.406,0.402
							c0.229-1.223,1.24-1.545,2.223-1.605c0.965-0.057,1.863,0.155,1.76-0.161c0,0-0.158-0.171-0.316-0.342
							c-0.156-0.171-0.322-0.336-0.322-0.336l-0.289,0.371c-1.666,0.042-3.094,0.732-3.512-0.445
							c0.254-1.042,1.768-1.456,1.732-1.803c0.227-0.125,0.277-0.282-0.156-0.482c0,0-0.172-0.452-0.344-0.905
							c-0.18-0.451-0.375-0.897-0.375-0.897s-0.512,0.542-1.023,1.083c-0.52,0.533-1.037,1.066-1.037,1.066
							c-1.646,0.057-0.773-1.512-3.109,0.92c1.838-1.833,1.273-3.536,0.305-4.87c-0.957-1.35-2.316-2.283-1.955-3.092
							c-2.359,0.51-3.012-0.297-3.801-1.448c-0.188,0.669-2.395,3.058-2.865,2.003c2.506-2.236,2.639-3.123,2.441-3.982
							c-0.098-0.429-0.27-0.848-0.266-1.427c-0.006-0.57,0.164-1.305,0.756-2.386c-0.701,1.506-1.508,1.066-2.359,0.825
							c-0.877-0.229-1.768-0.249-2.646,1.947c-0.209-0.511,0.158-1.018,0.635-1.605c0.473-0.59,1.059-1.257,1.223-2.129
							c-0.221,0.033-0.426,0.044-0.619,0.035c-0.201-0.007-0.393-0.034-0.568-0.078c-0.355-0.089-0.666-0.247-0.951-0.458
							c-0.281-0.211-0.535-0.474-0.777-0.774c-0.256-0.291-0.51-0.61-0.762-0.949c-0.508-0.673-1.002-1.425-1.678-2.014
							c-0.662-0.593-1.383-1.108-2.326-1.237c-0.383,0.793-0.412,2.236-1.576,3.172c0,0,0.035-1.176,0.002-2.374
							c-0.012-0.598-0.041-1.201-0.068-1.655c-0.029-0.45-0.061-0.746-0.061-0.746c-0.43,0.086-0.996,1.237-1.475,1.959
							c-0.49,0.721-0.857,1.021-1.041-0.634c-0.025,0.767-0.105,1.911-0.6,2.051c-0.311-0.389-0.672-0.679-1.041-0.953
							c-0.369-0.271-0.76-0.5-1.162-0.693c-0.811-0.374-1.691-0.546-2.564-0.658c-0.883-0.072-1.783-0.017-2.666,0.059
							c-0.881,0.139-1.756,0.294-2.613,0.468c-0.844,0.214-1.697,0.372-2.533,0.523c-0.418,0.081-0.838,0.144-1.264,0.182
							c-0.426,0.04-0.867,0.043-1.295,0.059c-0.434,0.005-0.879-0.019-1.346-0.079c-0.465-0.061-0.955-0.16-1.438-0.268
							c-0.492-0.118-1.008-0.273-1.555-0.475c-0.549-0.2-1.137-0.451-1.729-0.724c1.525,1.175,1.02,1.592,0.432,1.936
							c0.568,0.186,0.883,1.986,1.455,3.036c0,0-0.912-0.49-1.883-0.946c-0.486-0.232-0.973-0.446-1.332-0.599
							c-0.365-0.153-0.609-0.255-0.609-0.255c0.566,1.577-0.004,1.954-0.568,2.314c-0.541,0.374-1.064,0.734-0.322,2.134
							l0.355-0.898c0.537,1.868,1.959,3.425,3.432,5.105c1.488,1.672,3.027,3.513,4.15,5.624c-0.348-1.019-0.197-1.26,0.17-1.125
							c0.182,0.066,0.42,0.228,0.68,0.43c0.258,0.208,0.539,0.468,0.811,0.711c0.545,0.487,1.045,0.929,1.32,0.871
							c0.281-0.074,0.33-0.578,0.059-2.109c0.59,0.82,0.357,1.515,0.893,2.5c-0.252-1.002-0.32-1.641-0.213-1.951
							c0.057-0.153,0.154-0.233,0.295-0.218c0.141,0.02,0.32,0.119,0.539,0.294l0.088,0.505c0.742-0.515,1.434-0.239,2.088,0.235
							c0.324,0.274,0.645,0.602,0.965,0.925c0.32,0.339,0.633,0.735,0.959,1.036c0,0-0.027-0.589-0.057-1.18
							c-0.035-0.591-0.072-1.181-0.072-1.181c0.357,0.297,0.406,1.078,0.523,1.668c0.26-1.787,0.037-1.846-0.227-1.959
							c-0.127-0.065-0.258-0.109-0.34-0.4c-0.08-0.29-0.121-0.821-0.027-1.816c0.162,1.185,0.389,1.808,0.641,2.143
							c0.254,0.34,0.553,0.342,0.842,0.458c0.291,0.102,0.58,0.182,0.734,0.629c0.152,0.451,0.164,1.201-0.092,2.547
							c0.195,0.055,0.34-0.617,0.473-1.287c0.135-0.672,0.254-1.345,0.516-1.278c0,0-0.062,0.369-0.125,0.737
							c-0.066,0.368-0.135,0.736-0.135,0.736s0.16-0.449,0.322-0.897c0.164-0.447,0.33-0.895,0.33-0.895
							c0.285,0.424-0.146,2.225-0.553,3.415c-0.018-0.161-0.293,0.279-0.387,0.361c-0.102,0.893,0.137,0.773,0.455,0.609
							c0.311-0.188,0.684-0.52,0.629-0.237c0,0-0.01-0.248-0.021-0.497c-0.018-0.255-0.037-0.509-0.037-0.509
							c0.217-0.097,0.424-0.146,0.623-0.161c0.201-0.021,0.398,0.053,0.588,0.108c0.191,0.063,0.377,0.143,0.564,0.223
							c0.186,0.108,0.375,0.223,0.572,0.32c0.195,0.104,0.398,0.174,0.617,0.255c0.221,0.088,0.459,0.15,0.723,0.174
							c0.264,0.027,0.553-0.002,0.889-0.045c0.34-0.035,0.715-0.119,1.141-0.264l0.574-0.971c1.256-0.342,1.312,0.126,1.27,0.678
							c-0.039,0.562-0.164,1.195,0.766,1.43l-0.229,0.151c1.002-0.58,1.756-0.667,1.992-0.224c-0.619,0.302-0.924,0.902-1.264,1.489
							c-0.34,0.589-0.719,1.161-1.418,1.48c1.342-0.224,1.805-0.348,2.393-0.707c0.594-0.35,1.303-0.936,3.268-1.855l-1.221,1.415
							c1.531-0.785,2.229-1.32,3.213-0.881c-0.871,0.193-1.32,0.761-1.838,1.344c-0.516,0.587-1.104,1.186-2.172,1.545
							c-0.502,0.97-0.49,1.417-0.209,1.622c0.275,0.205,0.824,0.163,1.299,0.154c0.941-0.022,1.668,0.055-0.586,2.011
							c4.76-2.122,1.479-2.888,2.648-3.116c0.57-0.65,1.453-1.061,2.199-1.183c0.744-0.123,1.363,0.029,1.318,0.445
							c0.123,0.309-1.107,1.435-2.281,2.597c-1.164,1.164-2.314,2.37-1.924,2.944c-0.047-0.134-0.391,0.05-0.439-0.079
							c-0.441,0.551,0.078,0.539,0.502,0.619c0.426,0.074,0.775,0.228-0.021,0.999c1.463-0.554,1.533-0.342,1.662-0.204
							c0.135,0.138,0.35,0.195,2.154-0.618c0,0-0.354-0.218-0.715-0.423c-0.363-0.197-0.729-0.396-0.729-0.396
							c0.637,0.1,2.086-0.215,3.188-0.227c1.098-0.02,1.914,0.239,1.156,1.341c-0.775,0.223-1.887,0.282-2.539,0.293
							c-0.891,0.823,1.006,0.359,0.072,1.207c-1.844,0.734-2.193,0.453-2.482,0.053c-0.303-0.391-0.529-0.93-2.049-0.588
							c-0.658,0.538,0.125,0.539,0.598,0.612c0.469,0.075,0.602,0.205-1.422,0.948c1.291-0.463,1.939-0.59,2.246-0.543
							c0.301,0.051,0.26,0.275,0.186,0.523c-0.146,0.503-0.426,1.061,1.674,0.742l-2.227,0.826c0.4-0.006,1.557-0.125,1.605,0.161
							c0,0-0.766,0.16-1.529,0.321c-0.76,0.169-1.52,0.338-1.52,0.338c1.35-0.143,0.965,0.403,0.387,0.974
							c-0.566,0.573-1.287,1.157-0.496,1.246c-0.271-0.648,0.377-0.966,1.271-1.258c0.893-0.296,2.041-0.547,2.746-1.155
							c0.91,0.197,1.029,0.508,0.713,0.857c-0.324,0.354-1.08,0.754-1.898,1.168c-1.641,0.839-3.502,1.696-2.717,2.466
							c-0.389-0.15,1.115-1.352,2.281-1.246c-0.371,0.516-1.117,1.243-2.266,1.763c0.389,0.558,0.969,0.379,1.648,0.065
							c0.68-0.312,1.449-0.77,2.223-0.65c-1.352,0.574-1.029,0.658-0.232,0.673c0.789,0.013,2.07-0.05,2.582,0.177l-2.361,0.498
							c-0.609,0.93,0.646,0.793,1.861,0.666c1.213-0.133,2.396-0.258,1.588,0.667c0,0-0.85-0.024-1.699-0.05
							c-0.848-0.01-1.697-0.021-1.697-0.021l0.971,0.604l-2.736,0.276c2.143,0.454,1.648,0.825,0.973,1.667
							c1.66-0.372,4.383-0.389,4.514,0.379c-1.385,0.631-2.309-0.078-1.877,0.921c-1.525-0.136-3.436-0.192-1.254-0.819
							c-0.789,0.028-1.527-0.072-2.303-0.036c-0.801,0.324-0.871,0.62-0.734,0.892c0.143,0.271,0.486,0.514,0.498,0.68
							c0.084-0.134,0.211-0.296,0.545-0.398c0,0,0.215,0.072,0.533,0.18c0.32,0.114,0.744,0.266,1.17,0.418
							c0.85,0.313,1.707,0.662,1.707,0.662c-0.904,0.258-1.629,0.09-2.355-0.059c0.279,0.271,1.377,0.445,1.594,0.879
							c-1.963-0.093-3.988-0.061-4.914-0.569c0,0,0.545,0.285,1.09,0.592c0.275,0.157,0.549,0.312,0.754,0.431
							c0.205,0.121,0.342,0.201,0.342,0.201c-0.857,0.086-2.363,0.586-3.08,0.408c-0.584,0.303,0.363,0.717,1.229,1.206
							c0.438,0.245,0.863,0.507,1.08,0.757c0.209,0.25,0.207,0.486-0.197,0.67c0.377,0.086,0.729,0.221,0.986,0.449
							c-0.264,0.409-1.045,0.701-1.412,1.055c-0.379,0.355-0.396,0.748,0.838,1.513c0,0-0.893-0.04-1.781-0.1
							c-0.891-0.058-1.775-0.135-1.775-0.135c0.312,0.422,1.426,0.522,2.598,0.665c1.17,0.148,2.396,0.336,2.889,1.176
							c0.832,1.232-2.994-0.413-4.023-0.365c0.795,0.431,2.027,1.105,2.635,1.68c0.309,0.286,0.475,0.553,0.377,0.739
							c-0.051,0.093-0.164,0.166-0.359,0.212c-0.197,0.039-0.475,0.048-0.848,0.021
							C121.594,102.191,122.146,102.154,121.979,101.824z M118.791,110.511c-0.254-0.483-1.225-1.749-0.047-0.935
							C120.729,111.505,119.588,110.803,118.791,110.511z M107.746,124.184c-0.08-0.811,0.297-0.519,0.898,0.231
							C108.492,124.681,108.215,124.687,107.746,124.184z M45.906,128.35c0.037-0.021,0.062-0.038,0.102-0.068
							C46.025,129.485,46.043,129.028,45.906,128.35z M45.369,126.518c-0.34,0.152-0.552,0.412-0.721,0.711
							c0.484-0.389,0.778-0.189,0.977,0.205C45.943,126.875,46.074,126.414,45.369,126.518z M137.902,63.289l-0.4,0.564
							C136.57,63.63,137.205,63.477,137.902,63.289z"/>
						<path fill="#75A8BC" d="M108.559,120.383c0.207,0.355,0.389,0.768,0.566,1.184
							C109.061,121.157,108.887,120.721,108.559,120.383z"/>
						<path fill="#75A8BC" d="M121.969,95.768c0.021-0.008,0.016-0.018,0.029-0.025c-0.139-0.032-0.285-0.056-0.428-0.076
							L121.969,95.768z"/>
						<path fill="#75A8BC" d="M72.332,118.527c0.094,0.396,0.07,0.853,0.004,1.312C72.535,119.282,72.597,118.777,72.332,118.527z"
							/>
						<path fill="#75A8BC" d="M36.292,123.103c0,0,0.298,0.118,0.595,0.235c0.149,0.059,0.297,0.116,0.408,0.16
							c0.113,0.039,0.189,0.064,0.189,0.064c-0.441-0.328-0.154-0.828-0.028-1.277C37.036,122.665,36.544,123.352,36.292,123.103z"
							/>
						<path fill="#75A8BC" d="M43.98,107.876c-0.314,0.034-0.141-0.204-0.461-0.168l-0.98,0.544
							C42.845,108.685,43.797,108.561,43.98,107.876z"/>
						<path fill="#75A8BC" d="M41.932,117.322c1.55-1.323,0.641-1.321-0.045-1.63c0.027,0.027,0.062,0.047,0.066,0.094
							c-1.195,0.765-1.509,1.16-1.357,1.356C40.746,117.336,41.344,117.334,41.932,117.322z"/>
						<path fill="#75A8BC" d="M41.743,115.607c-0.192-0.107-0.356-0.247-0.39-0.465C40.382,115.738,41.305,115.485,41.743,115.607z"
							/>
						<path fill="#75A8BC" d="M42.957,126.176c0.108-0.621-1.935,1.74-1.514,0.998c-1.035,0.796-0.055,0.655,0.864,0.242
							c0.462-0.208,0.914-0.491,1.103-0.729C43.6,126.45,43.527,126.26,42.957,126.176z"/>
						<polygon fill="#75A8BC" points="46.896,112.823 45.045,114.519 46.838,113.528 						"/>
						<path fill="#75A8BC" d="M48.489,117.458c0,0-0.048-0.281-0.076-0.577c-0.03-0.291-0.061-0.583-0.061-0.583
							c-0.298,0.299-0.558,0.379-0.796,0.396C47.883,117.183,47.968,118.001,48.489,117.458z"/>
						<path fill="#75A8BC" d="M47.557,116.694c-0.169-0.257-0.4-0.432-0.822-0.285C46.865,116.513,47.168,116.723,47.557,116.694z"
							/>
						<path fill="#75A8BC" d="M48.244,113.303l-0.238,0.537c0,0,0.062,0.153,0.127,0.306c0.064,0.153,0.141,0.296,0.141,0.296
							s-0.025-0.276-0.023-0.568C48.248,113.588,48.244,113.303,48.244,113.303z"/>
						<path fill="#75A8BC" d="M56.045,124.172l1.25-0.076c0.535-0.682,0.581-1.27,0.086-1.17
							C56.861,123.309,56.361,123.391,56.045,124.172z"/>
						<path fill="#75A8BC" d="M57.547,116.881c-0.12,0.566-0.436,1.029-0.801,1.775l1.836-2.504c0,0-0.259,0.184-0.518,0.37
							C57.806,116.703,57.547,116.881,57.547,116.881z"/>
						<path fill="#75A8BC" d="M60.059,117.734c0.555-0.671,2.367-1.456,1.364-1.837C60.892,116.586,59.783,116.702,60.059,117.734z"
							/>
						<polygon fill="#75A8BC" points="70.978,127.046 70.734,127.008 69.215,131.871 						"/>
						<path fill="#75A8BC" d="M84.969,117.648c-0.793-1.329-0.646,3.099-1.318,1.466c-0.199,0.575-0.066,0.913,0.076,1.229
							c0.143,0.31,0.293,0.6,0.102,1.1C84.607,120.256,84.82,121.005,84.969,117.648z"/>
						<path fill="#75A8BC" d="M83.828,121.442c-0.125,0.187-0.264,0.419-0.42,0.729C83.631,121.881,83.748,121.645,83.828,121.442z"
							/>
						<path fill="#75A8BC" d="M85.623,43.15c0,0-0.352-0.094-0.701-0.188c-0.355-0.091-0.709-0.181-0.709-0.181
							s0.363,0.276,0.727,0.553c0.359,0.28,0.719,0.561,0.719,0.561L85.623,43.15z"/>
						<path fill="#75A8BC" d="M86.057,47.342l-1.965-2.597c0,0,0.283,0.691,0.564,1.383c0.289,0.687,0.58,1.373,0.58,1.373
							C85.33,47.271,85.523,46.813,86.057,47.342z"/>
						<path fill="#75A8BC" d="M113.178,106.952l0.533,0.57c0.646,0.557,0.752,0.525,0.98,0.477c0,0-0.381-0.26-0.762-0.518
							C113.555,107.215,113.178,106.952,113.178,106.952z"/>
						<path fill="#75A8BC" d="M118.262,104.114l-0.105,0.051c0,0,0.67,0.305,1.34,0.608c0.674,0.296,1.346,0.593,1.346,0.593
							L118.262,104.114z"/>
						<path fill="#75A8BC" d="M116.381,98.559c-0.17,0.144,0.402,0.524,0.234,0.675C116.205,98.719,119.939,99.418,116.381,98.559z"
							/>
					</g>
				</g>
			</g>
		</g>
	</g>
</g>
<g>
	<path fill="#FFFFFF" d="M14.473,82.934l-1.424-2.242c-0.213-0.34-0.406-0.478-0.607-0.488c-0.223-0.013-0.395,0.148-0.412,0.446
		c-0.016,0.297,0.154,0.583,0.59,1.04l-1.037,1.089c-0.709-0.643-1.076-1.274-1.016-2.359c0.067-1.189,0.828-2.003,1.816-1.948
		l0.016,0c0.795,0.045,1.202,0.492,1.567,1.139l0.543,0.961l0.113-2.028l1.36,0.077l-0.246,4.384L14.473,82.934z"/>
	<path fill="#FFFFFF" d="M14.551,78.476l-0.016,0c-0.629-0.076-0.968-0.493-1.129-1.082c-0.248,0.367-0.646,0.687-1.215,0.617
		l-0.015-0.001c-0.851-0.104-1.345-1.026-1.197-2.252c0.149-1.227,0.851-2.005,1.7-1.901l0.016,0.002
		c0.568,0.069,0.879,0.475,1.031,0.891c0.277-0.499,0.697-0.861,1.355-0.781l0.014,0c0.901,0.111,1.412,1.102,1.25,2.44
		C16.184,77.745,15.443,78.585,14.551,78.476z M12.723,75.421l-0.014-0.001c-0.26-0.033-0.515,0.154-0.554,0.48
		c-0.039,0.325,0.163,0.567,0.423,0.599l0.014,0.001c0.289,0.034,0.529-0.161,0.568-0.479
		C13.198,75.704,13.012,75.456,12.723,75.421z M14.703,75.602l-0.015-0.003c-0.281-0.034-0.532,0.176-0.575,0.538
		c-0.043,0.362,0.148,0.626,0.43,0.66l0.015,0.001c0.259,0.033,0.542-0.136,0.591-0.535C15.195,75.862,14.954,75.631,14.703,75.602z
		"/>
	<path fill="#FFFFFF" d="M13.594,72.942c0.27,0.045,0.394-0.089,0.431-0.312c0.019-0.111,0.013-0.209-0.024-0.333l0.283,0.046
		c0.041,0.126,0.055,0.256,0.028,0.415c-0.06,0.355-0.28,0.597-0.729,0.521l-1.336-0.222l-0.053,0.308l-0.291-0.048l0.051-0.309
		l-0.668-0.11l0.055-0.331l0.668,0.111l0.118-0.703l0.29,0.048l-0.115,0.704L13.594,72.942z"/>
	<path fill="#FFFFFF" d="M14.5,71.473L14.436,71.8l-3.105-0.616l0.064-0.328l1.289,0.257c-0.209-0.192-0.355-0.46-0.279-0.838
		c0.104-0.533,0.523-0.773,1.047-0.668l1.365,0.271l-0.064,0.327l-1.284-0.255c-0.409-0.081-0.708,0.09-0.785,0.477
		c-0.075,0.378,0.146,0.715,0.558,0.797L14.5,71.473z"/>
	<path fill="#FFFFFF" d="M19.278,62.808L19.1,63.415l-1.494,0.197l-0.804,2.721l1.147,0.984l-0.172,0.578l-4.364-3.764l0.155-0.53
		L19.278,62.808z M14.146,64.066l2.214,1.896l0.672-2.28L14.146,64.066z"/>
	<path fill="#FFFFFF" d="M19.734,61.64l-0.201,0.538l-3.6-1.358l0.201-0.536l0.627,0.237c-0.301-0.385-0.472-0.878-0.238-1.497
		c0.328-0.872,1.104-1.159,1.961-0.836l2.234,0.842l-0.201,0.538l-2.104-0.793c-0.668-0.252-1.222-0.048-1.461,0.585
		c-0.234,0.62,0.045,1.25,0.721,1.505L19.734,61.64z"/>
	<path fill="#FFFFFF" d="M21.338,57.594l-0.236,0.521l-3.504-1.589l0.236-0.521l0.609,0.277c-0.275-0.402-0.414-0.907-0.139-1.51
		c0.383-0.847,1.177-1.084,2.011-0.706l2.177,0.987l-0.238,0.522l-2.047-0.929c-0.65-0.294-1.217-0.127-1.496,0.49
		c-0.273,0.604-0.036,1.25,0.621,1.548L21.338,57.594z"/>
	<path fill="#FFFFFF" d="M20.827,49.93l0.267-0.5l3.395,1.81l-0.267,0.5l-0.591-0.315c0.244,0.426,0.355,0.932,0.043,1.516
		c-0.438,0.82-1.244,1.005-2.052,0.574l-2.108-1.124l0.27-0.505l1.983,1.057c0.63,0.335,1.206,0.205,1.524-0.392
		c0.309-0.578,0.115-1.246-0.521-1.585L20.827,49.93z"/>
	<path fill="#FFFFFF" d="M22.49,48.492l-0.49-0.1c0.059-0.463,0.17-0.885,0.462-1.36c0.552-0.895,1.317-1.114,2.179-0.583
		l2.005,1.235l-0.289,0.469l-0.495-0.305c0.157,0.412,0.189,0.957-0.166,1.533c-0.377,0.609-1.098,1.012-1.782,0.591
		c-0.697-0.43-0.714-1.228-0.202-2.058c0.258-0.418,0.5-0.682,0.762-0.923l-0.113-0.07c-0.59-0.364-1.117-0.19-1.496,0.426
		C22.624,47.734,22.538,48.102,22.49,48.492z M24.199,49.466c0.418,0.258,0.894,0.027,1.168-0.417
		c0.371-0.604,0.308-1.324-0.212-1.645l-0.317-0.196c-0.219,0.198-0.486,0.478-0.732,0.877
		C23.725,48.702,23.781,49.208,24.199,49.466z"/>
	<path fill="#FFFFFF" d="M27.248,46.797l-4.502-3.046l0.32-0.475l4.503,3.046L27.248,46.797z"/>
	<path fill="#FFFFFF" d="M31.014,41.856c-0.941,1.172-2.559,1.295-3.73,0.354c-1.162-0.933-1.417-2.552-0.457-3.747
		c0.592-0.737,1.207-0.968,1.918-1.067l0.084,0.584c-0.6,0.081-1.14,0.279-1.583,0.829c-0.722,0.9-0.537,2.156,0.407,2.915
		c0.947,0.76,2.229,0.673,2.947-0.22c0.447-0.558,0.526-1.095,0.467-1.783l0.539-0.063C31.693,40.427,31.605,41.119,31.014,41.856z"
		/>
	<path fill="#FFFFFF" d="M33.938,38.481c-0.783,0.848-2.022,0.849-2.826,0.104c-0.803-0.743-0.904-1.994-0.115-2.846
		c0.785-0.847,2.027-0.853,2.832-0.109C34.631,36.374,34.727,37.629,33.938,38.481z M31.359,36.094
		c-0.568,0.612-0.471,1.482,0.141,2.049c0.613,0.568,1.521,0.573,2.071-0.022c0.565-0.611,0.474-1.489-0.132-2.05
		C32.82,35.5,31.91,35.498,31.359,36.094z"/>
	<path fill="#FFFFFF" d="M36.234,35.987l-0.417,0.394l-2.647-2.793l0.417-0.396l0.46,0.487c-0.102-0.477-0.041-0.996,0.439-1.453
		c0.677-0.639,1.5-0.559,2.131,0.105l1.644,1.736l-0.417,0.394l-1.545-1.633c-0.492-0.518-1.08-0.576-1.572-0.11
		c-0.482,0.455-0.505,1.144-0.009,1.669L36.234,35.987z"/>
	<path fill="#FFFFFF" d="M38.054,29.193l0.319,0.373l-0.922,0.79l2.175,2.541l-0.435,0.374l-2.176-2.541l-0.402,0.344l-0.324-0.38
		l0.401-0.343l-0.218-0.256c-0.547-0.639-0.516-1.254,0.045-1.734c0.203-0.175,0.357-0.268,0.543-0.338l0.325,0.38
		c-0.198,0.089-0.341,0.163-0.487,0.289c-0.34,0.291-0.335,0.64,0.022,1.059l0.204,0.238L38.054,29.193z"/>
	<path fill="#FFFFFF" d="M41.986,30.453c0.418-0.324,0.58-0.722,0.626-1.172l0.479,0.034c-0.042,0.578-0.233,1.095-0.811,1.541
		c-0.835,0.649-2.015,0.535-2.749-0.411c-0.685-0.883-0.613-2.067,0.228-2.719c0.9-0.697,1.975-0.382,2.667,0.512
		c0.031,0.042,0.068,0.089,0.104,0.146l-2.412,1.87C40.693,30.862,41.451,30.868,41.986,30.453z M41.816,28.4
		c-0.476-0.517-1.167-0.752-1.773-0.282c-0.529,0.409-0.588,1.161-0.186,1.801L41.816,28.4z"/>
	<path fill="#FFFFFF" d="M44.711,28.95l-0.471,0.328l-2.199-3.157l0.47-0.328l0.574,0.825c-0.134-0.688,0.062-1.385,0.677-1.777
		l0.354,0.506l-0.037,0.026c-0.689,0.479-0.908,1.367-0.244,2.318L44.711,28.95z"/>
	<path fill="#FFFFFF" d="M47.637,26.523c0.449-0.281,0.648-0.661,0.74-1.105L48.85,25.5c-0.099,0.572-0.342,1.067-0.961,1.453
		c-0.896,0.561-2.059,0.331-2.694-0.685c-0.593-0.947-0.403-2.12,0.499-2.684c0.966-0.604,2.002-0.182,2.604,0.777
		c0.027,0.043,0.059,0.095,0.088,0.155l-2.588,1.619C46.31,26.801,47.062,26.882,47.637,26.523z M47.674,24.462
		c-0.422-0.561-1.086-0.866-1.736-0.458c-0.567,0.355-0.701,1.096-0.365,1.774L47.674,24.462z"/>
	<path fill="#FFFFFF" d="M50.484,25.302l-0.504,0.273l-1.832-3.384l0.504-0.273l0.319,0.589c0.024-0.486,0.218-0.972,0.801-1.287
		c0.817-0.443,1.593-0.152,2.028,0.653l1.138,2.101l-0.505,0.273l-1.069-1.976c-0.341-0.628-0.894-0.836-1.488-0.515
		c-0.582,0.315-0.784,0.975-0.44,1.61L50.484,25.302z"/>
	<path fill="#FFFFFF" d="M55.451,22.877c-1.02,0.474-2.176,0-2.633-0.987c-0.461-0.994-0.08-2.19,0.94-2.662
		c0.663-0.308,1.203-0.222,1.688-0.028l-0.177,0.525c-0.412-0.162-0.832-0.255-1.306-0.034c-0.709,0.328-0.971,1.181-0.619,1.938
		c0.354,0.764,1.188,1.108,1.918,0.769c0.445-0.207,0.686-0.589,0.824-1.015l0.477,0.158C56.395,22.095,56.107,22.574,55.451,22.877
		z"/>
	<path fill="#FFFFFF" d="M58.823,20.902c0.491-0.194,0.759-0.53,0.929-0.95l0.45,0.167c-0.202,0.543-0.532,0.986-1.21,1.253
		c-0.982,0.387-2.083-0.052-2.523-1.165c-0.408-1.039-0.008-2.155,0.98-2.546c1.06-0.417,2.002,0.186,2.416,1.239
		c0.02,0.049,0.041,0.104,0.059,0.169l-2.838,1.118C57.469,20.932,58.193,21.15,58.823,20.902z M59.235,18.884
		c-0.312-0.628-0.909-1.048-1.622-0.769c-0.623,0.246-0.889,0.951-0.682,1.678L59.235,18.884z"/>
	<path fill="#FFFFFF" d="M64.963,19.345c-1.108,0.319-2.168-0.322-2.471-1.374s0.259-2.174,1.376-2.494
		c1.108-0.318,2.175,0.32,2.478,1.372C66.647,17.901,66.08,19.024,64.963,19.345z M63.992,15.968
		c-0.801,0.23-1.169,1.025-0.938,1.827c0.23,0.802,1.002,1.277,1.782,1.052c0.802-0.229,1.176-1.027,0.949-1.821
		C65.553,16.217,64.773,15.744,63.992,15.968z"/>
	<path fill="#FFFFFF" d="M68.764,14.339l0.11,0.479l-1.183,0.274l0.755,3.259l-0.56,0.129l-0.754-3.258l-0.516,0.12l-0.111-0.487
		l0.515-0.119l-0.075-0.327c-0.189-0.819,0.123-1.351,0.842-1.517c0.262-0.061,0.441-0.071,0.638-0.048l0.112,0.486
		c-0.217-0.011-0.377-0.013-0.566,0.031c-0.435,0.102-0.592,0.414-0.468,0.95l0.071,0.305L68.764,14.339z"/>
	<path fill="#FFFFFF" d="M72.756,16.395c0.074,0.463,0.358,0.592,0.74,0.529c0.191-0.03,0.348-0.092,0.531-0.22l0.076,0.485
		c-0.182,0.135-0.385,0.228-0.658,0.271c-0.609,0.097-1.119-0.13-1.243-0.902l-0.365-2.292l-0.529,0.084l-0.079-0.5l0.529-0.083
		l-0.184-1.146l0.566-0.091l0.184,1.147l1.203-0.192l0.08,0.5l-1.205,0.191L72.756,16.395z"/>
	<path fill="#FFFFFF" d="M75.502,17.103l-0.569,0.061l-0.572-5.403l0.57-0.061l0.237,2.242c0.209-0.441,0.572-0.815,1.23-0.885
		c0.926-0.098,1.531,0.466,1.627,1.375l0.252,2.376l-0.568,0.06l-0.238-2.234c-0.074-0.71-0.508-1.113-1.18-1.042
		c-0.66,0.068-1.096,0.602-1.021,1.32L75.502,17.103z"/>
	<path fill="#FFFFFF" d="M80.949,16.262c0.527-0.023,0.891-0.254,1.189-0.595l0.371,0.304c-0.369,0.448-0.824,0.759-1.555,0.79
		c-1.057,0.044-1.953-0.729-2.004-1.928c-0.049-1.116,0.695-2.041,1.76-2.086c1.139-0.049,1.83,0.832,1.879,1.962
		c0.002,0.052,0.006,0.112,0,0.178l-3.051,0.13C79.656,15.846,80.271,16.29,80.949,16.262z M82,14.488
		c-0.09-0.697-0.518-1.291-1.283-1.258c-0.67,0.029-1.152,0.608-1.195,1.363L82,14.488z"/>
	<path fill="#FFFFFF" d="M87.604,13.819c1.148,0.31,1.662,0.761,1.625,1.565c-0.045,0.899-0.818,1.443-1.852,1.393
		c-0.826-0.04-1.49-0.349-2.088-0.938l0.387-0.414c0.52,0.518,1.027,0.789,1.75,0.824c0.699,0.036,1.178-0.307,1.205-0.836
		c0.023-0.491-0.223-0.779-1.307-1.063c-1.184-0.318-1.715-0.733-1.674-1.596c0.041-0.833,0.793-1.393,1.781-1.344
		c0.76,0.037,1.293,0.28,1.799,0.73l-0.363,0.437c-0.465-0.417-0.941-0.613-1.475-0.64c-0.678-0.032-1.127,0.319-1.15,0.795
		C86.217,13.229,86.471,13.518,87.604,13.819z"/>
	<path fill="#FFFFFF" d="M91.76,17.162c-1.146-0.134-1.875-1.135-1.748-2.223c0.127-1.086,1.078-1.906,2.23-1.771
		c1.148,0.134,1.885,1.136,1.758,2.224C93.873,16.478,92.914,17.295,91.76,17.162z M92.17,13.668
		c-0.83-0.096-1.475,0.495-1.572,1.325c-0.098,0.829,0.432,1.565,1.238,1.66c0.826,0.097,1.482-0.495,1.578-1.316
		C93.512,14.501,92.977,13.763,92.17,13.668z"/>
	<path fill="#FFFFFF" d="M96.262,17.84c-1.107-0.201-1.775-1.254-1.582-2.325c0.195-1.077,1.197-1.834,2.303-1.632
		c0.719,0.131,1.109,0.512,1.395,0.95l-0.445,0.328c-0.244-0.37-0.535-0.688-1.045-0.78c-0.771-0.141-1.477,0.404-1.625,1.226
		c-0.152,0.828,0.33,1.589,1.121,1.734c0.484,0.088,0.902-0.087,1.262-0.354l0.297,0.403C97.484,17.745,96.975,17.97,96.262,17.84z"
		/>
	<path fill="#FFFFFF" d="M98.609,18.225l0.846-3.752l0.561,0.126l-0.848,3.752L98.609,18.225z M99.604,13.645l0.141-0.617
		l0.639,0.143l-0.139,0.618L99.604,13.645z"/>
	<path fill="#FFFFFF" d="M102.016,18.65c0.51,0.139,0.924,0.028,1.314-0.205l0.26,0.404c-0.488,0.314-1.018,0.47-1.723,0.278
		c-1.02-0.28-1.639-1.29-1.322-2.447c0.293-1.078,1.283-1.735,2.312-1.454c1.1,0.302,1.492,1.351,1.193,2.443
		c-0.014,0.05-0.029,0.107-0.055,0.17l-2.945-0.805C100.91,17.862,101.361,18.471,102.016,18.65z M103.555,17.28
		c0.127-0.691-0.1-1.387-0.84-1.589c-0.646-0.177-1.281,0.229-1.553,0.934L103.555,17.28z"/>
	<path fill="#FFFFFF" d="M105.393,18.953c-0.146,0.446,0.049,0.69,0.416,0.811c0.184,0.062,0.35,0.077,0.57,0.048l-0.154,0.467
		c-0.221,0.037-0.445,0.025-0.707-0.062c-0.588-0.194-0.938-0.63-0.695-1.373l0.73-2.207l-0.51-0.167l0.16-0.482l0.508,0.169
		l0.363-1.104l0.545,0.178l-0.363,1.105l1.16,0.381l-0.158,0.481l-1.16-0.382L105.393,18.953z"/>
	<path fill="#FFFFFF" d="M108.668,21.433c-0.596,0.624-1.049,0.759-1.59,0.549c-0.297-0.116-0.496-0.265-0.693-0.478l0.346-0.354
		c0.139,0.158,0.281,0.262,0.512,0.351c0.318,0.124,0.584,0.035,0.996-0.388l-0.242-4.209l0.592,0.23l0.141,3.499l2.314-2.544
		l0.57,0.222L108.668,21.433z"/>
	<path fill="#FFFFFF" d="M116.193,20.454l-0.213,0.444l-1.094-0.528l-1.453,3.011l-0.518-0.249l1.455-3.012l-0.477-0.229l0.217-0.45
		l0.477,0.23l0.146-0.302c0.365-0.758,0.941-0.976,1.605-0.655c0.242,0.117,0.389,0.221,0.529,0.362l-0.219,0.45
		c-0.162-0.145-0.285-0.247-0.459-0.331c-0.404-0.193-0.723-0.049-0.961,0.447l-0.137,0.282L116.193,20.454z"/>
	<path fill="#FFFFFF" d="M116.416,25.022c-1.012-0.555-1.311-1.756-0.785-2.715c0.527-0.958,1.715-1.359,2.732-0.8
		c1.012,0.555,1.316,1.759,0.791,2.719C118.629,25.185,117.434,25.582,116.416,25.022z M118.107,21.943
		c-0.732-0.401-1.553-0.096-1.953,0.634c-0.4,0.731-0.189,1.612,0.521,2.003c0.732,0.4,1.559,0.1,1.955-0.625
		C119.037,23.218,118.818,22.334,118.107,21.943z"/>
	<path fill="#FFFFFF" d="M119.41,26.656l-0.488-0.302l2.031-3.268l0.486,0.303l-0.529,0.853c0.578-0.394,1.297-0.491,1.9-0.08
		l-0.328,0.523l-0.037-0.023c-0.715-0.445-1.615-0.293-2.227,0.692L119.41,26.656z"/>
	<path fill="#FFFFFF" d="M126.938,31.957l-0.504-0.381l0.344-1.465l-2.262-1.71l-1.324,0.725l-0.479-0.363l5.057-2.751l0.439,0.332
		L126.938,31.957z M127.57,26.717l-2.553,1.401l1.893,1.432L127.57,26.717z"/>
	<path fill="#FFFFFF" d="M127.893,32.811l-0.43-0.378l2.541-2.889l0.43,0.378l-0.443,0.503c0.467-0.145,0.99-0.132,1.488,0.306
		c0.697,0.614,0.691,1.443,0.088,2.13l-1.58,1.793l-0.428-0.378l1.484-1.687c0.471-0.538,0.477-1.128-0.031-1.575
		c-0.498-0.438-1.188-0.399-1.662,0.143L127.893,32.811z"/>
	<path fill="#FFFFFF" d="M130.752,35.397l2.668-2.773l0.41,0.397l-2.664,2.773L130.752,35.397z M133.977,31.992l0.438-0.455
		l0.473,0.455l-0.439,0.456L133.977,31.992z"/>
	<path fill="#FFFFFF" d="M137.881,37.121c0.6,0.652,0.529,1.457-0.174,2.102l-1.756,1.612l-0.389-0.423l1.658-1.521
		c0.549-0.505,0.604-1.061,0.18-1.521c-0.393-0.429-1.037-0.493-1.598,0.021l-1.635,1.501l-0.383-0.417l1.666-1.532
		c0.533-0.488,0.59-1.055,0.176-1.505c-0.41-0.45-1.098-0.448-1.619,0.031l-1.619,1.486l-0.387-0.423l2.836-2.604l0.389,0.422
		l-0.479,0.438c0.453-0.07,0.941-0.054,1.379,0.422c0.424,0.461,0.449,0.984,0.273,1.43C136.9,36.557,137.428,36.627,137.881,37.121
		z"/>
	<path fill="#FFFFFF" d="M139.143,39.897l0.266-0.424c0.414,0.216,0.77,0.466,1.113,0.907c0.645,0.828,0.586,1.623-0.215,2.245
		l-1.854,1.447l-0.34-0.435l0.457-0.358c-0.441,0.004-0.961-0.155-1.379-0.69c-0.439-0.564-0.566-1.381,0.068-1.876
		c0.645-0.503,1.396-0.24,1.998,0.529c0.301,0.388,0.463,0.705,0.6,1.035l0.104-0.082c0.549-0.426,0.568-0.98,0.125-1.55
		C139.807,40.287,139.492,40.078,139.143,39.897z M137.633,41.159c-0.387,0.302-0.334,0.829-0.014,1.24
		c0.434,0.559,1.133,0.751,1.615,0.375l0.293-0.229c-0.111-0.274-0.279-0.624-0.568-0.994
		C138.516,40.982,138.021,40.857,137.633,41.159z"/>
	<path fill="#FFFFFF" d="M140.357,44.867c-0.383,0.27-0.371,0.582-0.15,0.898c0.111,0.158,0.236,0.271,0.432,0.379l-0.402,0.283
		c-0.201-0.104-0.371-0.247-0.531-0.472c-0.357-0.504-0.377-1.064,0.262-1.513l1.9-1.338l-0.309-0.438l0.414-0.292l0.309,0.438
		l0.947-0.668l0.33,0.469l-0.947,0.668l0.703,1l-0.416,0.291l-0.703-0.998L140.357,44.867z"/>
	<path fill="#FFFFFF" d="M140.643,47.226l3.221-2.104l0.314,0.479l-3.221,2.106L140.643,47.226z M144.547,44.631l0.531-0.346
		l0.357,0.548l-0.529,0.346L144.547,44.631z"/>
	<path fill="#FFFFFF" d="M142.395,50.207c-0.584-0.994-0.229-2.179,0.715-2.734c0.941-0.555,2.168-0.292,2.758,0.708
		c0.584,0.993,0.232,2.185-0.711,2.74S142.986,51.207,142.395,50.207z M145.424,48.424c-0.424-0.718-1.285-0.875-2.004-0.453
		c-0.719,0.423-0.986,1.289-0.574,1.988c0.424,0.718,1.287,0.882,2,0.463C145.572,49.995,145.834,49.123,145.424,48.424z"/>
	<path fill="#FFFFFF" d="M144.135,53.131l-0.258-0.513l3.438-1.73l0.258,0.512l-0.598,0.301c0.484,0.039,0.965,0.247,1.262,0.838
		c0.418,0.832,0.105,1.598-0.713,2.01l-2.133,1.075l-0.258-0.511l2.006-1.012c0.641-0.322,0.865-0.869,0.561-1.474
		c-0.299-0.59-0.951-0.811-1.598-0.487L144.135,53.131z"/>
	<path fill="#FFFFFF" d="M150.033,59.187c0.184,1.174-0.018,1.829-0.768,2.119c-0.84,0.327-1.65-0.156-2.025-1.122
		c-0.299-0.771-0.287-1.502,0.006-2.288l0.535,0.184c-0.262,0.685-0.301,1.259-0.039,1.933c0.252,0.653,0.76,0.95,1.252,0.759
		c0.459-0.179,0.621-0.521,0.441-1.625c-0.193-1.212-0.031-1.866,0.775-2.179c0.777-0.301,1.594,0.156,1.951,1.079
		c0.277,0.708,0.271,1.293,0.068,1.94l-0.549-0.155c0.191-0.594,0.176-1.108-0.016-1.606c-0.246-0.633-0.752-0.899-1.195-0.728
		C150.006,57.679,149.848,58.028,150.033,59.187z"/>
	<path fill="#FFFFFF" d="M149.498,63.03c-0.445,0.146-0.527,0.447-0.406,0.815c0.061,0.185,0.148,0.327,0.303,0.489l-0.469,0.152
		c-0.162-0.158-0.287-0.345-0.371-0.606c-0.193-0.587-0.049-1.128,0.695-1.371l2.207-0.724l-0.168-0.509l0.48-0.159l0.168,0.509
		l1.104-0.361l0.178,0.545l-1.104,0.361l0.381,1.16l-0.48,0.158l-0.383-1.16L149.498,63.03z"/>
	<path fill="#FFFFFF" d="M153.51,66.929l0.148,0.546l-3.715,1.006l-0.148-0.548l0.646-0.174c-0.471-0.143-0.896-0.437-1.068-1.077
		c-0.244-0.896,0.217-1.584,1.102-1.825l2.307-0.624l0.148,0.553l-2.17,0.586c-0.688,0.187-1.02,0.678-0.842,1.333
		c0.172,0.632,0.77,0.987,1.465,0.798L153.51,66.929z"/>
	<path fill="#FFFFFF" d="M150.791,72.531l0.758-0.151c-0.514-0.216-0.988-0.584-1.127-1.278c-0.18-0.904,0.357-1.945,1.604-2.195
		c1.24-0.247,2.15,0.506,2.33,1.411c0.139,0.7-0.15,1.229-0.514,1.605l2.275-0.455l0.113,0.561l-5.33,1.063L150.791,72.531z
		 M153.873,70.52c-0.148-0.729-0.805-1.22-1.725-1.037c-0.898,0.179-1.346,0.905-1.203,1.621c0.141,0.7,0.857,1.249,1.738,1.073
		C153.561,72.001,154.012,71.22,153.873,70.52z"/>
	<path fill="#FFFFFF" d="M151.061,74.214l3.803-0.569l0.084,0.567l-3.805,0.567L151.061,74.214z M155.689,73.484l0.625-0.093
		l0.098,0.648l-0.625,0.093L155.689,73.484z"/>
	<path fill="#FFFFFF" d="M151.9,77.539c0.057,0.525,0.311,0.873,0.668,1.148l-0.281,0.39c-0.471-0.34-0.809-0.775-0.883-1.5
		c-0.113-1.05,0.602-1.994,1.795-2.121c1.109-0.117,2.08,0.565,2.191,1.624c0.121,1.131-0.715,1.878-1.836,1.998
		c-0.055,0.006-0.113,0.012-0.182,0.012l-0.32-3.033C152.232,76.224,151.828,76.866,151.9,77.539z M153.736,78.475
		c0.688-0.134,1.254-0.597,1.172-1.36c-0.07-0.666-0.68-1.11-1.436-1.104L153.736,78.475z"/>
	<path fill="#FFFFFF" d="M151.701,81.346c-0.025-0.549,0.16-1.17,0.488-1.619l0.424,0.27c-0.293,0.432-0.447,0.902-0.426,1.355
		c0.023,0.462,0.277,0.785,0.65,0.767l0.014-0.001c0.387-0.018,0.514-0.479,0.629-0.992c0.143-0.612,0.318-1.291,1.025-1.326
		l0.016-0.001c0.66-0.033,1.127,0.497,1.162,1.256c0.025,0.469-0.113,0.998-0.354,1.405l-0.445-0.24
		c0.213-0.369,0.334-0.784,0.316-1.156c-0.021-0.454-0.273-0.732-0.594-0.715h-0.016c-0.363,0.017-0.482,0.5-0.613,1.022
		c-0.148,0.604-0.35,1.255-1.039,1.289l-0.016,0.001C152.193,82.696,151.74,82.114,151.701,81.346z"/>
</g>
<path fill="#2B6D87" d="M48.725,61.159c-2.041-3.326-1.001-7.675,2.324-9.717c2.861-1.758,6.482-1.226,8.736,1.078
	c-2.273-3.17-6.639-4.094-10.016-2.021c-3.529,2.167-4.635,6.788-2.467,10.319c1.361,2.215,3.686,3.475,6.102,3.57
	C51.529,64.027,49.804,62.915,48.725,61.159z"/>
<path fill="#FFFFFF" d="M55.947,55.346c1.549-0.951,3.365-1.082,4.956-0.523c-0.184-0.639-0.448-1.263-0.812-1.856
	c-0.096-0.155-0.202-0.299-0.307-0.446c-2.254-2.304-5.875-2.835-8.736-1.078c-3.325,2.042-4.365,6.391-2.324,9.717
	c1.079,1.756,2.805,2.868,4.68,3.23c0.463,0.018,0.926-0.01,1.388-0.078c-0.279-0.292-0.532-0.618-0.754-0.978
	C52.36,60.601,53.215,57.025,55.947,55.346z"/>
<path fill="#1B6A74" d="M50.136,59.95c-4.696-2.996-8.04-6.529-8.527-8.78c-0.354,2.029,3.132,5.992,8.31,9.293
	c5.479,3.493,10.83,4.958,12.193,3.384C60.064,64.682,55.148,63.144,50.136,59.95z"/>
<path fill="#DFECED" d="M41.82,65.123c0.145,0.208,0.287,0.42,0.43,0.637C42.107,65.543,41.965,65.332,41.82,65.123z"/>
<path fill="#DFECED" d="M42.438,66.049c0.128,0.198,0.257,0.398,0.382,0.603C42.695,66.447,42.566,66.247,42.438,66.049z"/>
<path fill="#DFECED" d="M42.82,66.651c0.027,0.041,0.052,0.081,0.078,0.123c-0.006-0.01-0.012-0.018-0.017-0.029
	C42.861,66.712,42.84,66.682,42.82,66.651z"/>
<path fill="#DFECED" d="M41.698,64.949c0.04,0.058,0.08,0.117,0.122,0.174C41.778,65.065,41.738,65.007,41.698,64.949z"/>
<path fill="#DFECED" d="M42.25,65.76c0.064,0.095,0.125,0.193,0.188,0.289C42.375,65.951,42.314,65.854,42.25,65.76z"/>
<circle fill="#FFFFFF" cx="62.919" cy="41.583" r="0.683"/>
<circle fill="#FFFFFF" cx="82.555" cy="59.366" r="0.527"/>
<circle fill="#FFFFFF" cx="78.702" cy="78.145" r="0.528"/>
<circle fill="#FFFFFF" cx="41.638" cy="60.247" r="0.882"/>
<circle fill="#FFFFFF" cx="39.251" cy="49.351" r="0.528"/>
<circle fill="#FFFFFF" cx="71.218" cy="64.241" r="0.528"/>
<path fill="#FFFFFF" d="M50.88,59.456c-5.36-3.29-8.891-7.281-7.887-8.915c0.208-0.339,0.604-0.543,1.136-0.635
	c-1.135-0.057-1.963,0.184-2.334,0.767c-0.096,0.148-0.154,0.317-0.187,0.497c0.487,2.25,3.831,5.784,8.527,8.78
	c5.013,3.194,9.929,4.732,11.976,3.898c0.041-0.047,0.078-0.098,0.111-0.149c0.212-0.332,0.259-0.752,0.166-1.236
	C62.111,64.949,56.225,62.736,50.88,59.456z"/>
<path fill="#9EB9B7" d="M51.387,52.338c0.26,0.137,0.521,0.276,0.785,0.422C51.907,52.613,51.646,52.473,51.387,52.338z"/>
<path fill="#2A6B86" d="M142.453,113.237c-0.65-6.665-7.357-15.16-7.357-15.16l3.91,4.188c-0.279-9.666-12.541-18.412-12.541-18.412
	l-0.564,0.664c-0.129-0.878-0.266-1.742-0.408-2.594c2.936-2.705,9.832-0.618,11.438-0.08c0.219,0.072,0.348,0.119,0.348,0.119
	l1.957,4.183l0.186-0.249l0.195,0.727l0.281-0.338l-0.184-0.78l0.053-0.071l-0.244-0.748l-2.021-8.676l-0.906-0.593l0.449,1.665
	l-0.871-2.674l-3.707-2.156l-10.887-6.214c-5.33-15.856-13.414-25.087-20.707-30.448c-0.602-0.442-1.197-0.857-1.785-1.247
	c-8.182-5.434-14.943-6.083-14.943-6.083s-0.016,0.039-0.039,0.112c-0.076-0.002-0.117-0.004-0.117-0.004l0.08,0.118
	c-0.414,1.298-2.324,8.103-0.289,17.578c0.137,0.641,0.291,1.292,0.467,1.956c2.248,8.525,7.752,18.916,20.053,29.325l1.553,12.863
	l0.557,4.32l0.141,1.09l8.086,6.589l0.416-0.116l0.846-0.234l-3.055-3.43c0,0,0.006-0.139,0.021-0.373
	c0.125-1.822,0.912-9.879,5.025-11.031c0.76,0.461,1.537,0.92,2.33,1.381l-0.008,0.002c0,0,4.076,14.699,12.932,18.129l-2.594-5.145
	C130.547,101.387,136.5,110.432,142.453,113.237z"/>
<g>
	<polygon fill="#3B8DB0" points="163.299,99.511 7.732,99.511 0,119.288 171.047,119.288 	"/>
	<polygon fill="#2B6D87" points="0,119.288 7.732,139.063 163.299,139.063 171.047,119.288 	"/>
</g>
<g>
	<polygon fill="#CE3E38" points="157.746,97.628 15.308,97.628 7.855,116.579 165.211,116.579 	"/>
	<polygon fill="#AB322C" points="7.855,116.579 15.308,135.529 157.746,135.529 165.211,116.579 	"/>
</g>
<g>
	<g>
		<path fill="#231F20" d="M30.834,131.212c0,1.085-0.879,1.965-1.965,1.965h-6.433c-1.085,0-1.966-0.88-1.966-1.965l0,0
			c0-1.086,0.881-1.966,1.966-1.966h6.433C29.955,129.247,30.834,130.126,30.834,131.212L30.834,131.212z"/>
		<path fill="#231F20" d="M151.613,131.212c0,1.085-0.879,1.965-1.965,1.965h-6.434c-1.084,0-1.965-0.88-1.965-1.965l0,0
			c0-1.086,0.881-1.966,1.965-1.966h6.434C150.734,129.247,151.613,130.126,151.613,131.212L151.613,131.212z"/>
		<circle fill="#231F20" cx="86.042" cy="131.391" r="2.858"/>
	</g>
</g>
<g>
	<g>
		<path fill="#231F20" d="M34.54,83.719v-2.081h5.856v2.081H38.48v11.715h-2.025V83.719H34.54z"/>
		<path fill="#231F20" d="M45.257,89.429H43.68v6.005h-2.025V81.638h2.025v5.702h1.577v-5.702h2.026v13.796h-2.026V89.429z"/>
		<path fill="#231F20" d="M49.256,81.638h4.639v2.081h-2.613v3.621h1.879v2.217h-1.879v3.795h2.613v2.082h-4.639V81.638z"/>
		<path fill="#231F20" d="M66.016,90.704V92.6c-0.019,0.562-0.129,1.064-0.33,1.504c-0.086,0.19-0.195,0.369-0.33,0.541
			s-0.297,0.327-0.485,0.468c-0.185,0.152-0.403,0.269-0.659,0.349c-0.258,0.079-0.558,0.119-0.899,0.119
			c-0.666,0-1.191-0.156-1.577-0.468c-0.184-0.141-0.338-0.296-0.467-0.468s-0.235-0.351-0.32-0.541
			c-0.202-0.439-0.312-0.941-0.33-1.504v-8.13c0.012-0.275,0.043-0.536,0.096-0.788c0.053-0.25,0.13-0.482,0.234-0.697
			c0.085-0.189,0.191-0.372,0.32-0.549c0.129-0.178,0.283-0.336,0.467-0.478c0.189-0.141,0.416-0.256,0.679-0.344
			c0.264-0.089,0.563-0.133,0.898-0.133c0.342,0,0.642,0.044,0.899,0.133c0.256,0.088,0.475,0.203,0.659,0.344
			c0.188,0.142,0.351,0.3,0.485,0.478c0.135,0.177,0.244,0.359,0.33,0.549c0.104,0.215,0.183,0.447,0.233,0.697
			c0.053,0.252,0.085,0.513,0.097,0.788v1.897h-1.888V84.47c0-0.189-0.026-0.354-0.073-0.489c-0.05-0.139-0.126-0.262-0.229-0.371
			c-0.104-0.105-0.261-0.156-0.468-0.156c-0.178,0-0.313,0.054-0.408,0.164s-0.166,0.227-0.215,0.35
			c-0.031,0.072-0.052,0.149-0.06,0.232c-0.01,0.082-0.021,0.174-0.032,0.271v8.13c0.012,0.197,0.045,0.363,0.096,0.5
			c0.052,0.139,0.127,0.26,0.225,0.362c0.098,0.098,0.229,0.147,0.395,0.147c0.214,0,0.37-0.05,0.468-0.147
			c0.097-0.098,0.171-0.216,0.22-0.356c0.031-0.066,0.052-0.143,0.064-0.226c0.012-0.083,0.019-0.175,0.019-0.28v-1.896H66.016z"/>
		<path fill="#231F20" d="M72.984,92.6c-0.018,0.562-0.129,1.064-0.33,1.504c-0.086,0.19-0.195,0.369-0.33,0.541
			c-0.134,0.172-0.297,0.327-0.486,0.468c-0.184,0.152-0.403,0.269-0.66,0.349c-0.256,0.079-0.557,0.119-0.898,0.119
			c-0.666,0-1.191-0.156-1.576-0.468c-0.184-0.141-0.338-0.296-0.467-0.468S68,94.294,67.915,94.104
			c-0.201-0.439-0.312-0.941-0.33-1.504v-8.13c0.013-0.275,0.044-0.536,0.096-0.788c0.052-0.25,0.13-0.482,0.234-0.697
			c0.085-0.189,0.192-0.372,0.321-0.549c0.129-0.178,0.283-0.336,0.467-0.478c0.188-0.141,0.416-0.256,0.678-0.344
			c0.264-0.089,0.562-0.133,0.898-0.133c0.342,0,0.643,0.044,0.898,0.133c0.257,0.088,0.477,0.203,0.66,0.344
			c0.189,0.142,0.353,0.3,0.486,0.478c0.135,0.177,0.244,0.359,0.33,0.549c0.104,0.215,0.182,0.447,0.233,0.697
			c0.052,0.252,0.083,0.513,0.097,0.788V92.6z M70.959,84.47c0-0.366-0.086-0.653-0.258-0.86c-0.049-0.049-0.109-0.088-0.184-0.115
			c-0.073-0.027-0.152-0.041-0.238-0.041c-0.177,0-0.311,0.054-0.402,0.164s-0.156,0.227-0.193,0.35
			c-0.03,0.072-0.05,0.149-0.06,0.232c-0.009,0.082-0.013,0.174-0.013,0.271v8.13c0,0.197,0.022,0.363,0.068,0.5
			c0.045,0.139,0.113,0.26,0.206,0.362c0.11,0.098,0.241,0.147,0.394,0.147c0.178,0,0.314-0.05,0.408-0.147
			c0.096-0.098,0.161-0.216,0.197-0.356c0.03-0.066,0.05-0.143,0.06-0.226c0.009-0.083,0.015-0.175,0.015-0.28V84.47z"/>
		<path fill="#231F20" d="M78.193,85.333c0-0.227-0.01-0.459-0.027-0.697c-0.02-0.238-0.062-0.455-0.129-0.65
			c-0.068-0.189-0.154-0.344-0.262-0.463c-0.105-0.119-0.24-0.178-0.398-0.178c-0.264,0.011-0.443,0.143-0.541,0.393
			c-0.098,0.251-0.146,0.578-0.146,0.982c0,0.23,0.045,0.469,0.139,0.714c0.09,0.244,0.213,0.498,0.365,0.761
			c0.152,0.27,0.324,0.539,0.514,0.812s0.381,0.554,0.578,0.847c0.23,0.35,0.461,0.699,0.688,1.051
			c0.225,0.352,0.426,0.701,0.604,1.049c0.178,0.349,0.322,0.703,0.436,1.061c0.113,0.355,0.17,0.725,0.17,1.103
			c0,0.46-0.043,0.896-0.133,1.312c-0.088,0.416-0.24,0.785-0.453,1.109c-0.215,0.317-0.502,0.57-0.861,0.761
			c-0.361,0.188-0.82,0.284-1.377,0.284c-0.646,0-1.164-0.111-1.547-0.335c-0.387-0.224-0.682-0.524-0.891-0.902
			c-0.207-0.379-0.344-0.808-0.408-1.284s-0.096-0.975-0.096-1.492l1.988-0.186c0,0.295,0.01,0.58,0.027,0.857
			c0.02,0.277,0.066,0.525,0.139,0.738c0.066,0.226,0.162,0.408,0.283,0.545c0.123,0.137,0.291,0.207,0.504,0.207
			c0.154,0,0.281-0.038,0.385-0.115c0.105-0.076,0.191-0.182,0.258-0.316c0.068-0.135,0.115-0.295,0.146-0.48
			c0.031-0.187,0.047-0.391,0.047-0.609c0-0.227-0.051-0.469-0.152-0.725c-0.1-0.258-0.229-0.522-0.381-0.799
			c-0.086-0.133-0.17-0.27-0.256-0.406C77.318,90.14,77.23,90,77.139,89.862c-0.195-0.289-0.4-0.59-0.615-0.904
			c-0.213-0.316-0.434-0.646-0.66-0.994c-0.451-0.69-0.783-1.406-0.998-2.145c-0.11-0.35-0.164-0.716-0.164-1.1
			c0-0.38,0.045-0.76,0.137-1.143c0.092-0.382,0.244-0.728,0.459-1.04c0.213-0.306,0.488-0.555,0.824-0.747s0.742-0.295,1.219-0.308
			c0.305-0.006,0.58,0.02,0.826,0.079c0.244,0.057,0.459,0.141,0.648,0.252c0.191,0.109,0.355,0.239,0.496,0.389
			c0.141,0.15,0.26,0.316,0.357,0.5c0.195,0.379,0.33,0.785,0.404,1.219s0.109,0.843,0.109,1.229L78.193,85.333z"/>
		<path fill="#231F20" d="M85.096,95.434l-1.301-8.672l-0.072-0.587h-0.111v9.259h-1.879V81.638h2.475l1.201,6.306l0.102,0.734
			h0.035l0.092-0.734l1.201-6.306h2.477v13.796h-1.871v-9.259h-0.119l-0.072,0.587l-1.293,8.672H85.096z"/>
		<path fill="#231F20" d="M96.557,92.6c-0.018,0.562-0.127,1.064-0.33,1.504c-0.086,0.19-0.197,0.369-0.33,0.541
			c-0.135,0.172-0.297,0.327-0.486,0.468c-0.184,0.152-0.402,0.269-0.66,0.349c-0.256,0.079-0.555,0.119-0.896,0.119
			c-0.668,0-1.193-0.156-1.578-0.468c-0.184-0.141-0.338-0.296-0.467-0.468c-0.127-0.172-0.236-0.351-0.322-0.541
			c-0.199-0.439-0.311-0.941-0.33-1.504v-8.13c0.014-0.275,0.045-0.536,0.098-0.788c0.051-0.25,0.131-0.482,0.232-0.697
			c0.086-0.189,0.195-0.372,0.322-0.549c0.129-0.178,0.283-0.336,0.467-0.478c0.189-0.141,0.416-0.256,0.678-0.344
			c0.264-0.089,0.562-0.133,0.9-0.133c0.342,0,0.641,0.044,0.896,0.133c0.258,0.088,0.477,0.203,0.66,0.344
			c0.189,0.142,0.352,0.3,0.486,0.478c0.133,0.177,0.244,0.359,0.33,0.549c0.104,0.215,0.182,0.447,0.234,0.697
			c0.053,0.252,0.084,0.513,0.096,0.788V92.6z M94.529,84.47c0-0.366-0.086-0.653-0.256-0.86c-0.049-0.049-0.109-0.088-0.186-0.115
			c-0.07-0.027-0.15-0.041-0.234-0.041c-0.178,0-0.311,0.054-0.404,0.164c-0.09,0.11-0.156,0.227-0.193,0.35
			c-0.031,0.072-0.049,0.149-0.059,0.232c-0.012,0.082-0.014,0.174-0.014,0.271v8.13c0,0.197,0.023,0.363,0.068,0.5
			c0.045,0.139,0.115,0.26,0.207,0.362c0.109,0.098,0.24,0.147,0.395,0.147c0.176,0,0.312-0.05,0.408-0.147
			c0.094-0.098,0.16-0.216,0.195-0.356c0.031-0.066,0.051-0.143,0.061-0.226s0.012-0.175,0.012-0.28V84.47z"/>
		<path fill="#231F20" d="M101.764,85.333c0-0.227-0.008-0.459-0.025-0.697s-0.061-0.455-0.129-0.65
			c-0.068-0.189-0.154-0.344-0.262-0.463s-0.24-0.178-0.398-0.178c-0.262,0.011-0.441,0.143-0.539,0.393
			c-0.098,0.251-0.146,0.578-0.146,0.982c0,0.23,0.045,0.469,0.137,0.714c0.09,0.244,0.213,0.498,0.367,0.761
			c0.15,0.27,0.322,0.539,0.512,0.812s0.381,0.554,0.576,0.847c0.234,0.35,0.463,0.699,0.689,1.051
			c0.225,0.352,0.426,0.701,0.604,1.049c0.178,0.349,0.322,0.703,0.436,1.061c0.113,0.355,0.172,0.725,0.172,1.103
			c0,0.46-0.045,0.896-0.133,1.312c-0.09,0.416-0.24,0.785-0.457,1.109c-0.213,0.317-0.5,0.57-0.859,0.761
			c-0.361,0.188-0.82,0.284-1.375,0.284c-0.648,0-1.166-0.111-1.549-0.335c-0.385-0.224-0.682-0.524-0.889-0.902
			c-0.209-0.379-0.346-0.808-0.408-1.284c-0.064-0.477-0.098-0.975-0.098-1.492l1.988-0.186c0,0.295,0.01,0.58,0.029,0.857
			c0.018,0.277,0.062,0.525,0.137,0.738c0.066,0.226,0.162,0.408,0.283,0.545s0.291,0.207,0.506,0.207
			c0.152,0,0.281-0.038,0.385-0.115c0.104-0.076,0.189-0.182,0.256-0.316s0.115-0.295,0.148-0.48
			c0.029-0.187,0.043-0.391,0.043-0.609c0-0.227-0.049-0.469-0.15-0.725c-0.102-0.258-0.227-0.522-0.379-0.799
			c-0.086-0.133-0.172-0.27-0.258-0.406c-0.086-0.138-0.174-0.277-0.266-0.416c-0.195-0.289-0.398-0.59-0.615-0.904
			c-0.213-0.316-0.432-0.646-0.66-0.994c-0.449-0.69-0.783-1.406-0.996-2.145c-0.111-0.35-0.166-0.716-0.166-1.1
			c0-0.38,0.045-0.76,0.137-1.143c0.09-0.382,0.244-0.728,0.459-1.04c0.213-0.306,0.49-0.555,0.824-0.747
			c0.338-0.192,0.742-0.295,1.219-0.308c0.307-0.006,0.58,0.02,0.826,0.079c0.244,0.057,0.461,0.141,0.65,0.252
			c0.189,0.109,0.355,0.239,0.494,0.389c0.143,0.15,0.26,0.316,0.357,0.5c0.195,0.379,0.33,0.785,0.404,1.219
			c0.072,0.434,0.111,0.843,0.111,1.229L101.764,85.333z"/>
	</g>
	<g>
		<path fill="#F5F5F6" d="M33.461,82.835v-2.081h5.856v2.081h-1.915v11.714h-2.027V82.835H33.461z"/>
		<path fill="#F5F5F6" d="M44.178,88.545h-1.577v6.004h-2.025V80.755h2.025v5.701h1.577v-5.701h2.025v13.794h-2.025V88.545z"/>
		<path fill="#F5F5F6" d="M48.176,80.755h4.637v2.081h-2.611v3.62h1.881v2.219h-1.881v3.795h2.611v2.08h-4.637V80.755z"/>
		<path fill="#F5F5F6" d="M64.936,89.82v1.897c-0.018,0.562-0.128,1.062-0.33,1.503c-0.086,0.19-0.195,0.37-0.33,0.541
			s-0.297,0.327-0.486,0.468c-0.182,0.152-0.402,0.269-0.66,0.349c-0.256,0.079-0.556,0.118-0.898,0.118
			c-0.665,0-1.19-0.156-1.576-0.467c-0.183-0.141-0.34-0.297-0.467-0.468c-0.128-0.171-0.235-0.351-0.321-0.541
			c-0.201-0.44-0.312-0.941-0.33-1.503v-8.131c0.013-0.275,0.045-0.538,0.097-0.789c0.051-0.25,0.129-0.482,0.233-0.695
			c0.086-0.189,0.193-0.373,0.321-0.55c0.127-0.178,0.284-0.337,0.467-0.478c0.189-0.141,0.416-0.256,0.679-0.344
			c0.263-0.089,0.562-0.133,0.897-0.133c0.343,0,0.643,0.044,0.898,0.133c0.258,0.088,0.479,0.203,0.66,0.344
			c0.189,0.141,0.352,0.3,0.486,0.478c0.135,0.177,0.244,0.36,0.33,0.55c0.104,0.213,0.182,0.445,0.234,0.695
			c0.051,0.251,0.084,0.514,0.096,0.789v1.897h-1.889v-1.897c0-0.189-0.023-0.353-0.072-0.49c-0.05-0.138-0.125-0.261-0.229-0.372
			c-0.104-0.104-0.261-0.155-0.468-0.155c-0.178,0-0.313,0.055-0.408,0.165c-0.094,0.11-0.166,0.227-0.215,0.349
			c-0.03,0.073-0.051,0.151-0.061,0.233c-0.008,0.083-0.019,0.174-0.031,0.271v8.131c0.013,0.195,0.045,0.361,0.096,0.5
			c0.052,0.137,0.127,0.258,0.225,0.361c0.098,0.098,0.229,0.147,0.395,0.147c0.214,0,0.369-0.05,0.468-0.147
			c0.098-0.098,0.171-0.217,0.22-0.357c0.03-0.066,0.052-0.143,0.064-0.225c0.012-0.083,0.018-0.176,0.018-0.279V89.82H64.936z"/>
		<path fill="#F5F5F6" d="M71.904,91.717c-0.02,0.562-0.129,1.062-0.33,1.503c-0.086,0.19-0.196,0.37-0.33,0.541
			c-0.135,0.171-0.297,0.327-0.486,0.468c-0.184,0.152-0.402,0.269-0.66,0.349c-0.256,0.079-0.556,0.118-0.898,0.118
			c-0.665,0-1.191-0.156-1.576-0.467c-0.184-0.141-0.338-0.297-0.467-0.468s-0.235-0.351-0.321-0.541
			c-0.201-0.44-0.312-0.941-0.329-1.503v-8.131c0.011-0.275,0.043-0.538,0.096-0.789c0.051-0.25,0.13-0.482,0.233-0.695
			c0.086-0.189,0.192-0.373,0.321-0.55c0.129-0.178,0.283-0.337,0.467-0.478c0.189-0.141,0.416-0.256,0.679-0.344
			c0.262-0.089,0.562-0.133,0.897-0.133c0.343,0,0.643,0.044,0.898,0.133c0.258,0.088,0.477,0.203,0.66,0.344
			c0.189,0.141,0.352,0.3,0.486,0.478c0.134,0.177,0.244,0.36,0.33,0.55c0.104,0.213,0.182,0.445,0.233,0.695
			c0.053,0.251,0.084,0.514,0.097,0.789V91.717z M69.878,83.586c0-0.366-0.086-0.654-0.257-0.862
			c-0.049-0.048-0.109-0.087-0.184-0.114c-0.073-0.027-0.152-0.041-0.238-0.041c-0.178,0-0.311,0.055-0.402,0.165
			s-0.156,0.227-0.193,0.349c-0.03,0.073-0.05,0.151-0.059,0.233c-0.01,0.083-0.014,0.174-0.014,0.271v8.131
			c0,0.195,0.022,0.361,0.068,0.5c0.046,0.137,0.114,0.258,0.206,0.361c0.11,0.098,0.241,0.147,0.394,0.147
			c0.178,0,0.314-0.05,0.409-0.147c0.094-0.098,0.16-0.217,0.196-0.357c0.031-0.066,0.051-0.143,0.06-0.225
			c0.009-0.083,0.014-0.176,0.014-0.279V83.586z"/>
		<path fill="#F5F5F6" d="M77.111,84.448c0-0.227-0.008-0.457-0.027-0.695c-0.018-0.24-0.061-0.456-0.127-0.652
			c-0.068-0.189-0.154-0.343-0.262-0.463c-0.107-0.119-0.24-0.178-0.398-0.178c-0.262,0.012-0.443,0.143-0.541,0.394
			c-0.098,0.25-0.146,0.577-0.146,0.981c0,0.231,0.045,0.471,0.137,0.714c0.092,0.245,0.215,0.499,0.367,0.761
			c0.152,0.27,0.324,0.539,0.514,0.812c0.189,0.271,0.381,0.555,0.576,0.848c0.232,0.348,0.463,0.698,0.689,1.049
			c0.225,0.352,0.426,0.703,0.604,1.05c0.178,0.349,0.322,0.702,0.436,1.06c0.113,0.355,0.17,0.726,0.17,1.104
			c0,0.459-0.045,0.896-0.133,1.312c-0.09,0.415-0.238,0.786-0.453,1.108c-0.215,0.318-0.502,0.572-0.863,0.762
			c-0.359,0.189-0.818,0.283-1.373,0.283c-0.648,0-1.166-0.111-1.551-0.334s-0.68-0.523-0.889-0.902
			c-0.208-0.379-0.344-0.808-0.408-1.283c-0.063-0.478-0.096-0.975-0.096-1.495l1.988-0.184c0,0.294,0.01,0.579,0.027,0.856
			c0.02,0.279,0.064,0.525,0.139,0.739c0.066,0.227,0.162,0.407,0.283,0.544c0.123,0.139,0.291,0.208,0.506,0.208
			c0.152,0,0.281-0.038,0.383-0.116c0.105-0.074,0.189-0.182,0.258-0.315c0.066-0.135,0.115-0.294,0.146-0.48
			s0.045-0.39,0.045-0.609c0-0.228-0.049-0.468-0.15-0.726c-0.1-0.256-0.227-0.521-0.381-0.797c-0.086-0.134-0.17-0.27-0.256-0.408
			c-0.086-0.137-0.174-0.276-0.266-0.417c-0.195-0.286-0.4-0.587-0.615-0.902c-0.213-0.315-0.434-0.646-0.659-0.995
			c-0.452-0.689-0.786-1.405-0.999-2.145c-0.109-0.349-0.165-0.715-0.165-1.1c0-0.379,0.046-0.76,0.138-1.141
			c0.092-0.383,0.244-0.729,0.459-1.041c0.213-0.307,0.488-0.556,0.824-0.748s0.742-0.294,1.219-0.307
			c0.305-0.006,0.58,0.02,0.824,0.078s0.463,0.141,0.65,0.252c0.191,0.111,0.355,0.24,0.496,0.39s0.26,0.316,0.357,0.5
			c0.195,0.379,0.33,0.784,0.404,1.219c0.072,0.435,0.109,0.845,0.109,1.228L77.111,84.448z"/>
		<path fill="#F5F5F6" d="M84.016,94.549l-1.301-8.671l-0.074-0.587h-0.109v9.258h-1.879V80.755h2.477l1.199,6.306l0.102,0.732
			h0.035l0.092-0.732l1.201-6.306h2.477v13.794h-1.871v-9.258h-0.119l-0.074,0.587l-1.291,8.671H84.016z"/>
		<path fill="#F5F5F6" d="M95.477,91.717c-0.018,0.562-0.129,1.062-0.33,1.503c-0.084,0.19-0.195,0.37-0.33,0.541
			c-0.133,0.171-0.297,0.327-0.484,0.468c-0.186,0.152-0.406,0.269-0.66,0.349c-0.258,0.079-0.559,0.118-0.898,0.118
			c-0.666,0-1.193-0.156-1.578-0.467c-0.184-0.141-0.338-0.297-0.467-0.468s-0.236-0.351-0.32-0.541
			c-0.201-0.44-0.314-0.941-0.33-1.503v-8.131c0.012-0.275,0.043-0.538,0.096-0.789c0.051-0.25,0.129-0.482,0.234-0.695
			c0.084-0.189,0.191-0.373,0.32-0.55c0.129-0.178,0.283-0.337,0.467-0.478c0.189-0.141,0.416-0.256,0.68-0.344
			c0.262-0.089,0.562-0.133,0.898-0.133c0.34,0,0.641,0.044,0.898,0.133c0.254,0.088,0.475,0.203,0.66,0.344
			c0.188,0.141,0.352,0.3,0.484,0.478c0.135,0.177,0.246,0.36,0.33,0.55c0.104,0.213,0.184,0.445,0.232,0.695
			c0.053,0.251,0.086,0.514,0.098,0.789V91.717z M93.451,83.586c0-0.366-0.086-0.654-0.258-0.862
			c-0.047-0.048-0.109-0.087-0.184-0.114c-0.072-0.027-0.15-0.041-0.236-0.041c-0.18,0-0.312,0.055-0.404,0.165
			s-0.156,0.227-0.193,0.349c-0.029,0.073-0.049,0.151-0.061,0.233c-0.008,0.083-0.012,0.174-0.012,0.271v8.131
			c0,0.195,0.023,0.361,0.068,0.5c0.045,0.137,0.115,0.258,0.207,0.361c0.109,0.098,0.24,0.147,0.395,0.147
			c0.178,0,0.312-0.05,0.408-0.147c0.094-0.098,0.158-0.217,0.193-0.357c0.033-0.066,0.053-0.143,0.062-0.225
			c0.008-0.083,0.014-0.176,0.014-0.279V83.586z"/>
		<path fill="#F5F5F6" d="M100.684,84.448c0-0.227-0.008-0.457-0.025-0.695c-0.02-0.24-0.062-0.456-0.127-0.652
			c-0.068-0.189-0.158-0.343-0.266-0.463c-0.105-0.119-0.238-0.178-0.396-0.178c-0.262,0.012-0.443,0.143-0.541,0.394
			c-0.098,0.25-0.146,0.577-0.146,0.981c0,0.231,0.047,0.471,0.139,0.714c0.09,0.245,0.213,0.499,0.367,0.761
			c0.15,0.27,0.322,0.539,0.512,0.812c0.189,0.271,0.381,0.555,0.576,0.848c0.234,0.348,0.461,0.698,0.689,1.049
			c0.227,0.352,0.426,0.703,0.604,1.05c0.178,0.349,0.322,0.702,0.436,1.06c0.113,0.355,0.17,0.726,0.17,1.104
			c0,0.459-0.045,0.896-0.133,1.312s-0.238,0.786-0.455,1.108c-0.211,0.318-0.5,0.572-0.859,0.762
			c-0.361,0.189-0.82,0.283-1.375,0.283c-0.65,0-1.164-0.111-1.549-0.334s-0.682-0.523-0.891-0.902
			c-0.207-0.379-0.344-0.808-0.408-1.283c-0.062-0.478-0.096-0.975-0.096-1.495l1.988-0.184c0,0.294,0.01,0.579,0.029,0.856
			c0.018,0.279,0.062,0.525,0.137,0.739c0.066,0.227,0.162,0.407,0.285,0.544c0.121,0.139,0.289,0.208,0.504,0.208
			c0.152,0,0.281-0.038,0.385-0.116c0.105-0.074,0.189-0.182,0.256-0.315c0.068-0.135,0.117-0.294,0.146-0.48
			c0.031-0.187,0.045-0.39,0.045-0.609c0-0.228-0.049-0.468-0.15-0.726c-0.1-0.256-0.229-0.521-0.379-0.797
			c-0.088-0.134-0.172-0.27-0.258-0.408c-0.084-0.137-0.174-0.276-0.266-0.417c-0.195-0.286-0.4-0.587-0.615-0.902
			c-0.213-0.315-0.432-0.646-0.658-0.995c-0.451-0.689-0.785-1.405-1-2.145c-0.107-0.349-0.164-0.715-0.164-1.1
			c0-0.379,0.043-0.76,0.135-1.141c0.094-0.383,0.246-0.729,0.461-1.041c0.215-0.307,0.488-0.556,0.824-0.748
			c0.338-0.192,0.742-0.294,1.219-0.307c0.307-0.006,0.582,0.02,0.826,0.078c0.246,0.058,0.461,0.141,0.65,0.252
			s0.355,0.24,0.494,0.39c0.143,0.149,0.262,0.316,0.357,0.5c0.195,0.379,0.33,0.784,0.404,1.219s0.109,0.845,0.109,1.228
			L100.684,84.448z"/>
	</g>
	<g>
		<path d="M101.975,125.485V105.69H99.32v-2.43h7.768v2.43h-2.652v19.795H101.975z"/>
		<path d="M112.654,102.975v22.51h-2.463v-22.51H112.654z"/>
		<path d="M66.362,102.975v22.51H63.9v-22.51H66.362z"/>
		<path d="M80.854,125.485v-18.91c0-0.611-0.146-1.006-0.443-1.184c-0.295-0.18-0.578-0.27-0.852-0.27
			c-0.086,0-0.201,0.012-0.348,0.032c-0.148,0.021-0.295,0.079-0.443,0.173c-0.146,0.095-0.273,0.242-0.379,0.443
			c-0.104,0.199-0.156,0.468-0.156,0.805v18.91h-2.43v-18.91c0-0.357-0.064-0.637-0.191-0.838c-0.127-0.199-0.268-0.346-0.426-0.441
			c-0.158-0.095-0.311-0.146-0.457-0.158c-0.148-0.01-0.232-0.016-0.252-0.016c-0.065,0-0.17,0.012-0.316,0.032
			c-0.148,0.021-0.291,0.079-0.427,0.173c-0.138,0.095-0.264,0.242-0.378,0.443c-0.117,0.199-0.176,0.468-0.176,0.805v18.91h-2.429
			v-18.91c0-0.969,0.173-1.716,0.521-2.242c0.347-0.527,0.734-0.91,1.168-1.152c0.431-0.242,0.841-0.384,1.23-0.426
			c0.391-0.043,0.627-0.063,0.71-0.063c0.632,0,1.151,0.11,1.562,0.331c0.412,0.221,0.764,0.438,1.059,0.647
			c0.297-0.231,0.643-0.452,1.043-0.663s0.926-0.315,1.578-0.315c0.316,0,0.686,0.047,1.105,0.142
			c0.42,0.096,0.82,0.279,1.199,0.553s0.701,0.669,0.965,1.185c0.262,0.516,0.395,1.184,0.395,2.005v18.91H80.854z"/>
		<path d="M116.811,106.005c0-0.651,0.115-1.22,0.348-1.703c0.23-0.485,0.535-0.89,0.914-1.216c0.379-0.328,0.805-0.568,1.281-0.727
			c0.471-0.158,0.951-0.238,1.436-0.238c0.693,0,1.293,0.121,1.799,0.363c0.506,0.243,0.92,0.552,1.246,0.932
			c0.328,0.379,0.568,0.795,0.727,1.247c0.16,0.452,0.238,0.9,0.238,1.342v15.597c0,0.82-0.154,1.482-0.459,1.987
			c-0.307,0.507-0.672,0.9-1.105,1.186c-0.43,0.284-0.867,0.473-1.309,0.567c-0.443,0.095-0.799,0.143-1.076,0.143
			c-0.48,0-0.967-0.074-1.451-0.222c-0.482-0.147-0.914-0.379-1.293-0.694s-0.689-0.721-0.934-1.215
			c-0.242-0.495-0.361-1.08-0.361-1.752V106.005z M119.242,120.939c0,0.188,0.01,0.405,0.031,0.646
			c0.021,0.242,0.08,0.471,0.174,0.68c0.092,0.211,0.252,0.384,0.473,0.521c0.221,0.137,0.531,0.204,0.93,0.204
			c0.379,0,0.67-0.073,0.871-0.22c0.199-0.147,0.346-0.326,0.441-0.537c0.094-0.209,0.152-0.438,0.174-0.679
			c0.021-0.243,0.031-0.447,0.031-0.615v-14.334c0-0.168-0.01-0.372-0.031-0.614c-0.021-0.244-0.08-0.469-0.174-0.68
			c-0.096-0.211-0.25-0.389-0.459-0.537c-0.209-0.146-0.504-0.221-0.885-0.221c-0.4,0-0.703,0.074-0.914,0.221
			c-0.211,0.148-0.365,0.332-0.457,0.553c-0.094,0.223-0.152,0.447-0.174,0.679c-0.021,0.232-0.031,0.432-0.031,0.6V120.939z"/>
		<path d="M39.209,118.601v-11.427c0-0.843,0.125-1.553,0.378-2.132c0.253-0.577,0.567-1.042,0.948-1.388
			c0.377-0.348,0.799-0.596,1.263-0.742c0.462-0.148,0.915-0.222,1.356-0.222c0.147,0,0.342,0.011,0.584,0.032
			s0.505,0.078,0.79,0.173c0.284,0.095,0.567,0.231,0.853,0.411c0.283,0.179,0.541,0.416,0.771,0.71
			c0.443,0.61,0.701,1.167,0.774,1.673s0.11,1,0.11,1.484v18.311h-2.43v-4.61h-2.969v4.61h-2.43v-4.61h-2.084l-1.421-2.273H39.209z
			 M44.607,118.601v-11.427c0-0.189-0.006-0.406-0.016-0.647c-0.012-0.243-0.063-0.463-0.158-0.663
			c-0.095-0.199-0.242-0.374-0.442-0.521c-0.2-0.146-0.489-0.221-0.868-0.221c-0.38,0-0.669,0.074-0.867,0.221
			c-0.201,0.147-0.348,0.326-0.443,0.537s-0.147,0.432-0.158,0.663c-0.01,0.232-0.016,0.442-0.016,0.632v11.427H44.607z"/>
		<path d="M88.342,118.601v-11.427c0-0.843,0.127-1.553,0.377-2.132c0.254-0.577,0.568-1.042,0.949-1.388
			c0.379-0.348,0.799-0.596,1.262-0.742c0.465-0.148,0.916-0.222,1.357-0.222c0.148,0,0.342,0.011,0.584,0.032
			s0.504,0.078,0.789,0.173c0.283,0.095,0.568,0.231,0.854,0.411c0.283,0.179,0.541,0.416,0.773,0.71
			c0.441,0.61,0.699,1.167,0.771,1.673c0.076,0.506,0.111,1,0.111,1.484v18.311h-2.43v-4.61h-2.967v4.61h-2.432v-4.61h-2.084
			l-1.42-2.273H88.342z M93.74,118.601v-11.427c0-0.189-0.006-0.406-0.016-0.647c-0.012-0.243-0.064-0.463-0.16-0.663
			c-0.094-0.199-0.24-0.374-0.439-0.521c-0.201-0.146-0.49-0.221-0.871-0.221c-0.379,0-0.666,0.074-0.865,0.221
			c-0.203,0.147-0.348,0.326-0.443,0.537c-0.094,0.211-0.146,0.432-0.158,0.663c-0.008,0.232-0.014,0.442-0.014,0.632v11.427H93.74z
			"/>
		<path d="M51.609,107.174c0-0.843,0.126-1.553,0.379-2.132c0.254-0.577,0.569-1.042,0.947-1.388
			c0.379-0.348,0.801-0.596,1.264-0.742c0.463-0.148,0.916-0.222,1.357-0.222c0.146,0,0.342,0.011,0.584,0.032
			c0.24,0.021,0.505,0.078,0.789,0.173s0.562,0.231,0.837,0.411c0.273,0.179,0.524,0.416,0.757,0.71
			c0.463,0.61,0.73,1.167,0.806,1.673c0.074,0.506,0.11,1,0.11,1.484v18.311h-2.43v-18.311c0-0.189-0.007-0.406-0.017-0.647
			c-0.011-0.243-0.063-0.463-0.158-0.663c-0.095-0.199-0.243-0.374-0.442-0.521c-0.199-0.146-0.489-0.221-0.867-0.221
			c-0.379,0-0.67,0.074-0.869,0.221c-0.199,0.147-0.348,0.326-0.441,0.537c-0.096,0.211-0.148,0.432-0.158,0.663
			c-0.01,0.232-0.016,0.442-0.016,0.632v18.311h-2.432V107.174z"/>
		<path d="M128.385,107.174c0-0.843,0.127-1.553,0.379-2.132c0.25-0.577,0.566-1.042,0.945-1.388
			c0.379-0.348,0.801-0.596,1.264-0.742c0.463-0.148,0.914-0.222,1.357-0.222c0.146,0,0.34,0.011,0.584,0.032
			c0.242,0.021,0.506,0.078,0.789,0.173c0.285,0.095,0.562,0.231,0.838,0.411c0.273,0.179,0.525,0.416,0.758,0.71
			c0.461,0.61,0.73,1.167,0.805,1.673s0.109,1,0.109,1.484v18.311h-2.432v-18.311c0-0.189-0.004-0.406-0.014-0.647
			c-0.012-0.243-0.064-0.463-0.158-0.663c-0.096-0.199-0.242-0.374-0.443-0.521c-0.199-0.146-0.488-0.221-0.869-0.221
			c-0.377,0-0.666,0.074-0.867,0.221c-0.199,0.147-0.348,0.326-0.439,0.537c-0.098,0.211-0.148,0.432-0.16,0.663
			c-0.01,0.232-0.016,0.442-0.016,0.632v18.311h-2.43V107.174z"/>
	</g>
	<g>
		<path fill="#F5F5F6" d="M100.639,124.817v-19.793h-2.652v-2.432h7.766v2.432h-2.65v19.793H100.639z"/>
		<path fill="#F5F5F6" d="M111.32,102.307v22.51h-2.461v-22.51H111.32z"/>
		<path fill="#F5F5F6" d="M65.027,102.307v22.51h-2.462v-22.51H65.027z"/>
		<path fill="#F5F5F6" d="M79.52,124.817v-18.91c0-0.609-0.148-1.004-0.443-1.184c-0.295-0.179-0.578-0.268-0.852-0.268
			c-0.086,0-0.201,0.01-0.348,0.031c-0.148,0.02-0.293,0.078-0.443,0.173c-0.146,0.095-0.273,0.243-0.379,0.442
			c-0.104,0.199-0.156,0.469-0.156,0.805v18.91h-2.432v-18.91c0-0.357-0.062-0.636-0.189-0.838
			c-0.127-0.198-0.269-0.346-0.427-0.441c-0.156-0.094-0.31-0.146-0.456-0.157c-0.148-0.011-0.232-0.015-0.253-0.015
			c-0.063,0-0.168,0.01-0.315,0.031c-0.148,0.02-0.291,0.078-0.428,0.173s-0.264,0.243-0.377,0.442
			c-0.117,0.199-0.176,0.469-0.176,0.805v18.91h-2.43v-18.91c0-0.969,0.174-1.715,0.521-2.241c0.347-0.525,0.735-0.911,1.168-1.151
			c0.432-0.242,0.843-0.384,1.231-0.427c0.391-0.042,0.627-0.063,0.709-0.063c0.633,0,1.152,0.109,1.562,0.332
			c0.412,0.22,0.764,0.437,1.059,0.646c0.295-0.231,0.643-0.452,1.043-0.663c0.4-0.21,0.926-0.315,1.578-0.315
			c0.316,0,0.686,0.047,1.105,0.142c0.422,0.096,0.82,0.28,1.197,0.553c0.381,0.274,0.701,0.669,0.965,1.185
			s0.395,1.184,0.395,2.004v18.91H79.52z"/>
		<path fill="#F5F5F6" d="M115.477,105.338c0-0.652,0.117-1.221,0.348-1.705s0.535-0.889,0.914-1.215s0.805-0.568,1.279-0.727
			s0.951-0.236,1.438-0.236c0.695,0,1.293,0.121,1.799,0.362c0.506,0.243,0.92,0.553,1.246,0.933
			c0.328,0.378,0.566,0.793,0.727,1.246c0.158,0.452,0.236,0.9,0.236,1.342v15.596c0,0.821-0.152,1.483-0.459,1.988
			c-0.303,0.506-0.67,0.9-1.102,1.185c-0.434,0.284-0.869,0.474-1.311,0.569c-0.441,0.094-0.801,0.141-1.076,0.141
			c-0.48,0-0.967-0.073-1.451-0.221c-0.482-0.148-0.914-0.379-1.293-0.695c-0.379-0.314-0.689-0.72-0.932-1.215
			c-0.242-0.494-0.363-1.078-0.363-1.752V105.338z M117.908,120.272c0,0.188,0.01,0.405,0.031,0.646
			c0.021,0.242,0.078,0.469,0.174,0.68c0.092,0.21,0.252,0.383,0.473,0.52s0.531,0.205,0.93,0.205c0.379,0,0.67-0.073,0.871-0.221
			c0.199-0.146,0.346-0.326,0.441-0.536c0.094-0.21,0.152-0.437,0.174-0.68c0.021-0.241,0.031-0.446,0.031-0.614v-14.334
			c0-0.168-0.01-0.373-0.031-0.615c-0.021-0.243-0.08-0.469-0.174-0.679c-0.096-0.211-0.248-0.39-0.459-0.536
			s-0.504-0.223-0.883-0.223c-0.4,0-0.705,0.076-0.914,0.223c-0.213,0.146-0.367,0.33-0.459,0.552
			c-0.096,0.222-0.152,0.446-0.174,0.679s-0.031,0.432-0.031,0.6V120.272z"/>
		<path fill="#F5F5F6" d="M37.875,117.936v-11.43c0-0.841,0.125-1.552,0.377-2.131c0.254-0.578,0.568-1.041,0.948-1.39
			c0.378-0.346,0.8-0.594,1.263-0.74c0.463-0.147,0.916-0.222,1.357-0.222c0.146,0,0.342,0.01,0.584,0.03
			c0.242,0.022,0.504,0.08,0.789,0.175c0.285,0.096,0.568,0.232,0.853,0.411c0.284,0.178,0.542,0.415,0.774,0.71
			c0.441,0.611,0.698,1.168,0.771,1.674c0.074,0.506,0.111,0.998,0.111,1.482v18.311h-2.43v-4.608h-2.969v4.608h-2.43v-4.608h-2.084
			l-1.421-2.272H37.875z M43.273,117.936v-11.43c0-0.189-0.006-0.405-0.017-0.646c-0.011-0.242-0.063-0.463-0.157-0.664
			c-0.096-0.199-0.242-0.373-0.443-0.52c-0.199-0.148-0.488-0.221-0.867-0.221s-0.668,0.072-0.868,0.221
			c-0.2,0.146-0.347,0.325-0.443,0.535c-0.095,0.212-0.146,0.433-0.156,0.664c-0.012,0.231-0.017,0.441-0.017,0.631v11.43H43.273z"
			/>
		<path fill="#F5F5F6" d="M87.008,117.936v-11.43c0-0.841,0.125-1.552,0.377-2.131c0.254-0.578,0.57-1.041,0.947-1.39
			c0.379-0.346,0.801-0.594,1.264-0.74c0.463-0.147,0.916-0.222,1.357-0.222c0.148,0,0.344,0.01,0.584,0.03
			c0.24,0.022,0.504,0.08,0.789,0.175c0.285,0.096,0.568,0.232,0.854,0.411c0.283,0.178,0.541,0.415,0.773,0.71
			c0.441,0.611,0.697,1.168,0.771,1.674s0.111,0.998,0.111,1.482v18.311h-2.432v-4.608h-2.967v4.608h-2.43v-4.608h-2.084
			l-1.422-2.272H87.008z M92.404,117.936v-11.43c0-0.189-0.004-0.405-0.016-0.646c-0.01-0.242-0.062-0.463-0.158-0.664
			c-0.094-0.199-0.24-0.373-0.439-0.52c-0.201-0.148-0.49-0.221-0.869-0.221c-0.381,0-0.668,0.072-0.867,0.221
			c-0.201,0.146-0.348,0.325-0.441,0.535c-0.096,0.212-0.148,0.433-0.16,0.664c-0.01,0.231-0.016,0.441-0.016,0.631v11.43H92.404z"
			/>
		<path fill="#F5F5F6" d="M50.275,106.506c0-0.841,0.127-1.552,0.38-2.131c0.253-0.578,0.567-1.041,0.946-1.39
			c0.379-0.346,0.801-0.594,1.264-0.74c0.462-0.147,0.915-0.222,1.356-0.222c0.147,0,0.343,0.01,0.585,0.03
			c0.241,0.022,0.504,0.08,0.789,0.175c0.284,0.096,0.562,0.232,0.836,0.411c0.275,0.178,0.526,0.415,0.758,0.71
			c0.463,0.611,0.732,1.168,0.805,1.674c0.074,0.506,0.111,0.998,0.111,1.482v18.311h-2.431v-18.311
			c0-0.189-0.005-0.405-0.017-0.646c-0.01-0.242-0.062-0.463-0.158-0.664c-0.094-0.199-0.241-0.373-0.441-0.52
			c-0.2-0.148-0.489-0.221-0.868-0.221c-0.378,0-0.667,0.072-0.868,0.221c-0.199,0.146-0.348,0.325-0.441,0.535
			c-0.095,0.212-0.148,0.433-0.158,0.664s-0.016,0.441-0.016,0.631v18.311h-2.432V106.506z"/>
		<path fill="#F5F5F6" d="M127.049,106.506c0-0.841,0.127-1.552,0.379-2.131c0.254-0.578,0.568-1.041,0.947-1.39
			c0.379-0.346,0.801-0.594,1.264-0.74c0.463-0.147,0.916-0.222,1.357-0.222c0.146,0,0.34,0.01,0.582,0.03
			c0.244,0.022,0.508,0.08,0.791,0.175c0.285,0.096,0.564,0.232,0.838,0.411c0.271,0.178,0.525,0.415,0.758,0.71
			c0.461,0.611,0.73,1.168,0.805,1.674s0.109,0.998,0.109,1.482v18.311h-2.432v-18.311c0-0.189-0.004-0.405-0.014-0.646
			c-0.012-0.242-0.064-0.463-0.158-0.664c-0.096-0.199-0.242-0.373-0.441-0.52c-0.201-0.148-0.49-0.221-0.871-0.221
			c-0.379,0-0.668,0.072-0.865,0.221c-0.203,0.146-0.348,0.325-0.445,0.535c-0.094,0.212-0.146,0.433-0.156,0.664
			c-0.012,0.231-0.014,0.441-0.014,0.631v18.311h-2.434V106.506z"/>
	</g>
	<g>
		<g>
			<path d="M26.064,103.931c0-0.288,0.051-0.538,0.152-0.751c0.102-0.214,0.236-0.392,0.402-0.535
				c0.167-0.143,0.355-0.25,0.562-0.32c0.208-0.068,0.42-0.104,0.633-0.104c0.306,0,0.568,0.054,0.791,0.16
				c0.223,0.105,0.406,0.244,0.549,0.41c0.144,0.166,0.25,0.35,0.319,0.548c0.07,0.199,0.104,0.396,0.104,0.592v6.859
				c0,0.361-0.066,0.653-0.201,0.876c-0.135,0.221-0.297,0.395-0.486,0.521c-0.19,0.125-0.383,0.208-0.576,0.25
				c-0.194,0.042-0.352,0.062-0.473,0.062c-0.213,0-0.426-0.031-0.639-0.097c-0.213-0.064-0.402-0.166-0.569-0.306
				c-0.167-0.139-0.305-0.316-0.411-0.534c-0.105-0.218-0.158-0.476-0.158-0.771V103.931z M27.134,110.499
				c0,0.084,0.005,0.178,0.015,0.285c0.008,0.107,0.033,0.207,0.074,0.299c0.043,0.093,0.112,0.169,0.209,0.229
				c0.098,0.062,0.234,0.091,0.41,0.091c0.167,0,0.293-0.031,0.381-0.097c0.089-0.064,0.154-0.144,0.195-0.236
				c0.042-0.093,0.066-0.19,0.076-0.299c0.01-0.105,0.014-0.196,0.014-0.271v-6.305c0-0.074-0.004-0.164-0.014-0.271
				c-0.01-0.105-0.034-0.205-0.076-0.299c-0.041-0.091-0.109-0.171-0.201-0.235c-0.092-0.065-0.223-0.098-0.389-0.098
				c-0.176,0-0.31,0.032-0.402,0.098c-0.094,0.064-0.16,0.146-0.203,0.243c-0.041,0.098-0.066,0.196-0.074,0.3
				c-0.01,0.101-0.015,0.188-0.015,0.263V110.499z"/>
			<polygon points="30.584,110.382 29.988,109.429 34.812,109.429 34.812,110.356 			"/>
			<polygon points="31.459,112.319 31.459,102.575 34.812,102.575 34.812,103.588 32.4,103.588 32.4,112.319 			"/>
		</g>
		<g>
			<path fill="#F5F5F6" d="M25.529,103.395c0-0.286,0.052-0.535,0.152-0.75c0.104-0.213,0.236-0.391,0.403-0.533
				s0.354-0.25,0.563-0.32c0.207-0.068,0.419-0.104,0.631-0.104c0.307,0,0.568,0.055,0.793,0.159
				c0.221,0.106,0.404,0.245,0.547,0.409c0.145,0.166,0.25,0.35,0.32,0.55c0.069,0.198,0.104,0.396,0.104,0.589v6.861
				c0,0.362-0.066,0.652-0.201,0.875s-0.297,0.396-0.485,0.521c-0.19,0.125-0.382,0.208-0.577,0.249
				c-0.193,0.042-0.352,0.063-0.472,0.063c-0.212,0-0.427-0.033-0.638-0.098c-0.214-0.064-0.404-0.167-0.57-0.306
				c-0.168-0.139-0.304-0.316-0.41-0.534c-0.107-0.218-0.16-0.475-0.16-0.771V103.395z M26.6,109.965
				c0,0.083,0.004,0.179,0.012,0.283c0.012,0.107,0.037,0.207,0.078,0.3c0.041,0.092,0.111,0.169,0.209,0.228
				c0.097,0.062,0.234,0.092,0.409,0.092c0.167,0,0.294-0.031,0.382-0.097s0.152-0.144,0.193-0.235
				c0.043-0.094,0.068-0.192,0.077-0.301c0.01-0.105,0.015-0.194,0.015-0.27v-6.306c0-0.073-0.005-0.164-0.015-0.271
				c-0.009-0.105-0.034-0.206-0.077-0.298c-0.041-0.093-0.107-0.172-0.199-0.236c-0.094-0.065-0.223-0.098-0.391-0.098
				c-0.176,0-0.31,0.032-0.402,0.098c-0.092,0.064-0.16,0.146-0.201,0.242c-0.041,0.098-0.066,0.199-0.078,0.299
				c-0.008,0.103-0.012,0.191-0.012,0.265V109.965z"/>
			<polygon fill="#F5F5F6" points="30.049,109.848 29.453,108.893 34.279,108.893 34.279,109.823 			"/>
			<polygon fill="#F5F5F6" points="30.925,111.785 30.925,102.042 34.279,102.042 34.279,103.052 31.865,103.052 31.865,111.785 			
				"/>
		</g>
	</g>
</g>
<g>
	<path fill="#C8D1D5" d="M102.082,38.416c-2.685,2.994-6.981,6.315-13.747,8.399c3.92,12.803,15.312,29.475,45.632,43.685
		c0.312,0.146,0.613,0.294,0.931,0.44l0.214-0.158c-4.438-33.674-18.017-49.796-29.537-57.506
		C104.988,34.509,103.902,36.388,102.082,38.416z"/>
	<path fill="#932021" d="M103.634,32.042c-0.621,1.227-1.669,2.934-3.314,4.761c-2.527,2.81-6.476,5.904-12.551,7.993
		c0.169,0.661,0.357,1.333,0.566,2.019c6.766-2.083,11.062-5.405,13.747-8.399c1.82-2.028,2.906-3.907,3.492-5.14
		C104.92,32.837,104.271,32.427,103.634,32.042z"/>
	<g>
		<circle fill="#EEEFEF" cx="105.83" cy="50.039" r="7.426"/>
		<circle fill="#97BBD2" cx="105.447" cy="49.683" r="7.055"/>
		<circle fill="#728EA0" cx="105.473" cy="50.509" r="4.7"/>
		<path fill="#728EA0" stroke="#EEEFEF" stroke-width="0.6961" d="M129.2,77.92c0,0-5.107,5.198-2.535,3.395
			c2.569-1.802-4.146,1.295-4.146,1.295l-8.095-10.632c0,0,1.827-0.646,4.321-2.394c2.493-1.749,3.283-3.281,3.283-3.281
			L129.2,77.92z"/>
		<g>
			<path fill="#C8D1D5" d="M141.001,98.78l-2.167-2.793c-6.013-2.087-8.398-7.192-9.237-9.736l-1.354,0.593
				C128.979,89.204,131.694,95.03,141.001,98.78z"/>
			<path fill="#97BBD2" d="M138.834,95.987l-7.549-10.466l-1.688,0.729C130.436,88.794,132.821,93.9,138.834,95.987z"/>
			<path fill="#E1E6EC" d="M151.186,111.903L141.001,98.78c-9.307-3.75-12.021-9.576-12.758-11.937l-1.117,0.489
				c0,0,4.765,14.864,14.114,18.053l-2.883-5.161C138.357,100.224,144.879,109.247,151.186,111.903z"/>
		</g>
		<g>
			<path fill="#C8D1D5" d="M140.901,98.858l-2.127-2.824c-0.437-6.353-4.738-9.991-6.974-11.467l0.925-1.152
				C134.812,84.745,139.725,88.893,140.901,98.858z"/>
			<path fill="#97BBD2" d="M138.774,96.034l-7.834-10.4l0.86-1.066C134.036,86.042,138.338,89.681,138.774,96.034z"/>
			<path fill="#E1E6EC" d="M151.186,111.903l-10.284-13.045c-1.177-9.965-6.09-14.113-8.176-15.443l0.767-0.949
				c0,0,13.094,8.494,13.72,18.355l-4.226-4.138C142.986,96.683,150.275,105.12,151.186,111.903z"/>
		</g>
		<circle fill="#97BBD2" stroke="#EEEFEF" stroke-width="0.6961" cx="120.24" cy="72.034" r="1.08"/>
		<circle fill="#97BBD2" stroke="#EEEFEF" stroke-width="0.6961" cx="123.314" cy="76.233" r="1.079"/>
		<path fill="#9C2423" d="M125.375,85.846l-15.623-11.755l2.462,15.591l7.585,7.762C119.87,95.478,120.463,86.408,125.375,85.846z"
			/>
		<path fill="#BB2F2E" d="M119.787,97.825c0,0,0.004-0.14,0.012-0.381l-7.585-7.762l0.732,4.391l9.272,7.416l0.873-0.27
			L119.787,97.825z"/>
		<polygon fill="#9C2423" points="113.128,95.182 121.787,101.622 122.219,101.489 112.946,94.073 		"/>
		<path fill="#9C2423" d="M131.574,81.7l-6.259-18.522l14.031,7.229l4.991,9.634C142.451,79.495,133.649,77.212,131.574,81.7z"/>
		<path fill="#BB2F2E" d="M144.702,80.151c0,0-0.135-0.044-0.364-0.11l-4.991-9.634l3.94,2.069l4.133,11.13l-0.531,0.746
			L144.702,80.151z"/>
		<polygon fill="#9C2423" points="144.73,74.066 147.584,84.472 147.303,84.827 143.765,73.493 		"/>
	</g>
	<g>
		<polygon fill="none" points="95.418,30.824 93.844,35.48 93.844,35.48 		"/>
		<path fill="#4B4C42" d="M88.591,28.277l-1.344-1.845c0.03,0.836,0.115,1.723,0.241,2.647L88.591,28.277z"/>
		<rect x="93.844" y="35.48" fill="#F8E2B0" width="0" height="0.001"/>
		<path fill="#F7DBB0" d="M88.881,35.661l0.045-0.11l4.917-0.07l-2.471-3.391l-2.781-3.814l-1.103,0.802
			C87.767,31.123,88.256,33.356,88.881,35.661z"/>
		<path fill="#1E2117" d="M87.247,26.432l-0.18-0.247c-0.319,1.216-0.543,2.452-0.685,3.701l1.105-0.807
			C87.362,28.155,87.277,27.268,87.247,26.432z"/>
		<path fill="#F7CF95" d="M87.488,29.079l-1.105,0.807c-0.402,3.507-0.155,7.104,0.455,10.542l2.043-4.768
			C88.256,33.356,87.767,31.123,87.488,29.079z"/>
		<path fill="#4B4C42" d="M87.251,26.43l1.344,1.844l1.102-0.804C88.855,27.067,88.037,26.718,87.251,26.43z"/>
		<path fill="#F7E4C9" d="M95.418,30.824l0.116-0.012c-2.001-1.3-3.979-2.449-5.838-3.342l-1.102,0.804l2.777,3.816l2.472,3.39
			L95.418,30.824z"/>
		<polygon fill="#F7E4C9" points="93.844,35.481 93.844,35.48 91.372,32.091 93.843,35.481 		"/>
		<path fill="#1E2117" d="M90.802,26.665c-1.23-0.247-2.476-0.414-3.73-0.482l0.18,0.247c0.786,0.288,1.604,0.637,2.445,1.04
			L90.802,26.665z"/>
		<path fill="#F7CF95" d="M95.534,30.812l5.164-0.483c-3.087-1.635-6.434-2.971-9.896-3.664l-1.105,0.805
			C91.555,28.363,93.533,29.512,95.534,30.812z"/>
		<path fill="#B32A29" d="M93.843,35.481l-4.917,0.07l-0.045,0.11c0.71,2.627,1.596,5.339,2.537,7.969
			c1.698-0.758,3.658-1.903,5.714-3.628l-3.291-4.518L93.843,35.481z"/>
		<polygon fill="#B32A29" points="93.841,35.483 93.844,35.481 93.844,35.481 		"/>
		<polygon fill="#B32A29" points="93.843,35.481 88.926,35.551 93.843,35.481 		"/>
		<rect x="93.844" y="35.481" fill="#B32A29" width="0" height="0"/>
		<polygon fill="#B32A29" points="93.843,35.481 93.841,35.483 93.844,35.481 		"/>
		<rect x="93.843" y="35.481" fill="#B32A29" width="0" height="0.001"/>
		<path fill="#932021" d="M88.881,35.661l-2.043,4.768c0.267,1.505,0.604,2.981,0.986,4.408c0.95-0.209,2.179-0.574,3.594-1.207
			C90.477,41,89.591,38.288,88.881,35.661z"/>
		<path fill="#C22B2C" d="M95.418,30.824l-1.574,4.657l0.002,0.001l3.291,4.516c1.504-1.263,3.057-2.838,4.594-4.798
			c-2.026-1.538-4.125-3.042-6.196-4.387L95.418,30.824z"/>
		<polygon fill="#C22B2C" points="93.846,35.482 93.844,35.48 93.844,35.481 		"/>
		<polygon fill="#C22B2C" points="93.844,35.481 93.841,35.483 97.132,40.001 97.137,39.998 93.846,35.482 		"/>
		<polygon fill="#C22B2C" points="93.844,35.481 93.846,35.482 93.844,35.481 		"/>
		<path fill="#B32A29" d="M101.73,35.199c0.722-0.922,1.438-1.933,2.146-3.033c-1.023-0.638-2.085-1.257-3.179-1.837l-5.164,0.483
			C97.605,32.158,99.704,33.661,101.73,35.199z"/>
	</g>
</g>
</svg>
