<?xml version="1.0" encoding="utf-8"?>
<!-- Generator: Adobe Illustrator 16.0.4, SVG Export Plug-In . SVG Version: 6.00 Build 0)  -->
<!DOCTYPE svg PUBLIC "-//W3C//DTD SVG 1.1//EN" "http://www.w3.org/Graphics/SVG/1.1/DTD/svg11.dtd">
<svg version="1.1" id="Layer_1" xmlns="http://www.w3.org/2000/svg" xmlns:xlink="http://www.w3.org/1999/xlink" x="0px" y="0px"
	 width="159.951px" height="85.72px" viewBox="0 0 159.951 85.72" enable-background="new 0 0 159.951 85.72" xml:space="preserve">
<g>
	<polygon fill="#CE3E38" points="137.782,31.123 6.85,31.123 0,50.073 144.643,50.073 	"/>
	<polygon fill="#CE3E38" points="0,50.073 6.85,69.022 137.782,69.022 144.643,50.073 	"/>
</g>
<g>
	<path fill="#C8D1D5" d="M110.848,12.233c-2.686,2.994-6.982,6.315-13.748,8.399c3.92,12.803,15.312,29.475,45.633,43.685
		c0.311,0.145,0.613,0.293,0.93,0.44l0.215-0.159C139.44,30.925,125.86,14.803,114.34,7.093
		C113.754,8.326,112.668,10.205,110.848,12.233z"/>
	<path fill="#932021" d="M112.399,5.859c-0.621,1.227-1.668,2.934-3.314,4.761c-2.527,2.81-6.475,5.904-12.551,7.994
		c0.17,0.66,0.357,1.333,0.566,2.019c6.766-2.083,11.062-5.405,13.748-8.399c1.82-2.028,2.906-3.907,3.492-5.14
		C113.686,6.654,113.038,6.244,112.399,5.859z"/>
	<g>
		<circle fill="#EEEFEF" cx="114.595" cy="23.855" r="7.425"/>
		<circle fill="#97BBD2" cx="114.213" cy="23.499" r="7.055"/>
		<circle fill="#728EA0" cx="114.239" cy="24.326" r="4.7"/>
		<path fill="#728EA0" stroke="#EEEFEF" stroke-width="0.6961" d="M137.965,51.736c0,0-5.107,5.198-2.535,3.396
			c2.57-1.802-4.146,1.294-4.146,1.294l-8.094-10.631c0,0,1.826-0.646,4.32-2.394c2.494-1.749,3.283-3.28,3.283-3.28L137.965,51.736
			z"/>
		<g>
			<path fill="#C8D1D5" d="M149.766,72.596l-2.166-2.792c-6.014-2.087-8.398-7.192-9.238-9.736l-1.354,0.593
				C137.745,63.021,140.459,68.848,149.766,72.596z"/>
			<path fill="#97BBD2" d="M147.6,69.804l-7.549-10.466l-1.689,0.729C139.202,62.611,141.586,67.717,147.6,69.804z"/>
			<path fill="#E1E6EC" d="M159.952,85.719l-10.186-13.123c-9.307-3.748-12.021-9.575-12.758-11.936l-1.117,0.488
				c0,0,4.766,14.865,14.115,18.054l-2.883-5.161C147.124,74.041,153.645,83.063,159.952,85.719z"/>
		</g>
		<g>
			<path fill="#C8D1D5" d="M149.667,72.675l-2.127-2.825c-0.436-6.352-4.738-9.99-6.973-11.467l0.924-1.152
				C143.577,58.562,148.491,62.709,149.667,72.675z"/>
			<path fill="#97BBD2" d="M147.54,69.85l-7.834-10.4l0.861-1.066C142.801,59.859,147.104,63.498,147.54,69.85z"/>
			<path fill="#E1E6EC" d="M159.952,85.719l-10.285-13.044c-1.176-9.966-6.09-14.113-8.176-15.444l0.768-0.948
				c0,0,13.094,8.495,13.719,18.354l-4.225-4.137C151.752,70.5,159.042,78.938,159.952,85.719z"/>
		</g>
		<circle fill="#97BBD2" stroke="#EEEFEF" stroke-width="0.6961" cx="129.005" cy="45.851" r="1.08"/>
		<circle fill="#97BBD2" stroke="#EEEFEF" stroke-width="0.6961" cx="132.081" cy="50.05" r="1.079"/>
		<path fill="#9C2423" d="M134.141,59.663l-15.623-11.755l2.461,15.59l7.586,7.762C128.635,69.295,129.229,60.225,134.141,59.663z"
			/>
		<path fill="#BB2F2E" d="M128.553,71.641c0,0,0.004-0.139,0.012-0.381l-7.586-7.762l0.732,4.393l9.273,7.416l0.873-0.27
			L128.553,71.641z"/>
		<polygon fill="#9C2423" points="121.893,68.998 130.553,75.438 130.985,75.307 121.711,67.891 		"/>
		<path fill="#9C2423" d="M140.34,55.516l-6.26-18.521l14.031,7.229l4.992,9.634C151.217,53.312,142.415,51.029,140.34,55.516z"/>
		<path fill="#BB2F2E" d="M153.467,53.969c0,0-0.135-0.045-0.363-0.111l-4.992-9.634l3.941,2.069l4.133,11.13l-0.531,0.746
			L153.467,53.969z"/>
		<polygon fill="#9C2423" points="153.497,47.883 156.35,58.289 156.069,58.645 152.53,47.311 		"/>
	</g>
	<g>
		<polygon fill="none" points="104.184,4.641 102.61,9.297 102.61,9.297 		"/>
		<path fill="#4B4C42" d="M97.356,2.094l-1.344-1.845c0.031,0.836,0.115,1.723,0.242,2.647L97.356,2.094z"/>
		<rect x="102.61" y="9.297" fill="#F8E2B0" width="0" height="0.001"/>
		<path fill="#F7DBB0" d="M97.647,9.478l0.045-0.11l4.916-0.07l-2.471-3.391l-2.781-3.814l-1.102,0.802
			C96.532,4.939,97.022,7.173,97.647,9.478z"/>
		<path fill="#1E2117" d="M96.012,0.249l-0.18-0.247c-0.318,1.216-0.543,2.452-0.684,3.701l1.105-0.807
			C96.127,1.972,96.043,1.085,96.012,0.249z"/>
		<path fill="#F7CF95" d="M96.254,2.896l-1.105,0.807c-0.402,3.507-0.156,7.104,0.455,10.542l2.043-4.768
			C97.022,7.173,96.532,4.939,96.254,2.896z"/>
		<path fill="#4B4C42" d="M96.016,0.247l1.344,1.844l1.102-0.804C97.622,0.884,96.803,0.535,96.016,0.247z"/>
		<path fill="#F7E4C9" d="M104.184,4.641l0.115-0.012c-2-1.3-3.979-2.449-5.838-3.342L97.36,2.091l2.777,3.816l2.473,3.39
			L104.184,4.641z"/>
		<polygon fill="#F7E4C9" points="102.61,9.298 102.61,9.297 100.137,5.908 102.608,9.298 		"/>
		<path fill="#1E2117" d="M99.567,0.482c-1.23-0.247-2.475-0.414-3.73-0.482l0.18,0.247c0.787,0.288,1.605,0.637,2.445,1.04
			L99.567,0.482z"/>
		<path fill="#F7CF95" d="M104.299,4.629l5.164-0.483c-3.086-1.635-6.434-2.971-9.896-3.664l-1.105,0.805
			C100.321,2.18,102.299,3.329,104.299,4.629z"/>
		<path fill="#B32A29" d="M102.608,9.298l-4.916,0.07l-0.045,0.11c0.709,2.627,1.596,5.339,2.537,7.969
			c1.697-0.758,3.658-1.903,5.713-3.628L102.606,9.3L102.608,9.298z"/>
		<polygon fill="#B32A29" points="102.606,9.3 102.61,9.298 102.61,9.298 		"/>
		<polygon fill="#B32A29" points="102.608,9.298 97.692,9.368 102.608,9.298 		"/>
		<rect x="102.61" y="9.298" fill="#B32A29" width="0" height="0"/>
		<polygon fill="#B32A29" points="102.608,9.298 102.606,9.3 102.61,9.298 		"/>
		<rect x="102.609" y="9.297" fill="#B32A29" width="0" height="0.002"/>
		<path fill="#932021" d="M97.647,9.478l-2.043,4.768c0.266,1.505,0.604,2.981,0.986,4.408c0.949-0.209,2.178-0.574,3.594-1.207
			C99.243,14.817,98.356,12.105,97.647,9.478z"/>
		<path fill="#C22B2C" d="M104.184,4.641l-1.574,4.657l0.002,0.001l3.291,4.516c1.504-1.263,3.057-2.838,4.594-4.798
			c-2.027-1.538-4.125-3.042-6.197-4.387L104.184,4.641z"/>
		<polygon fill="#C22B2C" points="102.612,9.299 102.61,9.297 102.61,9.298 		"/>
		<polygon fill="#C22B2C" points="102.61,9.298 102.606,9.3 105.897,13.818 105.903,13.814 102.612,9.299 		"/>
		<polygon fill="#C22B2C" points="102.61,9.298 102.612,9.299 102.61,9.298 		"/>
		<path fill="#B32A29" d="M110.497,9.016c0.721-0.922,1.438-1.933,2.146-3.033c-1.023-0.638-2.086-1.257-3.18-1.837l-5.164,0.483
			C106.372,5.975,108.469,7.478,110.497,9.016z"/>
	</g>
</g>
<g>
	<g>
		<path fill="#FFFFFF" d="M20.375,64.55c0,1.021-0.828,1.852-1.851,1.852h-6.059c-1.021,0-1.851-0.83-1.851-1.852l0,0
			c0-1.021,0.83-1.852,1.851-1.852h6.059C19.547,62.698,20.375,63.528,20.375,64.55L20.375,64.55z"/>
		<path fill="#FFFFFF" d="M134.124,64.55c0,1.021-0.826,1.852-1.85,1.852h-6.059c-1.021,0-1.852-0.83-1.852-1.852l0,0
			c0-1.021,0.83-1.852,1.852-1.852h6.059C133.297,62.698,134.124,63.528,134.124,64.55L134.124,64.55z"/>
		<circle fill="#FFFFFF" cx="72.37" cy="64.72" r="2.692"/>
	</g>
</g>
<g>
	<g>
		<path fill="#231F20" d="M25.104,17.207v-2.033h5.724v2.033h-1.872v11.446h-1.979V17.207H25.104z"/>
		<path fill="#231F20" d="M35.576,22.786h-1.54v5.867h-1.979V15.173h1.979v5.57h1.54v-5.57h1.98v13.479h-1.98V22.786z"/>
		<path fill="#231F20" d="M39.483,15.173h4.532v2.033h-2.552v3.537h1.836v2.168h-1.836v3.708h2.552v2.033h-4.532V15.173z"/>
		<path fill="#231F20" d="M55.859,24.031v1.854c-0.018,0.55-0.125,1.038-0.322,1.47c-0.084,0.185-0.191,0.359-0.322,0.527
			s-0.29,0.32-0.475,0.457c-0.18,0.148-0.395,0.263-0.645,0.34c-0.25,0.078-0.544,0.117-0.878,0.117
			c-0.651,0-1.165-0.152-1.541-0.457c-0.18-0.137-0.332-0.289-0.457-0.457s-0.23-0.343-0.313-0.527
			c-0.198-0.432-0.305-0.92-0.323-1.47v-7.944c0.011-0.27,0.043-0.525,0.094-0.771c0.051-0.244,0.127-0.471,0.229-0.68
			c0.083-0.186,0.188-0.364,0.313-0.537c0.125-0.174,0.277-0.328,0.457-0.467c0.185-0.137,0.406-0.249,0.663-0.336
			c0.257-0.086,0.549-0.13,0.878-0.13c0.334,0,0.628,0.044,0.878,0.13c0.25,0.087,0.465,0.199,0.645,0.336
			c0.185,0.139,0.344,0.293,0.475,0.467c0.131,0.173,0.238,0.352,0.322,0.537c0.102,0.209,0.178,0.436,0.229,0.68
			c0.051,0.246,0.082,0.502,0.094,0.771v1.854h-1.845v-1.854c0-0.186-0.024-0.346-0.071-0.479c-0.049-0.135-0.123-0.256-0.224-0.363
			c-0.103-0.103-0.255-0.152-0.458-0.152c-0.173,0-0.305,0.053-0.398,0.16c-0.092,0.108-0.163,0.222-0.21,0.342
			c-0.03,0.071-0.05,0.146-0.059,0.228c-0.009,0.08-0.019,0.169-0.032,0.265v7.944c0.013,0.191,0.043,0.354,0.094,0.488
			c0.05,0.135,0.124,0.253,0.219,0.354c0.096,0.096,0.225,0.143,0.385,0.143c0.209,0,0.362-0.047,0.458-0.143
			c0.095-0.096,0.167-0.212,0.214-0.35c0.03-0.066,0.051-0.139,0.063-0.221c0.013-0.08,0.018-0.171,0.018-0.272v-1.854H55.859z"/>
		<path fill="#231F20" d="M62.669,25.885c-0.019,0.55-0.125,1.038-0.323,1.47c-0.083,0.185-0.19,0.359-0.322,0.527
			c-0.131,0.168-0.289,0.32-0.475,0.457c-0.18,0.148-0.394,0.263-0.645,0.34c-0.25,0.078-0.543,0.117-0.879,0.117
			c-0.65,0-1.164-0.152-1.539-0.457c-0.18-0.137-0.331-0.289-0.457-0.457s-0.23-0.343-0.313-0.527
			c-0.197-0.432-0.305-0.92-0.323-1.47v-7.944c0.012-0.27,0.044-0.525,0.094-0.771c0.051-0.244,0.128-0.471,0.229-0.68
			c0.083-0.186,0.188-0.364,0.313-0.537c0.126-0.174,0.277-0.328,0.457-0.467c0.184-0.137,0.405-0.249,0.662-0.336
			c0.258-0.086,0.549-0.13,0.877-0.13c0.336,0,0.629,0.044,0.879,0.13c0.251,0.087,0.465,0.199,0.645,0.336
			c0.186,0.139,0.344,0.293,0.475,0.467c0.132,0.173,0.239,0.352,0.322,0.537c0.103,0.209,0.178,0.436,0.229,0.68
			c0.051,0.246,0.082,0.502,0.095,0.771V25.885z M60.689,17.941c0-0.358-0.084-0.639-0.251-0.842
			c-0.048-0.048-0.107-0.086-0.179-0.113c-0.072-0.026-0.15-0.039-0.234-0.039c-0.172,0-0.303,0.053-0.394,0.16
			c-0.089,0.108-0.151,0.222-0.188,0.342c-0.03,0.071-0.05,0.146-0.058,0.228c-0.01,0.08-0.014,0.169-0.014,0.265v7.944
			c0,0.191,0.021,0.354,0.066,0.488c0.045,0.135,0.111,0.253,0.201,0.354c0.107,0.096,0.236,0.143,0.385,0.143
			c0.174,0,0.307-0.047,0.4-0.143c0.092-0.096,0.156-0.212,0.191-0.35c0.029-0.066,0.049-0.139,0.059-0.221
			c0.009-0.08,0.014-0.171,0.014-0.272V17.941z"/>
		<path fill="#231F20" d="M67.758,18.783c0-0.221-0.008-0.447-0.026-0.682c-0.019-0.232-0.061-0.444-0.126-0.635
			c-0.064-0.186-0.15-0.336-0.255-0.453c-0.104-0.116-0.234-0.174-0.39-0.174c-0.256,0.012-0.434,0.139-0.528,0.385
			c-0.097,0.245-0.144,0.564-0.144,0.959c0,0.227,0.045,0.459,0.135,0.698c0.09,0.237,0.209,0.486,0.357,0.743
			c0.149,0.263,0.316,0.527,0.502,0.792c0.185,0.267,0.373,0.542,0.564,0.829c0.227,0.34,0.451,0.683,0.672,1.025
			c0.221,0.344,0.418,0.686,0.591,1.025c0.173,0.341,0.315,0.686,0.425,1.035c0.111,0.348,0.167,0.709,0.167,1.078
			c0,0.449-0.044,0.876-0.13,1.281c-0.087,0.406-0.234,0.768-0.443,1.084c-0.211,0.311-0.49,0.559-0.842,0.744
			c-0.354,0.185-0.801,0.277-1.344,0.277c-0.633,0-1.138-0.109-1.514-0.326c-0.377-0.219-0.666-0.513-0.869-0.883
			s-0.336-0.789-0.398-1.254c-0.062-0.467-0.094-0.953-0.094-1.46l1.943-0.18c0,0.288,0.009,0.565,0.026,0.838
			c0.019,0.271,0.063,0.512,0.134,0.721c0.066,0.221,0.159,0.399,0.278,0.533c0.12,0.134,0.284,0.202,0.493,0.202
			c0.148,0,0.274-0.038,0.375-0.113c0.102-0.074,0.186-0.178,0.252-0.309s0.113-0.287,0.143-0.471
			c0.029-0.182,0.045-0.38,0.045-0.596c0-0.221-0.049-0.457-0.147-0.707c-0.099-0.251-0.223-0.511-0.372-0.779
			c-0.083-0.131-0.167-0.265-0.25-0.398c-0.084-0.135-0.17-0.271-0.26-0.407c-0.191-0.28-0.393-0.575-0.601-0.883
			c-0.21-0.308-0.424-0.632-0.645-0.972c-0.442-0.674-0.768-1.373-0.977-2.096c-0.107-0.341-0.161-0.699-0.161-1.074
			c0-0.371,0.045-0.742,0.135-1.115c0.088-0.374,0.238-0.713,0.447-1.017c0.209-0.299,0.478-0.543,0.807-0.729
			c0.328-0.189,0.725-0.289,1.191-0.302c0.298-0.005,0.566,0.021,0.806,0.077s0.45,0.139,0.636,0.246s0.347,0.234,0.483,0.381
			s0.255,0.309,0.351,0.488c0.19,0.369,0.321,0.766,0.393,1.191c0.072,0.424,0.108,0.822,0.108,1.199L67.758,18.783z"/>
		<path fill="#231F20" d="M74.504,28.653l-1.271-8.474l-0.072-0.572h-0.106v9.046h-1.837V15.173h2.418l1.174,6.162l0.1,0.716h0.035
			l0.09-0.716l1.173-6.162h2.419v13.479h-1.828v-9.046h-0.115l-0.072,0.572l-1.263,8.474H74.504z"/>
		<path fill="#231F20" d="M85.702,25.885c-0.018,0.55-0.125,1.038-0.322,1.47c-0.082,0.185-0.191,0.359-0.322,0.527
			s-0.289,0.32-0.475,0.457c-0.18,0.148-0.395,0.263-0.645,0.34c-0.252,0.078-0.543,0.117-0.877,0.117
			c-0.652,0-1.166-0.152-1.542-0.457c-0.18-0.137-0.331-0.289-0.457-0.457c-0.125-0.168-0.23-0.343-0.314-0.527
			c-0.195-0.432-0.305-0.92-0.321-1.47v-7.944c0.011-0.27,0.044-0.525,0.093-0.771c0.053-0.244,0.129-0.471,0.229-0.68
			c0.084-0.186,0.189-0.364,0.314-0.537c0.126-0.174,0.277-0.328,0.457-0.467c0.184-0.137,0.407-0.249,0.663-0.336
			c0.256-0.086,0.551-0.13,0.879-0.13c0.334,0,0.625,0.044,0.877,0.13c0.25,0.087,0.465,0.199,0.645,0.336
			c0.186,0.139,0.344,0.293,0.475,0.467c0.131,0.173,0.24,0.352,0.322,0.537c0.102,0.209,0.178,0.436,0.229,0.68
			c0.051,0.246,0.082,0.502,0.094,0.771V25.885z M83.723,17.941c0-0.358-0.084-0.639-0.25-0.842
			c-0.049-0.048-0.107-0.086-0.182-0.113c-0.07-0.026-0.146-0.039-0.23-0.039c-0.174,0-0.305,0.053-0.395,0.16
			c-0.09,0.108-0.152,0.222-0.189,0.342c-0.029,0.071-0.047,0.146-0.057,0.228c-0.01,0.08-0.016,0.169-0.016,0.265v7.944
			c0,0.191,0.025,0.354,0.068,0.488c0.045,0.135,0.111,0.253,0.201,0.354c0.107,0.096,0.236,0.143,0.387,0.143
			c0.172,0,0.305-0.047,0.396-0.143c0.094-0.096,0.158-0.212,0.193-0.35c0.029-0.066,0.049-0.139,0.059-0.221
			c0.01-0.08,0.014-0.171,0.014-0.272V17.941z"/>
		<path fill="#231F20" d="M90.792,18.783c0-0.221-0.01-0.447-0.027-0.682c-0.018-0.232-0.059-0.444-0.125-0.635
			c-0.066-0.186-0.15-0.336-0.256-0.453c-0.104-0.116-0.234-0.174-0.389-0.174c-0.256,0.012-0.432,0.139-0.529,0.385
			c-0.094,0.245-0.143,0.564-0.143,0.959c0,0.227,0.045,0.459,0.135,0.698c0.088,0.237,0.209,0.486,0.357,0.743
			c0.15,0.263,0.316,0.527,0.502,0.792c0.186,0.267,0.373,0.542,0.564,0.829c0.227,0.34,0.451,0.683,0.672,1.025
			c0.221,0.344,0.418,0.686,0.59,1.025c0.174,0.341,0.316,0.686,0.426,1.035c0.111,0.348,0.166,0.709,0.166,1.078
			c0,0.449-0.043,0.876-0.129,1.281c-0.086,0.406-0.234,0.768-0.443,1.084c-0.209,0.311-0.49,0.559-0.842,0.744
			c-0.354,0.185-0.801,0.277-1.344,0.277c-0.635,0-1.139-0.109-1.514-0.326c-0.377-0.219-0.666-0.513-0.869-0.883
			s-0.336-0.789-0.398-1.254c-0.062-0.467-0.094-0.953-0.094-1.46l1.941-0.18c0,0.288,0.01,0.565,0.029,0.838
			c0.018,0.271,0.062,0.512,0.133,0.721c0.066,0.221,0.158,0.399,0.279,0.533c0.119,0.134,0.283,0.202,0.492,0.202
			c0.148,0,0.273-0.038,0.375-0.113c0.102-0.074,0.186-0.178,0.252-0.309s0.113-0.287,0.143-0.471
			c0.029-0.182,0.045-0.38,0.045-0.596c0-0.221-0.049-0.457-0.148-0.707c-0.098-0.251-0.221-0.511-0.371-0.779
			c-0.084-0.131-0.168-0.265-0.25-0.398c-0.084-0.135-0.17-0.271-0.26-0.407c-0.191-0.28-0.391-0.575-0.602-0.883
			c-0.209-0.308-0.424-0.632-0.645-0.972c-0.441-0.674-0.768-1.373-0.977-2.096c-0.107-0.341-0.16-0.699-0.16-1.074
			c0-0.371,0.045-0.742,0.133-1.115c0.09-0.374,0.24-0.713,0.449-1.017c0.209-0.299,0.479-0.543,0.807-0.729
			c0.328-0.189,0.725-0.289,1.191-0.302c0.297-0.005,0.566,0.021,0.805,0.077c0.24,0.057,0.451,0.139,0.637,0.246
			s0.346,0.234,0.484,0.381c0.137,0.146,0.254,0.309,0.348,0.488c0.191,0.369,0.324,0.766,0.395,1.191
			c0.072,0.424,0.107,0.822,0.107,1.199L90.792,18.783z"/>
	</g>
	<g>
		<path d="M91.995,58.017V38.675h-2.592v-2.376h7.588v2.376h-2.59v19.341H91.995z"/>
		<path d="M102.432,36.021v21.996h-2.406V36.021H102.432z"/>
		<path d="M57.198,36.021v21.996h-2.406V36.021H57.198z"/>
		<path d="M71.357,58.017V39.538c0-0.596-0.144-0.981-0.433-1.155c-0.288-0.176-0.565-0.264-0.833-0.264
			c-0.082,0-0.195,0.012-0.338,0.032c-0.146,0.02-0.288,0.077-0.434,0.169c-0.144,0.092-0.268,0.236-0.371,0.433
			c-0.102,0.194-0.153,0.457-0.153,0.785v18.479h-2.374V39.538c0-0.349-0.062-0.621-0.186-0.817
			c-0.124-0.194-0.262-0.338-0.416-0.431s-0.304-0.145-0.447-0.155c-0.145-0.01-0.227-0.016-0.247-0.016
			c-0.062,0-0.164,0.012-0.308,0.032c-0.146,0.02-0.284,0.077-0.418,0.169s-0.257,0.236-0.369,0.433
			c-0.113,0.194-0.171,0.457-0.171,0.785v18.479h-2.374V39.538c0-0.945,0.17-1.675,0.508-2.189c0.341-0.515,0.719-0.89,1.143-1.126
			c0.421-0.236,0.822-0.375,1.202-0.416c0.382-0.041,0.612-0.062,0.694-0.062c0.617,0,1.125,0.107,1.526,0.323
			c0.401,0.217,0.745,0.428,1.034,0.633c0.288-0.228,0.627-0.442,1.018-0.648c0.391-0.205,0.904-0.308,1.543-0.308
			c0.309,0,0.668,0.046,1.08,0.139c0.41,0.093,0.802,0.272,1.171,0.539c0.37,0.269,0.685,0.653,0.942,1.157
			c0.257,0.504,0.386,1.156,0.386,1.958v18.479H71.357z"/>
		<path d="M106.493,38.983c0-0.637,0.113-1.192,0.34-1.665c0.227-0.474,0.523-0.869,0.895-1.188c0.369-0.32,0.787-0.555,1.25-0.709
			c0.461-0.155,0.93-0.232,1.402-0.232c0.678,0,1.264,0.118,1.76,0.354c0.492,0.236,0.898,0.54,1.217,0.909
			c0.32,0.371,0.555,0.777,0.709,1.219c0.156,0.442,0.232,0.881,0.232,1.312v15.239c0,0.803-0.148,1.449-0.447,1.943
			s-0.658,0.879-1.08,1.156c-0.422,0.279-0.848,0.463-1.279,0.557c-0.434,0.092-0.781,0.139-1.049,0.139
			c-0.473,0-0.947-0.072-1.42-0.217s-0.895-0.369-1.264-0.678c-0.371-0.309-0.674-0.705-0.912-1.188
			c-0.236-0.482-0.354-1.055-0.354-1.713V38.983z M108.868,53.575c0,0.184,0.01,0.395,0.031,0.631s0.078,0.459,0.17,0.664
			s0.246,0.375,0.463,0.508c0.217,0.135,0.52,0.201,0.91,0.201c0.369,0,0.652-0.072,0.848-0.217c0.195-0.143,0.34-0.318,0.432-0.523
			s0.15-0.428,0.17-0.664c0.021-0.236,0.031-0.436,0.031-0.6V39.57c0-0.165-0.01-0.365-0.031-0.602
			c-0.02-0.237-0.078-0.457-0.17-0.664c-0.092-0.206-0.242-0.38-0.447-0.524c-0.205-0.144-0.494-0.216-0.863-0.216
			c-0.391,0-0.689,0.072-0.895,0.216c-0.205,0.145-0.355,0.324-0.447,0.54c-0.092,0.217-0.148,0.437-0.17,0.663
			s-0.031,0.422-0.031,0.587V53.575z"/>
		<path d="M30.666,51.29V40.125c0-0.822,0.123-1.516,0.37-2.082c0.247-0.565,0.555-1.018,0.925-1.357
			c0.37-0.34,0.781-0.581,1.234-0.725c0.451-0.145,0.895-0.216,1.326-0.216c0.144,0,0.334,0.01,0.571,0.03
			c0.236,0.021,0.493,0.078,0.771,0.17c0.277,0.093,0.555,0.227,0.833,0.4c0.277,0.176,0.529,0.406,0.755,0.694
			c0.432,0.597,0.684,1.142,0.755,1.636s0.108,0.976,0.108,1.449v17.892h-2.375v-4.504h-2.9v4.504h-2.375v-4.504H28.63l-1.389-2.223
			H30.666z M35.941,51.29V40.125c0-0.186-0.005-0.396-0.016-0.633c-0.01-0.236-0.062-0.452-0.154-0.648
			c-0.093-0.193-0.237-0.363-0.433-0.508c-0.195-0.145-0.479-0.217-0.848-0.217c-0.371,0-0.653,0.072-0.848,0.217
			c-0.195,0.145-0.339,0.318-0.433,0.524c-0.092,0.206-0.144,0.422-0.154,0.647c-0.01,0.227-0.015,0.432-0.015,0.617V51.29H35.941z"
			/>
		<path d="M78.676,51.29V40.125c0-0.822,0.122-1.516,0.369-2.082c0.247-0.565,0.555-1.018,0.926-1.357
			c0.369-0.34,0.781-0.581,1.233-0.725c0.452-0.145,0.894-0.216,1.328-0.216c0.143,0,0.332,0.01,0.57,0.03
			c0.236,0.021,0.492,0.078,0.771,0.17c0.277,0.093,0.555,0.227,0.832,0.4c0.277,0.176,0.529,0.406,0.756,0.694
			c0.432,0.597,0.684,1.142,0.756,1.636s0.107,0.976,0.107,1.449v17.892H83.95v-4.504h-2.9v4.504h-2.374v-4.504h-2.037l-1.388-2.223
			H78.676z M83.95,51.29V40.125c0-0.186-0.006-0.396-0.016-0.633c-0.01-0.236-0.061-0.452-0.154-0.648
			c-0.092-0.193-0.236-0.363-0.432-0.508s-0.479-0.217-0.848-0.217c-0.371,0-0.654,0.072-0.849,0.217
			c-0.195,0.145-0.339,0.318-0.433,0.524c-0.092,0.206-0.144,0.422-0.153,0.647c-0.011,0.227-0.016,0.432-0.016,0.617V51.29H83.95z"
			/>
		<path d="M42.783,40.125c0-0.822,0.124-1.516,0.371-2.082c0.247-0.565,0.555-1.018,0.925-1.357s0.782-0.581,1.234-0.725
			c0.452-0.145,0.894-0.216,1.326-0.216c0.144,0,0.334,0.01,0.572,0.03c0.235,0.021,0.493,0.078,0.771,0.17
			c0.277,0.093,0.55,0.227,0.817,0.4c0.268,0.176,0.514,0.406,0.74,0.694c0.453,0.597,0.715,1.142,0.787,1.636
			c0.073,0.494,0.108,0.976,0.108,1.449v17.892h-2.375V40.125c0-0.186-0.005-0.396-0.015-0.633
			c-0.011-0.236-0.063-0.452-0.155-0.648c-0.092-0.193-0.236-0.363-0.432-0.508c-0.195-0.145-0.478-0.217-0.848-0.217
			s-0.653,0.072-0.849,0.217s-0.339,0.318-0.431,0.524c-0.093,0.206-0.145,0.422-0.155,0.647c-0.01,0.227-0.016,0.432-0.016,0.617
			v17.892h-2.375V40.125z"/>
		<path d="M117.801,40.125c0-0.822,0.123-1.516,0.369-2.082c0.248-0.565,0.557-1.018,0.926-1.357
			c0.371-0.34,0.783-0.581,1.234-0.725c0.453-0.145,0.895-0.216,1.326-0.216c0.145,0,0.334,0.01,0.572,0.03
			c0.236,0.021,0.492,0.078,0.771,0.17c0.277,0.093,0.549,0.227,0.816,0.4c0.268,0.176,0.514,0.406,0.74,0.694
			c0.453,0.597,0.715,1.142,0.787,1.636s0.107,0.976,0.107,1.449v17.892h-2.375V40.125c0-0.186-0.006-0.396-0.016-0.633
			c-0.01-0.236-0.062-0.452-0.154-0.648c-0.092-0.193-0.236-0.363-0.432-0.508s-0.479-0.217-0.848-0.217
			c-0.371,0-0.654,0.072-0.85,0.217s-0.34,0.318-0.432,0.524s-0.145,0.422-0.154,0.647c-0.01,0.227-0.016,0.432-0.016,0.617v17.892
			h-2.375V40.125z"/>
	</g>
	<g>
		<path fill="#F5F5F6" d="M90.692,57.364V38.023H88.1v-2.375h7.588v2.375h-2.59v19.341H90.692z"/>
		<path fill="#F5F5F6" d="M101.127,35.37v21.995h-2.404V35.37H101.127z"/>
		<path fill="#F5F5F6" d="M55.895,35.37v21.995h-2.406V35.37H55.895z"/>
		<path fill="#F5F5F6" d="M70.054,57.364V38.886c0-0.596-0.144-0.981-0.433-1.156c-0.287-0.175-0.565-0.263-0.832-0.263
			c-0.084,0-0.195,0.011-0.34,0.031s-0.287,0.077-0.432,0.169c-0.145,0.094-0.268,0.237-0.371,0.433
			c-0.102,0.195-0.154,0.458-0.154,0.786v18.478h-2.374V38.886c0-0.35-0.062-0.621-0.186-0.817
			c-0.124-0.194-0.263-0.339-0.417-0.432c-0.153-0.093-0.303-0.144-0.446-0.153c-0.146-0.011-0.226-0.017-0.247-0.017
			c-0.062,0-0.164,0.011-0.309,0.031s-0.283,0.077-0.416,0.169c-0.135,0.094-0.258,0.237-0.371,0.433
			c-0.111,0.195-0.17,0.458-0.17,0.786v18.478h-2.373V38.886c0-0.946,0.168-1.676,0.507-2.189c0.341-0.514,0.72-0.89,1.142-1.127
			c0.422-0.235,0.822-0.375,1.204-0.416c0.38-0.041,0.612-0.061,0.693-0.061c0.618,0,1.126,0.107,1.526,0.323
			c0.401,0.216,0.746,0.427,1.033,0.632c0.29-0.227,0.629-0.442,1.02-0.647c0.391-0.206,0.904-0.308,1.543-0.308
			c0.308,0,0.668,0.045,1.079,0.138c0.411,0.094,0.802,0.272,1.171,0.54c0.371,0.268,0.686,0.653,0.942,1.158
			c0.257,0.502,0.386,1.155,0.386,1.957v18.478H70.054z"/>
		<path fill="#F5F5F6" d="M105.19,38.332c0-0.638,0.113-1.193,0.338-1.666c0.227-0.473,0.525-0.869,0.895-1.188
			c0.371-0.318,0.787-0.555,1.25-0.709c0.463-0.155,0.932-0.232,1.404-0.232c0.678,0,1.264,0.119,1.758,0.355s0.9,0.539,1.219,0.909
			c0.318,0.371,0.555,0.776,0.709,1.219s0.232,0.88,0.232,1.312v15.238c0,0.803-0.15,1.449-0.449,1.943
			c-0.297,0.494-0.656,0.879-1.078,1.158c-0.422,0.277-0.848,0.463-1.281,0.555c-0.432,0.092-0.781,0.139-1.049,0.139
			c-0.473,0-0.945-0.072-1.418-0.217c-0.473-0.143-0.895-0.369-1.264-0.678c-0.371-0.309-0.676-0.705-0.912-1.188
			s-0.354-1.055-0.354-1.713V38.332z M107.565,52.923c0,0.186,0.01,0.396,0.031,0.633c0.02,0.234,0.076,0.457,0.168,0.662
			c0.094,0.205,0.248,0.375,0.463,0.508c0.217,0.135,0.52,0.201,0.91,0.201c0.371,0,0.652-0.072,0.85-0.215
			c0.195-0.145,0.338-0.32,0.432-0.525c0.092-0.205,0.148-0.426,0.17-0.664c0.02-0.234,0.031-0.436,0.031-0.6V38.917
			c0-0.164-0.012-0.365-0.031-0.602c-0.021-0.236-0.078-0.457-0.17-0.663c-0.094-0.206-0.242-0.381-0.447-0.524
			c-0.207-0.144-0.494-0.217-0.865-0.217c-0.391,0-0.688,0.073-0.893,0.217c-0.207,0.144-0.355,0.323-0.449,0.539
			c-0.092,0.217-0.148,0.438-0.168,0.664c-0.021,0.227-0.031,0.422-0.031,0.586V52.923z"/>
		<path fill="#F5F5F6" d="M29.362,50.64V39.473c0-0.823,0.123-1.517,0.37-2.083c0.247-0.564,0.555-1.018,0.925-1.357
			c0.37-0.339,0.782-0.58,1.234-0.725c0.452-0.145,0.895-0.215,1.327-0.215c0.143,0,0.333,0.01,0.57,0.029
			c0.237,0.021,0.494,0.078,0.771,0.171c0.277,0.092,0.555,0.226,0.833,0.4c0.277,0.175,0.529,0.407,0.755,0.694
			c0.432,0.597,0.684,1.141,0.755,1.635c0.072,0.494,0.109,0.977,0.109,1.45v17.891h-2.375V52.86h-2.9v4.504h-2.375V52.86h-2.036
			l-1.388-2.221H29.362z M34.638,50.64V39.473c0-0.186-0.005-0.396-0.016-0.632c-0.01-0.238-0.062-0.453-0.154-0.649
			c-0.093-0.194-0.237-0.364-0.433-0.509c-0.194-0.145-0.478-0.216-0.848-0.216c-0.371,0-0.654,0.071-0.849,0.216
			c-0.195,0.145-0.338,0.319-0.432,0.524c-0.092,0.206-0.144,0.422-0.154,0.647c-0.01,0.227-0.015,0.433-0.015,0.618V50.64H34.638z"
			/>
		<path fill="#F5F5F6" d="M77.371,50.64V39.473c0-0.823,0.123-1.517,0.37-2.083c0.247-0.564,0.556-1.018,0.925-1.357
			c0.371-0.339,0.783-0.58,1.235-0.725s0.894-0.215,1.326-0.215c0.144,0,0.333,0.01,0.57,0.029c0.236,0.021,0.494,0.078,0.771,0.171
			c0.279,0.092,0.557,0.226,0.834,0.4s0.529,0.407,0.754,0.694c0.434,0.597,0.686,1.141,0.758,1.635
			c0.07,0.494,0.107,0.977,0.107,1.45v17.891h-2.375V52.86h-2.901v4.504h-2.375V52.86h-2.036l-1.388-2.221H77.371z M82.647,50.64
			V39.473c0-0.186-0.006-0.396-0.016-0.632c-0.01-0.238-0.062-0.453-0.154-0.649c-0.094-0.194-0.236-0.364-0.432-0.509
			s-0.479-0.216-0.849-0.216s-0.653,0.071-0.849,0.216s-0.339,0.319-0.432,0.524c-0.092,0.206-0.145,0.422-0.154,0.647
			c-0.011,0.227-0.016,0.433-0.016,0.618V50.64H82.647z"/>
		<path fill="#F5F5F6" d="M41.479,39.473c0-0.823,0.124-1.517,0.371-2.083c0.247-0.564,0.555-1.018,0.925-1.357
			c0.37-0.339,0.782-0.58,1.234-0.725s0.895-0.215,1.326-0.215c0.144,0,0.334,0.01,0.571,0.029c0.236,0.021,0.494,0.078,0.771,0.171
			c0.278,0.092,0.551,0.226,0.817,0.4c0.268,0.175,0.514,0.407,0.741,0.694c0.452,0.597,0.714,1.141,0.786,1.635
			c0.072,0.494,0.108,0.977,0.108,1.45v17.891h-2.375V39.473c0-0.186-0.005-0.396-0.015-0.632c-0.011-0.238-0.062-0.453-0.155-0.649
			c-0.092-0.194-0.237-0.364-0.432-0.509c-0.196-0.145-0.479-0.216-0.849-0.216s-0.653,0.071-0.848,0.216s-0.339,0.319-0.432,0.524
			c-0.093,0.206-0.145,0.422-0.155,0.647c-0.01,0.227-0.016,0.433-0.016,0.618v17.891h-2.375V39.473z"/>
		<path fill="#F5F5F6" d="M116.499,39.473c0-0.823,0.123-1.517,0.369-2.083c0.248-0.564,0.555-1.018,0.926-1.357
			c0.369-0.339,0.781-0.58,1.234-0.725c0.451-0.145,0.895-0.215,1.326-0.215c0.143,0,0.334,0.01,0.57,0.029
			c0.236,0.021,0.494,0.078,0.771,0.171c0.277,0.092,0.551,0.226,0.818,0.4c0.266,0.175,0.514,0.407,0.74,0.694
			c0.451,0.597,0.713,1.141,0.787,1.635c0.07,0.494,0.105,0.977,0.105,1.45v17.891h-2.375V39.473c0-0.186-0.004-0.396-0.014-0.632
			c-0.012-0.238-0.062-0.453-0.156-0.649c-0.092-0.194-0.236-0.364-0.43-0.509c-0.197-0.145-0.48-0.216-0.85-0.216
			c-0.371,0-0.652,0.071-0.848,0.216s-0.34,0.319-0.434,0.524c-0.092,0.206-0.145,0.422-0.154,0.647
			c-0.01,0.227-0.014,0.433-0.014,0.618v17.891h-2.375V39.473z"/>
	</g>
	<g>
		<g>
			<path d="M17.822,36.957c0-0.281,0.05-0.525,0.149-0.734s0.23-0.383,0.393-0.522s0.347-0.245,0.549-0.313
				c0.204-0.066,0.411-0.101,0.619-0.101c0.299,0,0.556,0.053,0.773,0.156c0.218,0.104,0.396,0.237,0.536,0.4
				c0.141,0.163,0.244,0.343,0.312,0.535c0.069,0.195,0.102,0.388,0.102,0.579v6.702c0,0.353-0.065,0.638-0.197,0.856
				c-0.131,0.215-0.29,0.387-0.475,0.508c-0.185,0.123-0.373,0.203-0.563,0.244c-0.189,0.041-0.343,0.061-0.46,0.061
				c-0.208,0-0.417-0.031-0.625-0.094c-0.208-0.064-0.394-0.162-0.556-0.299c-0.163-0.137-0.297-0.311-0.401-0.523
				c-0.104-0.212-0.156-0.462-0.156-0.752V36.957z M18.867,43.375c0,0.08,0.005,0.174,0.014,0.277
				c0.009,0.105,0.033,0.203,0.074,0.292c0.041,0.091,0.109,0.165,0.204,0.224c0.095,0.06,0.229,0.089,0.4,0.089
				c0.163,0,0.287-0.03,0.373-0.095c0.085-0.063,0.149-0.141,0.19-0.23c0.041-0.09,0.065-0.188,0.075-0.293
				c0.009-0.104,0.013-0.192,0.013-0.264v-6.162c0-0.072-0.004-0.16-0.013-0.265c-0.01-0.103-0.034-0.2-0.075-0.292
				c-0.041-0.09-0.106-0.167-0.197-0.229c-0.091-0.063-0.217-0.095-0.38-0.095c-0.172,0-0.302,0.031-0.393,0.095
				c-0.09,0.062-0.156,0.142-0.197,0.237c-0.042,0.095-0.065,0.191-0.074,0.293c-0.009,0.099-0.014,0.184-0.014,0.256V43.375z"/>
			<polygon points="22.238,43.259 21.656,42.328 26.371,42.328 26.371,43.234 			"/>
			<polygon points="23.093,45.151 23.093,35.63 26.371,35.63 26.371,36.621 24.013,36.621 24.013,45.151 			"/>
		</g>
		<g>
			<path fill="#F5F5F6" d="M17.3,36.432c0-0.28,0.05-0.523,0.149-0.732c0.1-0.208,0.231-0.382,0.394-0.521
				c0.163-0.141,0.347-0.245,0.549-0.313c0.204-0.067,0.41-0.103,0.618-0.103c0.299,0,0.556,0.054,0.774,0.156
				c0.217,0.105,0.396,0.239,0.536,0.4c0.14,0.162,0.244,0.342,0.312,0.537c0.068,0.193,0.102,0.386,0.102,0.575v6.704
				c0,0.354-0.066,0.639-0.197,0.855c-0.131,0.218-0.289,0.388-0.474,0.509c-0.186,0.121-0.374,0.203-0.563,0.244
				s-0.344,0.061-0.461,0.061c-0.208,0-0.417-0.031-0.625-0.096c-0.208-0.062-0.394-0.162-0.556-0.299
				c-0.164-0.134-0.297-0.308-0.401-0.521c-0.104-0.213-0.156-0.463-0.156-0.754V36.432z M18.345,42.851
				c0,0.082,0.005,0.176,0.013,0.278c0.01,0.104,0.034,0.202,0.075,0.292c0.041,0.09,0.108,0.166,0.204,0.224
				c0.095,0.06,0.229,0.09,0.401,0.09c0.162,0,0.287-0.032,0.373-0.095c0.085-0.064,0.149-0.142,0.19-0.231
				c0.04-0.091,0.065-0.188,0.074-0.292c0.009-0.104,0.014-0.191,0.014-0.266v-6.16c0-0.072-0.005-0.16-0.014-0.265
				c-0.008-0.104-0.034-0.201-0.074-0.292c-0.041-0.09-0.106-0.168-0.197-0.23c-0.09-0.064-0.217-0.096-0.38-0.096
				c-0.172,0-0.303,0.031-0.393,0.096c-0.091,0.062-0.157,0.143-0.198,0.237c-0.041,0.095-0.065,0.192-0.075,0.291
				c-0.008,0.101-0.013,0.187-0.013,0.259V42.851z"/>
			<polygon fill="#F5F5F6" points="21.716,42.739 21.133,41.805 25.849,41.805 25.849,42.712 			"/>
			<polygon fill="#F5F5F6" points="22.571,44.63 22.571,35.109 25.849,35.109 25.849,36.097 23.491,36.097 23.491,44.63 			"/>
		</g>
	</g>
</g>
</svg>
