<?xml version="1.0" encoding="utf-8"?>
<!-- Generator: Adobe Illustrator 16.0.4, SVG Export Plug-In . SVG Version: 6.00 Build 0)  -->
<!DOCTYPE svg PUBLIC "-//W3C//DTD SVG 1.1//EN" "http://www.w3.org/Graphics/SVG/1.1/DTD/svg11.dtd">
<svg version="1.1" id="Layer_1" xmlns="http://www.w3.org/2000/svg" xmlns:xlink="http://www.w3.org/1999/xlink" x="0px" y="0px"
	 width="171.047px" height="41.435px" viewBox="0 0 171.047 41.435" enable-background="new 0 0 171.047 41.435"
	 xml:space="preserve">
<g>
	<polygon fill="#3B8DB0" points="163.299,1.511 7.732,1.511 0,21.288 171.047,21.288 	"/>
	<polygon fill="#2B6D87" points="0,21.288 7.732,41.063 163.299,41.063 171.047,21.288 	"/>
</g>
<g>
	<polygon fill="#CE3E38" points="157.746,-0.372 15.308,-0.372 7.855,18.579 165.211,18.579 	"/>
	<polygon fill="#AB322C" points="7.855,18.579 15.308,37.529 157.746,37.529 165.211,18.579 	"/>
</g>
<g>
	<g>
		<path fill="#231F20" d="M30.834,33.212c0,1.085-0.879,1.965-1.965,1.965h-6.433c-1.085,0-1.966-0.88-1.966-1.965l0,0
			c0-1.086,0.881-1.966,1.966-1.966h6.433C29.955,31.247,30.834,32.126,30.834,33.212L30.834,33.212z"/>
		<path fill="#231F20" d="M151.613,33.212c0,1.085-0.879,1.965-1.965,1.965h-6.434c-1.084,0-1.965-0.88-1.965-1.965l0,0
			c0-1.086,0.881-1.966,1.965-1.966h6.434C150.734,31.247,151.613,32.126,151.613,33.212L151.613,33.212z"/>
		<circle fill="#231F20" cx="86.042" cy="33.391" r="2.858"/>
	</g>
</g>
</svg>
