<?xml version="1.0" encoding="utf-8"?>
<!-- Generator: Adobe Illustrator 16.0.4, SVG Export Plug-In . SVG Version: 6.00 Build 0)  -->
<!DOCTYPE svg PUBLIC "-//W3C//DTD SVG 1.1//EN" "http://www.w3.org/Graphics/SVG/1.1/DTD/svg11.dtd">
<svg version="1.1" id="Layer_1" xmlns="http://www.w3.org/2000/svg" xmlns:xlink="http://www.w3.org/1999/xlink" x="0px" y="0px"
	 width="171.047px" height="58.467px" viewBox="0 0 171.047 58.467" enable-background="new 0 0 171.047 58.467"
	 xml:space="preserve">
<g>
	<polygon fill="#3B8DB0" points="163.299,18.915 7.732,18.915 0,38.69 171.047,38.69 	"/>
	<polygon fill="#2B6D87" points="0,38.69 7.732,58.466 163.299,58.466 171.047,38.69 	"/>
</g>
<g>
	<polygon fill="#CE3E38" points="157.746,17.032 15.308,17.032 7.855,35.981 165.211,35.981 	"/>
	<polygon fill="#AB322C" points="7.855,35.981 15.308,54.933 157.746,54.933 165.211,35.981 	"/>
</g>
<g>
	<g>
		<path fill="#231F20" d="M30.834,50.616c0,1.084-0.879,1.965-1.965,1.965h-6.433c-1.085,0-1.966-0.881-1.966-1.965l0,0
			c0-1.086,0.881-1.967,1.966-1.967h6.433C29.955,48.649,30.834,49.53,30.834,50.616L30.834,50.616z"/>
		<path fill="#231F20" d="M151.613,50.616c0,1.084-0.879,1.965-1.965,1.965h-6.434c-1.084,0-1.965-0.881-1.965-1.965l0,0
			c0-1.086,0.881-1.967,1.965-1.967h6.434C150.734,48.649,151.613,49.53,151.613,50.616L151.613,50.616z"/>
		<circle fill="#231F20" cx="86.042" cy="50.794" r="2.858"/>
	</g>
</g>
<g>
	<g>
		<path d="M33.461,2.239V0.158h5.856v2.081h-1.915v11.714h-2.027V2.239H33.461z"/>
		<path d="M44.178,7.949h-1.577v6.004h-2.025V0.158h2.025v5.701h1.577V0.158h2.025v13.794h-2.025V7.949z"/>
		<path d="M48.176,0.158h4.637v2.081h-2.611v3.62h1.881v2.219h-1.881v3.795h2.611v2.08h-4.637V0.158z"/>
		<path d="M64.936,9.223v1.897c-0.018,0.562-0.128,1.062-0.33,1.503c-0.086,0.19-0.195,0.37-0.33,0.541s-0.297,0.327-0.486,0.468
			c-0.182,0.152-0.402,0.269-0.66,0.349c-0.256,0.079-0.556,0.118-0.898,0.118c-0.665,0-1.19-0.156-1.576-0.467
			c-0.183-0.141-0.34-0.297-0.467-0.468c-0.128-0.171-0.235-0.351-0.321-0.541c-0.201-0.44-0.312-0.941-0.33-1.503V2.99
			c0.013-0.275,0.045-0.538,0.097-0.789c0.051-0.25,0.129-0.482,0.233-0.695c0.086-0.189,0.193-0.373,0.321-0.55
			c0.127-0.178,0.284-0.337,0.467-0.478c0.189-0.141,0.416-0.256,0.679-0.344c0.263-0.089,0.562-0.133,0.897-0.133
			c0.343,0,0.643,0.044,0.898,0.133c0.258,0.088,0.479,0.203,0.66,0.344c0.189,0.141,0.352,0.3,0.486,0.478
			c0.135,0.177,0.244,0.36,0.33,0.55c0.104,0.213,0.182,0.445,0.234,0.695c0.051,0.251,0.084,0.514,0.096,0.789v1.897h-1.889V2.99
			c0-0.189-0.023-0.353-0.072-0.49c-0.05-0.138-0.125-0.261-0.229-0.372c-0.104-0.104-0.261-0.155-0.468-0.155
			c-0.178,0-0.313,0.055-0.408,0.165c-0.094,0.11-0.166,0.227-0.215,0.349c-0.03,0.073-0.051,0.151-0.061,0.233
			c-0.008,0.083-0.019,0.174-0.031,0.271v8.131c0.013,0.195,0.045,0.361,0.096,0.5c0.052,0.137,0.127,0.258,0.225,0.361
			c0.098,0.098,0.229,0.147,0.395,0.147c0.214,0,0.369-0.05,0.468-0.147c0.098-0.098,0.171-0.217,0.22-0.357
			c0.03-0.066,0.052-0.143,0.064-0.225c0.012-0.083,0.018-0.176,0.018-0.279V9.223H64.936z"/>
		<path d="M71.904,11.121c-0.02,0.562-0.129,1.062-0.33,1.503c-0.086,0.19-0.196,0.37-0.33,0.541
			c-0.135,0.171-0.297,0.327-0.486,0.468c-0.184,0.152-0.402,0.269-0.66,0.349c-0.256,0.079-0.556,0.118-0.898,0.118
			c-0.665,0-1.191-0.156-1.576-0.467c-0.184-0.141-0.338-0.297-0.467-0.468s-0.235-0.351-0.321-0.541
			c-0.201-0.44-0.312-0.941-0.329-1.503V2.99c0.011-0.275,0.043-0.538,0.096-0.789c0.051-0.25,0.13-0.482,0.233-0.695
			c0.086-0.189,0.192-0.373,0.321-0.55c0.129-0.178,0.283-0.337,0.467-0.478c0.189-0.141,0.416-0.256,0.679-0.344
			c0.262-0.089,0.562-0.133,0.897-0.133c0.343,0,0.643,0.044,0.898,0.133c0.258,0.088,0.477,0.203,0.66,0.344
			c0.189,0.141,0.352,0.3,0.486,0.478c0.134,0.177,0.244,0.36,0.33,0.55c0.104,0.213,0.182,0.445,0.233,0.695
			c0.053,0.251,0.084,0.514,0.097,0.789V11.121z M69.878,2.99c0-0.366-0.086-0.654-0.257-0.862
			c-0.049-0.048-0.109-0.087-0.184-0.114c-0.073-0.027-0.152-0.041-0.238-0.041c-0.178,0-0.311,0.055-0.402,0.165
			s-0.156,0.227-0.193,0.349c-0.03,0.073-0.05,0.151-0.059,0.233c-0.01,0.083-0.014,0.174-0.014,0.271v8.131
			c0,0.195,0.022,0.361,0.068,0.5c0.046,0.137,0.114,0.258,0.206,0.361c0.11,0.098,0.241,0.147,0.394,0.147
			c0.178,0,0.314-0.05,0.409-0.147c0.094-0.098,0.16-0.217,0.196-0.357c0.031-0.066,0.051-0.143,0.06-0.225
			c0.009-0.083,0.014-0.176,0.014-0.279V2.99z"/>
		<path d="M77.111,3.851c0-0.227-0.008-0.457-0.027-0.695c-0.018-0.24-0.061-0.456-0.127-0.652
			c-0.068-0.189-0.154-0.343-0.262-0.463c-0.107-0.119-0.24-0.178-0.398-0.178c-0.262,0.012-0.443,0.143-0.541,0.394
			c-0.098,0.25-0.146,0.577-0.146,0.981c0,0.231,0.045,0.471,0.137,0.714c0.092,0.245,0.215,0.499,0.367,0.761
			c0.152,0.27,0.324,0.539,0.514,0.812c0.189,0.271,0.381,0.555,0.576,0.848c0.232,0.348,0.463,0.698,0.689,1.049
			c0.225,0.352,0.426,0.703,0.604,1.05c0.178,0.349,0.322,0.702,0.436,1.06c0.113,0.355,0.17,0.726,0.17,1.104
			c0,0.459-0.045,0.896-0.133,1.312c-0.09,0.415-0.238,0.786-0.453,1.108c-0.215,0.318-0.502,0.572-0.863,0.762
			c-0.359,0.189-0.818,0.283-1.373,0.283c-0.648,0-1.166-0.111-1.551-0.334s-0.68-0.523-0.889-0.902
			c-0.208-0.379-0.344-0.808-0.408-1.283c-0.063-0.478-0.096-0.975-0.096-1.495l1.988-0.184c0,0.294,0.01,0.579,0.027,0.856
			c0.02,0.279,0.064,0.525,0.139,0.739c0.066,0.227,0.162,0.407,0.283,0.544c0.123,0.139,0.291,0.208,0.506,0.208
			c0.152,0,0.281-0.038,0.383-0.116c0.105-0.074,0.189-0.182,0.258-0.315c0.066-0.135,0.115-0.294,0.146-0.48
			s0.045-0.39,0.045-0.609c0-0.228-0.049-0.468-0.15-0.726c-0.1-0.256-0.227-0.521-0.381-0.797c-0.086-0.134-0.17-0.27-0.256-0.408
			C76.238,8.66,76.15,8.52,76.059,8.379c-0.195-0.286-0.4-0.587-0.615-0.902c-0.213-0.315-0.434-0.646-0.659-0.995
			c-0.452-0.689-0.786-1.405-0.999-2.145c-0.109-0.349-0.165-0.715-0.165-1.1c0-0.379,0.046-0.76,0.138-1.141
			c0.092-0.383,0.244-0.729,0.459-1.041C74.43,0.75,74.705,0.5,75.041,0.308s0.742-0.294,1.219-0.307
			c0.305-0.006,0.58,0.02,0.824,0.078s0.463,0.141,0.65,0.252c0.191,0.111,0.355,0.24,0.496,0.39s0.26,0.316,0.357,0.5
			c0.195,0.379,0.33,0.784,0.404,1.219c0.072,0.435,0.109,0.845,0.109,1.228L77.111,3.851z"/>
		<path d="M84.016,13.953l-1.301-8.671l-0.074-0.587h-0.109v9.258h-1.879V0.158h2.477l1.199,6.306l0.102,0.732h0.035l0.092-0.732
			l1.201-6.306h2.477v13.794h-1.871V4.695h-0.119L86.17,5.282l-1.291,8.671H84.016z"/>
		<path d="M95.477,11.121c-0.018,0.562-0.129,1.062-0.33,1.503c-0.084,0.19-0.195,0.37-0.33,0.541
			c-0.133,0.171-0.297,0.327-0.484,0.468c-0.186,0.152-0.406,0.269-0.66,0.349c-0.258,0.079-0.559,0.118-0.898,0.118
			c-0.666,0-1.193-0.156-1.578-0.467c-0.184-0.141-0.338-0.297-0.467-0.468s-0.236-0.351-0.32-0.541
			c-0.201-0.44-0.314-0.941-0.33-1.503V2.99c0.012-0.275,0.043-0.538,0.096-0.789c0.051-0.25,0.129-0.482,0.234-0.695
			c0.084-0.189,0.191-0.373,0.32-0.55c0.129-0.178,0.283-0.337,0.467-0.478c0.189-0.141,0.416-0.256,0.68-0.344
			c0.262-0.089,0.562-0.133,0.898-0.133c0.34,0,0.641,0.044,0.898,0.133c0.254,0.088,0.475,0.203,0.66,0.344
			c0.188,0.141,0.352,0.3,0.484,0.478c0.135,0.177,0.246,0.36,0.33,0.55c0.104,0.213,0.184,0.445,0.232,0.695
			c0.053,0.251,0.086,0.514,0.098,0.789V11.121z M93.451,2.99c0-0.366-0.086-0.654-0.258-0.862
			c-0.047-0.048-0.109-0.087-0.184-0.114c-0.072-0.027-0.15-0.041-0.236-0.041c-0.18,0-0.312,0.055-0.404,0.165
			s-0.156,0.227-0.193,0.349c-0.029,0.073-0.049,0.151-0.061,0.233c-0.008,0.083-0.012,0.174-0.012,0.271v8.131
			c0,0.195,0.023,0.361,0.068,0.5c0.045,0.137,0.115,0.258,0.207,0.361c0.109,0.098,0.24,0.147,0.395,0.147
			c0.178,0,0.312-0.05,0.408-0.147c0.094-0.098,0.158-0.217,0.193-0.357c0.033-0.066,0.053-0.143,0.062-0.225
			c0.008-0.083,0.014-0.176,0.014-0.279V2.99z"/>
		<path d="M100.684,3.851c0-0.227-0.008-0.457-0.025-0.695c-0.02-0.24-0.062-0.456-0.127-0.652
			c-0.068-0.189-0.158-0.343-0.266-0.463c-0.105-0.119-0.238-0.178-0.396-0.178c-0.262,0.012-0.443,0.143-0.541,0.394
			c-0.098,0.25-0.146,0.577-0.146,0.981c0,0.231,0.047,0.471,0.139,0.714c0.09,0.245,0.213,0.499,0.367,0.761
			c0.15,0.27,0.322,0.539,0.512,0.812c0.189,0.271,0.381,0.555,0.576,0.848c0.234,0.348,0.461,0.698,0.689,1.049
			c0.227,0.352,0.426,0.703,0.604,1.05c0.178,0.349,0.322,0.702,0.436,1.06c0.113,0.355,0.17,0.726,0.17,1.104
			c0,0.459-0.045,0.896-0.133,1.312s-0.238,0.786-0.455,1.108c-0.211,0.318-0.5,0.572-0.859,0.762
			c-0.361,0.189-0.82,0.283-1.375,0.283c-0.65,0-1.164-0.111-1.549-0.334s-0.682-0.523-0.891-0.902
			c-0.207-0.379-0.344-0.808-0.408-1.283c-0.062-0.478-0.096-0.975-0.096-1.495l1.988-0.184c0,0.294,0.01,0.579,0.029,0.856
			c0.018,0.279,0.062,0.525,0.137,0.739c0.066,0.227,0.162,0.407,0.285,0.544c0.121,0.139,0.289,0.208,0.504,0.208
			c0.152,0,0.281-0.038,0.385-0.116c0.105-0.074,0.189-0.182,0.256-0.315c0.068-0.135,0.117-0.294,0.146-0.48
			c0.031-0.187,0.045-0.39,0.045-0.609c0-0.228-0.049-0.468-0.15-0.726c-0.1-0.256-0.229-0.521-0.379-0.797
			c-0.088-0.134-0.172-0.27-0.258-0.408c-0.084-0.137-0.174-0.276-0.266-0.417c-0.195-0.286-0.4-0.587-0.615-0.902
			c-0.213-0.315-0.432-0.646-0.658-0.995c-0.451-0.689-0.785-1.405-1-2.145c-0.107-0.349-0.164-0.715-0.164-1.1
			c0-0.379,0.043-0.76,0.135-1.141c0.094-0.383,0.246-0.729,0.461-1.041c0.215-0.307,0.488-0.556,0.824-0.748
			c0.338-0.192,0.742-0.294,1.219-0.307c0.307-0.006,0.582,0.02,0.826,0.078c0.246,0.058,0.461,0.141,0.65,0.252
			s0.355,0.24,0.494,0.39c0.143,0.149,0.262,0.316,0.357,0.5c0.195,0.379,0.33,0.784,0.404,1.219s0.109,0.845,0.109,1.228
			L100.684,3.851z"/>
	</g>
	<g>
		<path d="M101.975,44.888V25.093H99.32v-2.43h7.768v2.43h-2.652v19.794H101.975z"/>
		<path d="M112.654,22.378v22.509h-2.463V22.378H112.654z"/>
		<path d="M66.362,22.378v22.509H63.9V22.378H66.362z"/>
		<path d="M80.854,44.888v-18.91c0-0.611-0.146-1.006-0.443-1.184c-0.295-0.18-0.578-0.27-0.852-0.27
			c-0.086,0-0.201,0.012-0.348,0.032c-0.148,0.021-0.295,0.079-0.443,0.173c-0.146,0.095-0.273,0.242-0.379,0.443
			c-0.104,0.199-0.156,0.468-0.156,0.805v18.91h-2.43v-18.91c0-0.357-0.064-0.637-0.191-0.838c-0.127-0.199-0.268-0.346-0.426-0.441
			c-0.158-0.095-0.311-0.146-0.457-0.158c-0.148-0.01-0.232-0.016-0.252-0.016c-0.065,0-0.17,0.012-0.316,0.032
			c-0.148,0.021-0.291,0.079-0.427,0.173c-0.138,0.095-0.264,0.242-0.378,0.443c-0.117,0.199-0.176,0.468-0.176,0.805v18.91h-2.429
			v-18.91c0-0.969,0.173-1.716,0.521-2.242c0.347-0.527,0.734-0.91,1.168-1.152c0.431-0.242,0.841-0.384,1.23-0.426
			c0.391-0.043,0.627-0.063,0.71-0.063c0.632,0,1.151,0.11,1.562,0.331c0.412,0.221,0.764,0.438,1.059,0.647
			c0.297-0.231,0.643-0.452,1.043-0.663s0.926-0.315,1.578-0.315c0.316,0,0.686,0.047,1.105,0.142
			c0.42,0.096,0.82,0.279,1.199,0.553s0.701,0.669,0.965,1.185c0.262,0.516,0.395,1.184,0.395,2.005v18.91H80.854z"/>
		<path d="M116.811,25.409c0-0.651,0.115-1.22,0.348-1.703c0.23-0.485,0.535-0.89,0.914-1.216c0.379-0.328,0.805-0.568,1.281-0.727
			c0.471-0.158,0.951-0.238,1.436-0.238c0.693,0,1.293,0.121,1.799,0.363c0.506,0.243,0.92,0.552,1.246,0.932
			c0.328,0.379,0.568,0.795,0.727,1.247c0.16,0.452,0.238,0.9,0.238,1.342v15.596c0,0.82-0.154,1.482-0.459,1.988
			c-0.307,0.506-0.672,0.9-1.105,1.186c-0.43,0.283-0.867,0.473-1.309,0.566c-0.443,0.096-0.799,0.143-1.076,0.143
			c-0.48,0-0.967-0.074-1.451-0.221c-0.482-0.148-0.914-0.379-1.293-0.695c-0.379-0.314-0.689-0.721-0.934-1.215
			c-0.242-0.494-0.361-1.08-0.361-1.752V25.409z M119.242,40.343c0,0.188,0.01,0.404,0.031,0.645c0.021,0.242,0.08,0.471,0.174,0.68
			c0.092,0.211,0.252,0.385,0.473,0.521s0.531,0.205,0.93,0.205c0.379,0,0.67-0.074,0.871-0.221
			c0.199-0.146,0.346-0.326,0.441-0.537c0.094-0.209,0.152-0.438,0.174-0.678c0.021-0.244,0.031-0.447,0.031-0.615V26.008
			c0-0.168-0.01-0.372-0.031-0.614c-0.021-0.244-0.08-0.469-0.174-0.68c-0.096-0.211-0.25-0.389-0.459-0.537
			c-0.209-0.146-0.504-0.221-0.885-0.221c-0.4,0-0.703,0.074-0.914,0.221c-0.211,0.148-0.365,0.332-0.457,0.553
			c-0.094,0.223-0.152,0.447-0.174,0.679c-0.021,0.232-0.031,0.432-0.031,0.6V40.343z"/>
		<path d="M39.209,38.005V26.578c0-0.843,0.125-1.553,0.378-2.132c0.253-0.577,0.567-1.042,0.948-1.388
			c0.377-0.348,0.799-0.596,1.263-0.742c0.462-0.148,0.915-0.222,1.356-0.222c0.147,0,0.342,0.011,0.584,0.032
			s0.505,0.078,0.79,0.173c0.284,0.095,0.567,0.231,0.853,0.411c0.283,0.179,0.541,0.416,0.771,0.71
			c0.443,0.61,0.701,1.167,0.774,1.673s0.11,1,0.11,1.484v18.31h-2.43v-4.609h-2.969v4.609h-2.43v-4.609h-2.084l-1.421-2.273H39.209
			z M44.607,38.005V26.578c0-0.189-0.006-0.406-0.016-0.647c-0.012-0.243-0.063-0.463-0.158-0.663
			c-0.095-0.199-0.242-0.374-0.442-0.521c-0.2-0.146-0.489-0.221-0.868-0.221c-0.38,0-0.669,0.074-0.867,0.221
			c-0.201,0.147-0.348,0.326-0.443,0.537s-0.147,0.432-0.158,0.663c-0.01,0.232-0.016,0.442-0.016,0.632v11.427H44.607z"/>
		<path d="M88.342,38.005V26.578c0-0.843,0.127-1.553,0.377-2.132c0.254-0.577,0.568-1.042,0.949-1.388
			c0.379-0.348,0.799-0.596,1.262-0.742c0.465-0.148,0.916-0.222,1.357-0.222c0.148,0,0.342,0.011,0.584,0.032
			s0.504,0.078,0.789,0.173c0.283,0.095,0.568,0.231,0.854,0.411c0.283,0.179,0.541,0.416,0.773,0.71
			c0.441,0.61,0.699,1.167,0.771,1.673c0.076,0.506,0.111,1,0.111,1.484v18.31h-2.43v-4.609h-2.967v4.609h-2.432v-4.609h-2.084
			l-1.42-2.273H88.342z M93.74,38.005V26.578c0-0.189-0.006-0.406-0.016-0.647c-0.012-0.243-0.064-0.463-0.16-0.663
			c-0.094-0.199-0.24-0.374-0.439-0.521c-0.201-0.146-0.49-0.221-0.871-0.221c-0.379,0-0.666,0.074-0.865,0.221
			c-0.203,0.147-0.348,0.326-0.443,0.537c-0.094,0.211-0.146,0.432-0.158,0.663c-0.008,0.232-0.014,0.442-0.014,0.632v11.427H93.74z
			"/>
		<path d="M51.609,26.578c0-0.843,0.126-1.553,0.379-2.132c0.254-0.577,0.569-1.042,0.947-1.388
			c0.379-0.348,0.801-0.596,1.264-0.742c0.463-0.148,0.916-0.222,1.357-0.222c0.146,0,0.342,0.011,0.584,0.032
			c0.24,0.021,0.505,0.078,0.789,0.173s0.562,0.231,0.837,0.411c0.273,0.179,0.524,0.416,0.757,0.71
			c0.463,0.61,0.73,1.167,0.806,1.673c0.074,0.506,0.11,1,0.11,1.484v18.31h-2.43v-18.31c0-0.189-0.007-0.406-0.017-0.647
			c-0.011-0.243-0.063-0.463-0.158-0.663c-0.095-0.199-0.243-0.374-0.442-0.521c-0.199-0.146-0.489-0.221-0.867-0.221
			c-0.379,0-0.67,0.074-0.869,0.221c-0.199,0.147-0.348,0.326-0.441,0.537c-0.096,0.211-0.148,0.432-0.158,0.663
			c-0.01,0.232-0.016,0.442-0.016,0.632v18.31h-2.432V26.578z"/>
		<path d="M128.385,26.578c0-0.843,0.127-1.553,0.379-2.132c0.25-0.577,0.566-1.042,0.945-1.388
			c0.379-0.348,0.801-0.596,1.264-0.742c0.463-0.148,0.914-0.222,1.357-0.222c0.146,0,0.34,0.011,0.584,0.032
			c0.242,0.021,0.506,0.078,0.789,0.173c0.285,0.095,0.562,0.231,0.838,0.411c0.273,0.179,0.525,0.416,0.758,0.71
			c0.461,0.61,0.73,1.167,0.805,1.673s0.109,1,0.109,1.484v18.31h-2.432v-18.31c0-0.189-0.004-0.406-0.014-0.647
			c-0.012-0.243-0.064-0.463-0.158-0.663c-0.096-0.199-0.242-0.374-0.443-0.521c-0.199-0.146-0.488-0.221-0.869-0.221
			c-0.377,0-0.666,0.074-0.867,0.221c-0.199,0.147-0.348,0.326-0.439,0.537c-0.098,0.211-0.148,0.432-0.16,0.663
			c-0.01,0.232-0.016,0.442-0.016,0.632v18.31h-2.43V26.578z"/>
	</g>
	<g>
		<path fill="#F5F5F6" d="M100.639,44.22V24.427h-2.652v-2.432h7.766v2.432h-2.65V44.22H100.639z"/>
		<path fill="#F5F5F6" d="M111.32,21.71V44.22h-2.461V21.71H111.32z"/>
		<path fill="#F5F5F6" d="M65.027,21.71V44.22h-2.462V21.71H65.027z"/>
		<path fill="#F5F5F6" d="M79.52,44.22V25.31c0-0.609-0.148-1.004-0.443-1.184c-0.295-0.179-0.578-0.268-0.852-0.268
			c-0.086,0-0.201,0.01-0.348,0.031c-0.148,0.02-0.293,0.078-0.443,0.173c-0.146,0.095-0.273,0.243-0.379,0.442
			c-0.104,0.199-0.156,0.469-0.156,0.805v18.91h-2.432V25.31c0-0.357-0.062-0.636-0.189-0.838c-0.127-0.198-0.269-0.346-0.427-0.441
			c-0.156-0.094-0.31-0.146-0.456-0.157c-0.148-0.011-0.232-0.015-0.253-0.015c-0.063,0-0.168,0.01-0.315,0.031
			c-0.148,0.02-0.291,0.078-0.428,0.173s-0.264,0.243-0.377,0.442c-0.117,0.199-0.176,0.469-0.176,0.805v18.91h-2.43V25.31
			c0-0.969,0.174-1.715,0.521-2.241c0.347-0.525,0.735-0.911,1.168-1.151c0.432-0.242,0.843-0.384,1.231-0.427
			c0.391-0.042,0.627-0.063,0.709-0.063c0.633,0,1.152,0.109,1.562,0.332c0.412,0.22,0.764,0.437,1.059,0.646
			c0.295-0.231,0.643-0.452,1.043-0.663c0.4-0.21,0.926-0.315,1.578-0.315c0.316,0,0.686,0.047,1.105,0.142
			c0.422,0.096,0.82,0.28,1.197,0.553c0.381,0.274,0.701,0.669,0.965,1.185s0.395,1.184,0.395,2.004v18.91H79.52z"/>
		<path fill="#F5F5F6" d="M115.477,24.742c0-0.652,0.117-1.221,0.348-1.705s0.535-0.889,0.914-1.215s0.805-0.568,1.279-0.727
			s0.951-0.236,1.438-0.236c0.695,0,1.293,0.121,1.799,0.362c0.506,0.243,0.92,0.553,1.246,0.933
			c0.328,0.378,0.566,0.793,0.727,1.246c0.158,0.452,0.236,0.9,0.236,1.342v15.595c0,0.822-0.152,1.484-0.459,1.988
			c-0.303,0.506-0.67,0.9-1.102,1.186c-0.434,0.283-0.869,0.473-1.311,0.568c-0.441,0.094-0.801,0.141-1.076,0.141
			c-0.48,0-0.967-0.072-1.451-0.221c-0.482-0.148-0.914-0.379-1.293-0.695c-0.379-0.314-0.689-0.719-0.932-1.215
			c-0.242-0.494-0.363-1.078-0.363-1.752V24.742z M117.908,39.675c0,0.189,0.01,0.406,0.031,0.646
			c0.021,0.242,0.078,0.469,0.174,0.68c0.092,0.211,0.252,0.383,0.473,0.52s0.531,0.205,0.93,0.205c0.379,0,0.67-0.072,0.871-0.221
			c0.199-0.146,0.346-0.326,0.441-0.535c0.094-0.211,0.152-0.438,0.174-0.68s0.031-0.447,0.031-0.615V25.341
			c0-0.168-0.01-0.373-0.031-0.615c-0.021-0.243-0.08-0.469-0.174-0.679c-0.096-0.211-0.248-0.39-0.459-0.536
			s-0.504-0.223-0.883-0.223c-0.4,0-0.705,0.076-0.914,0.223c-0.213,0.146-0.367,0.33-0.459,0.552
			c-0.096,0.222-0.152,0.446-0.174,0.679s-0.031,0.432-0.031,0.6V39.675z"/>
		<path fill="#F5F5F6" d="M37.875,37.339V25.91c0-0.841,0.125-1.552,0.377-2.131c0.254-0.578,0.568-1.041,0.948-1.39
			c0.378-0.346,0.8-0.594,1.263-0.74c0.463-0.147,0.916-0.222,1.357-0.222c0.146,0,0.342,0.01,0.584,0.03
			c0.242,0.022,0.504,0.08,0.789,0.175c0.285,0.096,0.568,0.232,0.853,0.411c0.284,0.178,0.542,0.415,0.774,0.71
			c0.441,0.611,0.698,1.168,0.771,1.674c0.074,0.506,0.111,0.998,0.111,1.482v18.31h-2.43v-4.607h-2.969v4.607h-2.43v-4.607h-2.084
			l-1.421-2.273H37.875z M43.273,37.339V25.91c0-0.189-0.006-0.405-0.017-0.646c-0.011-0.242-0.063-0.463-0.157-0.664
			c-0.096-0.199-0.242-0.373-0.443-0.52c-0.199-0.148-0.488-0.221-0.867-0.221s-0.668,0.072-0.868,0.221
			c-0.2,0.146-0.347,0.325-0.443,0.535c-0.095,0.212-0.146,0.433-0.156,0.664c-0.012,0.231-0.017,0.441-0.017,0.631v11.429H43.273z"
			/>
		<path fill="#F5F5F6" d="M87.008,37.339V25.91c0-0.841,0.125-1.552,0.377-2.131c0.254-0.578,0.57-1.041,0.947-1.39
			c0.379-0.346,0.801-0.594,1.264-0.74c0.463-0.147,0.916-0.222,1.357-0.222c0.148,0,0.344,0.01,0.584,0.03
			c0.24,0.022,0.504,0.08,0.789,0.175c0.285,0.096,0.568,0.232,0.854,0.411c0.283,0.178,0.541,0.415,0.773,0.71
			c0.441,0.611,0.697,1.168,0.771,1.674s0.111,0.998,0.111,1.482v18.31h-2.432v-4.607h-2.967v4.607h-2.43v-4.607h-2.084
			l-1.422-2.273H87.008z M92.404,37.339V25.91c0-0.189-0.004-0.405-0.016-0.646c-0.01-0.242-0.062-0.463-0.158-0.664
			c-0.094-0.199-0.24-0.373-0.439-0.52c-0.201-0.148-0.49-0.221-0.869-0.221c-0.381,0-0.668,0.072-0.867,0.221
			c-0.201,0.146-0.348,0.325-0.441,0.535c-0.096,0.212-0.148,0.433-0.16,0.664c-0.01,0.231-0.016,0.441-0.016,0.631v11.429H92.404z"
			/>
		<path fill="#F5F5F6" d="M50.275,25.91c0-0.841,0.127-1.552,0.38-2.131c0.253-0.578,0.567-1.041,0.946-1.39
			c0.379-0.346,0.801-0.594,1.264-0.74c0.462-0.147,0.915-0.222,1.356-0.222c0.147,0,0.343,0.01,0.585,0.03
			c0.241,0.022,0.504,0.08,0.789,0.175c0.284,0.096,0.562,0.232,0.836,0.411c0.275,0.178,0.526,0.415,0.758,0.71
			c0.463,0.611,0.732,1.168,0.805,1.674c0.074,0.506,0.111,0.998,0.111,1.482v18.31h-2.431V25.91c0-0.189-0.005-0.405-0.017-0.646
			c-0.01-0.242-0.062-0.463-0.158-0.664c-0.094-0.199-0.241-0.373-0.441-0.52c-0.2-0.148-0.489-0.221-0.868-0.221
			c-0.378,0-0.667,0.072-0.868,0.221c-0.199,0.146-0.348,0.325-0.441,0.535c-0.095,0.212-0.148,0.433-0.158,0.664
			s-0.016,0.441-0.016,0.631v18.31h-2.432V25.91z"/>
		<path fill="#F5F5F6" d="M127.049,25.91c0-0.841,0.127-1.552,0.379-2.131c0.254-0.578,0.568-1.041,0.947-1.39
			c0.379-0.346,0.801-0.594,1.264-0.74c0.463-0.147,0.916-0.222,1.357-0.222c0.146,0,0.34,0.01,0.582,0.03
			c0.244,0.022,0.508,0.08,0.791,0.175c0.285,0.096,0.564,0.232,0.838,0.411c0.271,0.178,0.525,0.415,0.758,0.71
			c0.461,0.611,0.73,1.168,0.805,1.674s0.109,0.998,0.109,1.482v18.31h-2.432V25.91c0-0.189-0.004-0.405-0.014-0.646
			c-0.012-0.242-0.064-0.463-0.158-0.664c-0.096-0.199-0.242-0.373-0.441-0.52c-0.201-0.148-0.49-0.221-0.871-0.221
			c-0.379,0-0.668,0.072-0.865,0.221c-0.203,0.146-0.348,0.325-0.445,0.535c-0.094,0.212-0.146,0.433-0.156,0.664
			c-0.012,0.231-0.014,0.441-0.014,0.631v18.31h-2.434V25.91z"/>
	</g>
	<g>
		<g>
			<path d="M26.064,23.334c0-0.288,0.051-0.538,0.152-0.751c0.102-0.214,0.236-0.392,0.402-0.535c0.167-0.143,0.355-0.25,0.562-0.32
				c0.208-0.068,0.42-0.104,0.633-0.104c0.306,0,0.568,0.054,0.791,0.16c0.223,0.105,0.406,0.244,0.549,0.41
				c0.144,0.166,0.25,0.35,0.319,0.548c0.07,0.199,0.104,0.396,0.104,0.592v6.86c0,0.361-0.066,0.652-0.201,0.875
				c-0.135,0.221-0.297,0.395-0.486,0.521c-0.19,0.125-0.383,0.207-0.576,0.25c-0.194,0.041-0.352,0.061-0.473,0.061
				c-0.213,0-0.426-0.031-0.639-0.096s-0.402-0.166-0.569-0.307c-0.167-0.139-0.305-0.316-0.411-0.533
				c-0.105-0.219-0.158-0.477-0.158-0.771V23.334z M27.134,29.901c0,0.084,0.005,0.178,0.015,0.285
				c0.008,0.107,0.033,0.207,0.074,0.299c0.043,0.094,0.112,0.17,0.209,0.229c0.098,0.062,0.234,0.092,0.41,0.092
				c0.167,0,0.293-0.031,0.381-0.098c0.089-0.064,0.154-0.143,0.195-0.236c0.042-0.092,0.066-0.189,0.076-0.299
				c0.01-0.105,0.014-0.195,0.014-0.271v-6.304c0-0.074-0.004-0.164-0.014-0.271c-0.01-0.105-0.034-0.205-0.076-0.299
				c-0.041-0.091-0.109-0.171-0.201-0.235c-0.092-0.065-0.223-0.098-0.389-0.098c-0.176,0-0.31,0.032-0.402,0.098
				c-0.094,0.064-0.16,0.146-0.203,0.243c-0.041,0.098-0.066,0.196-0.074,0.3c-0.01,0.101-0.015,0.188-0.015,0.263V29.901z"/>
			<polygon points="30.584,29.786 29.988,28.833 34.812,28.833 34.812,29.759 			"/>
			<polygon points="31.459,31.722 31.459,21.978 34.812,21.978 34.812,22.992 32.4,22.992 32.4,31.722 			"/>
		</g>
		<g>
			<path fill="#F5F5F6" d="M25.529,22.798c0-0.286,0.052-0.535,0.152-0.75c0.104-0.213,0.236-0.391,0.403-0.533
				s0.354-0.25,0.563-0.32c0.207-0.068,0.419-0.104,0.631-0.104c0.307,0,0.568,0.055,0.793,0.159
				c0.221,0.106,0.404,0.245,0.547,0.409c0.145,0.166,0.25,0.35,0.32,0.55c0.069,0.198,0.104,0.396,0.104,0.589v6.861
				c0,0.363-0.066,0.652-0.201,0.875s-0.297,0.396-0.485,0.521c-0.19,0.125-0.382,0.209-0.577,0.25
				c-0.193,0.041-0.352,0.062-0.472,0.062c-0.212,0-0.427-0.033-0.638-0.098c-0.214-0.064-0.404-0.166-0.57-0.305
				c-0.168-0.139-0.304-0.316-0.41-0.535c-0.107-0.217-0.16-0.475-0.16-0.771V22.798z M26.6,29.369c0,0.083,0.004,0.179,0.012,0.283
				c0.012,0.107,0.037,0.207,0.078,0.301c0.041,0.092,0.111,0.168,0.209,0.227c0.097,0.062,0.234,0.092,0.409,0.092
				c0.167,0,0.294-0.031,0.382-0.096c0.088-0.066,0.152-0.145,0.193-0.236c0.043-0.094,0.068-0.191,0.077-0.301
				c0.01-0.105,0.015-0.193,0.015-0.269v-6.306c0-0.073-0.005-0.164-0.015-0.271c-0.009-0.105-0.034-0.206-0.077-0.298
				c-0.041-0.093-0.107-0.172-0.199-0.236c-0.094-0.065-0.223-0.098-0.391-0.098c-0.176,0-0.31,0.032-0.402,0.098
				c-0.092,0.064-0.16,0.146-0.201,0.242c-0.041,0.098-0.066,0.199-0.078,0.299c-0.008,0.103-0.012,0.191-0.012,0.265V29.369z"/>
			<polygon fill="#F5F5F6" points="30.049,29.251 29.453,28.296 34.279,28.296 34.279,29.226 			"/>
			<polygon fill="#F5F5F6" points="30.925,31.188 30.925,21.445 34.279,21.445 34.279,22.456 31.865,22.456 31.865,31.188 			"/>
		</g>
	</g>
</g>
</svg>
